font.ufo
<glyph name="quotedbl" format="1">
  <advance width="346"/>
  <unicode hex="0022"/>
  <outline>
    <contour>
      <point x="120" y="535" type="line"/>
      <point x="123" y="723" type="line"/>
      <point x="92" y="723" type="line"/>
      <point x="95" y="535" type="line"/>
    </contour>
    <contour>
      <point x="251" y="535" type="line"/>
      <point x="254" y="723" type="line"/>
      <point x="223" y="723" type="line"/>
      <point x="226" y="535" type="line"/>
    </contour>
  </outline>
</glyph>
<glyph name="numbersign" format="1">
  <advance width="505"/>
  <unicode hex="0023"/>
  <outline>
    <contour>
      <point x="48" y="247" type="line"/>
      <point x="400" y="247" type="line"/>
      <point x="405" y="270" type="line"/>
      <point x="53" y="270" type="line"/>
    </contour>
    <contour>
      <point x="99" y="491" type="line"/>
      <point x="451" y="491" type="line"/>
      <point x="456" y="513" type="line"/>
      <point x="104" y="513" type="line"/>
    </contour>
    <contour>
      <point x="281" y="39" type="line"/>
      <point x="433" y="722" type="line"/>
      <point x="408" y="722" type="line"/>
      <point x="256" y="39" type="line"/>
    </contour>
    <contour>
      <point x="105" y="46" type="line"/>
      <point x="254" y="722" type="line"/>
      <point x="229" y="722" type="line"/>
      <point x="81" y="46" type="line"/>
    </contour>
  </outline>
</glyph>
<glyph name="dollar" format="1">
  <advance width="421"/>
  <unicode hex="0024"/>
  <outline>
    <contour>
      <point x="83" y="99" type="curve"/>
      <point x="83" y="219"/>
      <point x="83" y="99"/>
      <point x="83" y="219" type="curve"/>
      <point x="60" y="219"/>
      <point x="83" y="219"/>
      <point x="60" y="219" type="curve"/>
      <point x="60" y="99"/>
      <point x="60" y="219"/>
      <point x="60" y="99" type="curve"/>
      <point x="83" y="99"/>
      <point x="60" y="99"/>
    </contour>
    <contour>
      <point x="326" y="631" type="curve"/>
      <point x="326" y="511"/>
      <point x="326" y="631"/>
      <point x="326" y="511" type="curve"/>
      <point x="349" y="511"/>
      <point x="326" y="511"/>
      <point x="349" y="511" type="curve"/>
      <point x="349" y="631"/>
      <point x="349" y="511"/>
      <point x="349" y="631" type="curve"/>
      <point x="326" y="631"/>
      <point x="349" y="631"/>
    </contour>
    <contour>
      <point x="212" y="-43" type="curve"/>
      <point x="212" y="-9"/>
      <point x="212" y="25"/>
      <point x="212" y="59" type="curve"/>
      <point x="187" y="59"/>
      <point x="212" y="59"/>
      <point x="187" y="59" type="curve"/>
      <point x="187" y="25"/>
      <point x="187" y="-9"/>
      <point x="187" y="-43" type="curve"/>
      <point x="212" y="-43"/>
      <point x="187" y="-43"/>
    </contour>
    <contour>
      <point x="220" y="671" type="curve"/>
      <point x="220" y="705"/>
      <point x="220" y="739"/>
      <point x="220" y="773" type="curve"/>
      <point x="195" y="773"/>
      <point x="220" y="773"/>
      <point x="195" y="773" type="curve"/>
      <point x="195" y="739"/>
      <point x="195" y="705"/>
      <point x="195" y="671" type="curve"/>
      <point x="220" y="671"/>
      <point x="195" y="671"/>
    </contour>
    <contour>
      <point x="60" y="99" type="curve"/>
      <point x="96" y="73"/>
      <point x="142" y="48"/>
      <point x="198" y="48" type="curve"/>
      <point x="297" y="48"/>
      <point x="362" y="112"/>
      <point x="362" y="198" type="curve"/>
      <point x="362" y="281"/>
      <point x="297" y="336"/>
      <point x="217" y="385" type="curve"/>
      <point x="147" y="428"/>
      <point x="101" y="470"/>
      <point x="101" y="543" type="curve"/>
      <point x="101" y="608"/>
      <point x="141" y="661"/>
      <point x="211" y="661" type="curve"/>
      <point x="262" y="661"/>
      <point x="296" y="642"/>
      <point x="336" y="612" type="curve"/>
      <point x="349" y="631"/>
      <point x="336" y="612"/>
      <point x="349" y="631" type="curve"/>
      <point x="306" y="664"/>
      <point x="268" y="683"/>
      <point x="212" y="683" type="curve"/>
      <point x="126" y="683"/>
      <point x="75" y="622"/>
      <point x="75" y="543" type="curve"/>
      <point x="75" y="462"/>
      <point x="125" y="412"/>
      <point x="202" y="365" type="curve"/>
      <point x="276" y="322"/>
      <point x="337" y="273"/>
      <point x="337" y="197" type="curve"/>
      <point x="337" y="124"/>
      <point x="283" y="70"/>
      <point x="201" y="70" type="curve"/>
      <point x="150" y="70"/>
      <point x="108" y="96"/>
      <point x="74" y="119" type="curve"/>
      <point x="60" y="99"/>
      <point x="74" y="119"/>
    </contour>
  </outline>
</glyph>
<glyph name="percent" format="1">
  <advance width="690"/>
  <unicode hex="0025"/>
  <outline>
    <contour>
      <point x="213" y="-92" type="line"/>
      <point x="512" y="757" type="line"/>
      <point x="483" y="757" type="line"/>
      <point x="185" y="-92" type="line"/>
    </contour>
    <contour>
      <point x="65" y="556" type="curve"/>
      <point x="65" y="657"/>
      <point x="79" y="742"/>
      <point x="166" y="742" type="curve"/>
      <point x="252" y="743"/>
      <point x="266" y="658"/>
      <point x="266" y="557" type="curve"/>
      <point x="266" y="457"/>
      <point x="254" y="370"/>
      <point x="168" y="370" type="curve"/>
      <point x="80" y="370"/>
      <point x="65" y="455"/>
      <point x="65" y="556" type="curve"/>
      <point x="56" y="556"/>
      <point x="50" y="556"/>
      <point x="41" y="556" type="curve"/>
      <point x="41" y="442"/>
      <point x="66" y="348"/>
      <point x="167" y="348" type="curve"/>
      <point x="267" y="348"/>
      <point x="291" y="443"/>
      <point x="291" y="558" type="curve"/>
      <point x="291" y="672"/>
      <point x="266" y="764"/>
      <point x="167" y="764" type="curve"/>
      <point x="66" y="764"/>
      <point x="41" y="671"/>
      <point x="41" y="556" type="curve"/>
      <point x="50" y="556"/>
      <point x="56" y="556"/>
    </contour>
    <contour>
      <point x="423" y="110" type="curve"/>
      <point x="423" y="210"/>
      <point x="437" y="295"/>
      <point x="524" y="295" type="curve"/>
      <point x="610" y="296"/>
      <point x="624" y="211"/>
      <point x="624" y="111" type="curve"/>
      <point x="624" y="10"/>
      <point x="612" y="-77"/>
      <point x="526" y="-77" type="curve"/>
      <point x="438" y="-77"/>
      <point x="423" y="8"/>
      <point x="423" y="110" type="curve"/>
      <point x="414" y="110"/>
      <point x="408" y="110"/>
      <point x="399" y="110" type="curve"/>
      <point x="399" y="-4"/>
      <point x="425" y="-98"/>
      <point x="525" y="-98" type="curve"/>
      <point x="625" y="-98"/>
      <point x="649" y="-3"/>
      <point x="649" y="112" type="curve"/>
      <point x="649" y="225"/>
      <point x="624" y="318"/>
      <point x="525" y="318" type="curve"/>
      <point x="425" y="318"/>
      <point x="399" y="224"/>
      <point x="399" y="110" type="curve"/>
      <point x="408" y="110"/>
      <point x="414" y="110"/>
    </contour>
  </outline>
</glyph>
<glyph name="ampersand" format="1">
  <advance width="494"/>
  <unicode hex="0026"/>
  <outline>
    <contour>
      <point x="471" y="5" type="line"/>
      <point x="392" y="120"/>
      <point x="317" y="234"/>
      <point x="237" y="349" type="curve"/>
      <point x="190" y="423"/>
      <point x="136" y="487"/>
      <point x="136" y="577" type="curve"/>
      <point x="136" y="644"/>
      <point x="160" y="703"/>
      <point x="216" y="703" type="curve"/>
      <point x="274" y="703"/>
      <point x="300" y="647"/>
      <point x="300" y="579" type="curve"/>
      <point x="300" y="495"/>
      <point x="252" y="442"/>
      <point x="186" y="389" type="curve"/>
      <point x="114" y="328"/>
      <point x="63" y="270"/>
      <point x="63" y="177" type="curve"/>
      <point x="63" y="75"/>
      <point x="114" y="-5"/>
      <point x="210" y="-5" type="curve"/>
      <point x="368" y="-5"/>
      <point x="409" y="150"/>
      <point x="445" y="318" type="curve"/>
      <point x="423" y="323"/>
      <point x="445" y="318"/>
      <point x="423" y="323" type="curve"/>
      <point x="389" y="167"/>
      <point x="347" y="19"/>
      <point x="211" y="19" type="curve"/>
      <point x="131" y="19"/>
      <point x="89" y="89"/>
      <point x="89" y="177" type="curve"/>
      <point x="89" y="262"/>
      <point x="137" y="315"/>
      <point x="202" y="369" type="curve"/>
      <point x="273" y="429"/>
      <point x="326" y="488"/>
      <point x="326" y="580" type="curve"/>
      <point x="326" y="662"/>
      <point x="291" y="727"/>
      <point x="217" y="727" type="curve"/>
      <point x="142" y="727"/>
      <point x="110" y="659"/>
      <point x="110" y="577" type="curve"/>
      <point x="110" y="482"/>
      <point x="165" y="414"/>
      <point x="218" y="336" type="curve"/>
      <point x="296" y="221"/>
      <point x="372" y="106"/>
      <point x="451" y="-8" type="curve"/>
    </contour>
  </outline>
</glyph>
<glyph name="quotesingle" format="1">
  <advance width="214"/>
  <unicode hex="0027"/>
  <outline>
    <contour>
      <point x="120" y="535" type="line"/>
      <point x="123" y="723" type="line"/>
      <point x="92" y="723" type="line"/>
      <point x="95" y="535" type="line"/>
    </contour>
  </outline>
</glyph>
<glyph name="parenleft" format="1">
  <advance width="264"/>
  <unicode hex="0028"/>
  <outline>
    <contour>
      <point x="249" y="-237" type="curve"/>
      <point x="118" y="-54"/>
      <point x="84" y="104"/>
      <point x="84" y="326" type="curve"/>
      <point x="84" y="548"/>
      <point x="120" y="705"/>
      <point x="248" y="890" type="curve"/>
      <point x="231" y="903"/>
      <point x="248" y="890"/>
      <point x="231" y="903" type="curve"/>
      <point x="98" y="717"/>
      <point x="58" y="555"/>
      <point x="58" y="326" type="curve"/>
      <point x="58" y="97"/>
      <point x="99" y="-64"/>
      <point x="231" y="-251" type="curve"/>
      <point x="249" y="-237"/>
      <point x="231" y="-251"/>
    </contour>
  </outline>
</glyph>
<glyph name="plus" format="1">
  <advance width="594"/>
  <unicode hex="002B"/>
  <outline>
    <contour>
      <point x="56" y="297" type="curve"/>
      <point x="538" y="297" type="line"/>
      <point x="538" y="322"/>
      <point x="538" y="297"/>
      <point x="538" y="322" type="curve"/>
      <point x="56" y="322" type="line"/>
      <point x="56" y="297"/>
      <point x="56" y="322"/>
    </contour>
    <contour>
      <point x="310" y="18" type="curve"/>
      <point x="310" y="588" type="line"/>
      <point x="284" y="588"/>
      <point x="310" y="588"/>
      <point x="284" y="588" type="curve"/>
      <point x="284" y="18" type="line"/>
      <point x="310" y="18"/>
      <point x="284" y="18"/>
    </contour>
  </outline>
</glyph>
<glyph name="comma" format="1">
  <advance width="182"/>
  <unicode hex="002C"/>
  <outline>
    <contour>
      <point x="47" y="-102" type="line"/>
      <point x="72" y="-78"/>
      <point x="91" y="-51"/>
      <point x="91" y="-3" type="curve"/>
      <point x="91" y="17"/>
      <point x="88" y="35"/>
      <point x="70" y="35" type="curve"/>
      <point x="56" y="35"/>
      <point x="49" y="28"/>
      <point x="49" y="16" type="curve"/>
      <point x="49" y="6"/>
      <point x="53" y="0"/>
      <point x="65" y="-5" type="curve"/>
      <point x="65" y="-26"/>
      <point x="55" y="-62"/>
      <point x="31" y="-85" type="curve"/>
    </contour>
  </outline>
</glyph>
<glyph name="hyphen" format="1">
  <advance width="376"/>
  <unicode hex="002D"/>
  <outline>
    <contour>
      <point x="87" y="260" type="curve"/>
      <point x="155" y="260"/>
      <point x="223" y="260"/>
      <point x="290" y="260" type="curve"/>
      <point x="290" y="285"/>
      <point x="290" y="260"/>
      <point x="290" y="285" type="curve"/>
      <point x="223" y="285"/>
      <point x="155" y="285"/>
      <point x="87" y="285" type="curve"/>
      <point x="87" y="260"/>
      <point x="87" y="285"/>
    </contour>
  </outline>
</glyph>
<glyph name="period" format="1">
  <advance width="204"/>
  <unicode hex="002E"/>
  <outline>
    <contour>
      <point x="120" y="13" type="curve"/>
      <point x="120" y="24"/>
      <point x="113" y="30"/>
      <point x="101" y="30" type="curve"/>
      <point x="90" y="30"/>
      <point x="84" y="23"/>
      <point x="84" y="13" type="curve"/>
      <point x="120" y="13"/>
      <point x="84" y="13"/>
      <point x="120" y="13" type="curve"/>
      <point x="120" y="1"/>
      <point x="113" y="-5"/>
      <point x="101" y="-5" type="curve"/>
      <point x="90" y="-5"/>
      <point x="84" y="1"/>
      <point x="84" y="13" type="curve"/>
      <point x="120" y="13"/>
      <point x="84" y="13"/>
    </contour>
  </outline>
</glyph>
<glyph name="slash" format="1">
  <advance width="401"/>
  <unicode hex="002F"/>
  <outline>
    <contour>
      <point x="64" y="-66" type="curve"/>
      <point x="163" y="236"/>
      <point x="262" y="540"/>
      <point x="362" y="842" type="curve"/>
      <point x="337" y="842"/>
      <point x="362" y="842"/>
      <point x="337" y="842" type="curve"/>
      <point x="237" y="540"/>
      <point x="138" y="236"/>
      <point x="38" y="-66" type="curve"/>
      <point x="64" y="-66"/>
      <point x="38" y="-66"/>
    </contour>
  </outline>
</glyph>
<glyph name="six" format="1">
  <advance width="442"/>
  <unicode hex="0036"/>
  <outline>
    <contour>
      <point x="83" y="230" type="curve"/>
      <point x="95" y="301"/>
      <point x="142" y="385"/>
      <point x="226" y="385" type="curve"/>
      <point x="317" y="385"/>
      <point x="350" y="307"/>
      <point x="350" y="202" type="curve"/>
      <point x="350" y="112"/>
      <point x="317" y="19"/>
      <point x="229" y="19" type="curve"/>
      <point x="122" y="19"/>
      <point x="87" y="119"/>
      <point x="87" y="242" type="curve"/>
      <point x="87" y="464"/>
      <point x="187" y="633"/>
      <point x="382" y="713" type="curve"/>
      <point x="373" y="734"/>
      <point x="382" y="713"/>
      <point x="373" y="734" type="curve"/>
      <point x="169" y="654"/>
      <point x="61" y="480"/>
      <point x="61" y="241" type="curve"/>
      <point x="61" y="103"/>
      <point x="105" y="-5"/>
      <point x="228" y="-5" type="curve"/>
      <point x="334" y="-5"/>
      <point x="376" y="86"/>
      <point x="376" y="203" type="curve"/>
      <point x="376" y="320"/>
      <point x="333" y="409"/>
      <point x="228" y="409" type="curve"/>
      <point x="132" y="409"/>
      <point x="81" y="330"/>
      <point x="64" y="241" type="curve"/>
      <point x="81" y="230"/>
      <point x="66" y="241"/>
    </contour>
  </outline>
</glyph>
<glyph name="colon" format="1">
  <advance width="210"/>
  <unicode hex="003A"/>
  <outline>
    <contour>
      <point x="123" y="409" type="curve"/>
      <point x="123" y="420"/>
      <point x="116" y="426"/>
      <point x="104" y="426" type="curve"/>
      <point x="93" y="426"/>
      <point x="87" y="419"/>
      <point x="87" y="409" type="curve"/>
      <point x="123" y="409"/>
      <point x="87" y="409"/>
      <point x="123" y="409" type="curve"/>
      <point x="123" y="397"/>
      <point x="116" y="391"/>
      <point x="104" y="391" type="curve"/>
      <point x="93" y="391"/>
      <point x="87" y="397"/>
      <point x="87" y="409" type="curve"/>
      <point x="123" y="409"/>
      <point x="87" y="409"/>
    </contour>
    <contour>
      <point x="123" y="14" type="curve"/>
      <point x="123" y="25"/>
      <point x="116" y="31"/>
      <point x="104" y="31" type="curve"/>
      <point x="93" y="31"/>
      <point x="87" y="24"/>
      <point x="87" y="14" type="curve"/>
      <point x="123" y="14"/>
      <point x="87" y="14"/>
      <point x="123" y="14" type="curve"/>
      <point x="123" y="2"/>
      <point x="116" y="-4"/>
      <point x="104" y="-4" type="curve"/>
      <point x="93" y="-4"/>
      <point x="87" y="2"/>
      <point x="87" y="14" type="curve"/>
      <point x="123" y="14"/>
      <point x="87" y="14"/>
    </contour>
  </outline>
</glyph>
<glyph name="question" format="1">
  <advance width="398"/>
  <unicode hex="003F"/>
  <outline>
    <contour>
      <point x="171" y="334" type="curve"/>
      <point x="171" y="297"/>
      <point x="171" y="258"/>
      <point x="171" y="221" type="curve"/>
      <point x="196" y="221"/>
      <point x="171" y="221"/>
      <point x="196" y="221" type="curve"/>
      <point x="196" y="258"/>
      <point x="196" y="297"/>
      <point x="196" y="334" type="curve"/>
      <point x="171" y="334"/>
      <point x="196" y="334"/>
    </contour>
    <contour>
      <point x="82" y="621" type="line"/>
      <point x="101" y="657"/>
      <point x="133" y="686"/>
      <point x="184" y="686" type="curve"/>
      <point x="271" y="686"/>
      <point x="307" y="612"/>
      <point x="307" y="519" type="curve"/>
      <point x="307" y="418"/>
      <point x="268" y="334"/>
      <point x="176" y="334" type="curve"/>
      <point x="176" y="311"/>
      <point x="176" y="334"/>
      <point x="176" y="311" type="curve"/>
      <point x="283" y="311"/>
      <point x="333" y="404"/>
      <point x="333" y="519" type="curve"/>
      <point x="333" y="624"/>
      <point x="285" y="710"/>
      <point x="186" y="710" type="curve"/>
      <point x="121" y="710"/>
      <point x="87" y="676"/>
      <point x="64" y="633" type="curve"/>
    </contour>
    <contour>
      <point x="201" y="13" type="curve"/>
      <point x="201" y="24"/>
      <point x="194" y="30"/>
      <point x="182" y="30" type="curve"/>
      <point x="171" y="30"/>
      <point x="165" y="23"/>
      <point x="165" y="13" type="curve"/>
      <point x="201" y="13"/>
      <point x="165" y="13"/>
      <point x="201" y="13" type="curve"/>
      <point x="201" y="1"/>
      <point x="194" y="-5"/>
      <point x="182" y="-5" type="curve"/>
      <point x="171" y="-5"/>
      <point x="165" y="1"/>
      <point x="165" y="13" type="curve"/>
      <point x="201" y="13"/>
      <point x="165" y="13"/>
    </contour>
  </outline>
</glyph>
<glyph name="B" format="1">
  <advance width="506"/>
  <unicode hex="0042"/>
  <outline>
    <contour>
      <point x="152" y="722" type="curve"/>
      <point x="108" y="722"/>
      <point x="84" y="722"/>
      <point x="40" y="722" type="curve"/>
      <point x="40" y="699"/>
      <point x="40" y="722"/>
      <point x="40" y="699" type="curve"/>
      <point x="172" y="699"/>
      <point x="20" y="699"/>
      <point x="152" y="699" type="curve"/>
      <point x="152" y="722"/>
      <point x="152" y="699"/>
    </contour>
    <contour>
      <point x="151" y="23" type="curve"/>
      <point x="19" y="23"/>
      <point x="171" y="23"/>
      <point x="39" y="23" type="curve"/>
      <point x="39" y="0"/>
      <point x="39" y="23"/>
      <point x="39" y="0" type="curve"/>
      <point x="83" y="0"/>
      <point x="107" y="0"/>
      <point x="151" y="0" type="curve"/>
      <point x="151" y="23"/>
      <point x="151" y="0"/>
    </contour>
    <contour>
      <point x="144" y="699" type="curve"/>
      <point x="189" y="699"/>
      <point x="218" y="699"/>
      <point x="262" y="699" type="curve"/>
      <point x="344" y="699"/>
      <point x="386" y="641"/>
      <point x="386" y="555" type="curve"/>
      <point x="386" y="474"/>
      <point x="345" y="421"/>
      <point x="269" y="421" type="curve"/>
      <point x="222" y="421"/>
      <point x="191" y="421"/>
      <point x="144" y="421" type="curve"/>
      <point x="144" y="413"/>
      <point x="144" y="407"/>
      <point x="144" y="398" type="curve"/>
      <point x="186" y="398"/>
      <point x="217" y="398"/>
      <point x="259" y="398" type="curve"/>
      <point x="356" y="398"/>
      <point x="411" y="457"/>
      <point x="411" y="555" type="curve"/>
      <point x="411" y="656"/>
      <point x="359" y="722"/>
      <point x="262" y="722" type="curve"/>
      <point x="218" y="722"/>
      <point x="189" y="722"/>
      <point x="144" y="722" type="curve"/>
      <point x="144" y="714"/>
      <point x="144" y="707"/>
    </contour>
    <contour>
      <point x="166" y="0" type="curve"/>
      <point x="166" y="241"/>
      <point x="166" y="481"/>
      <point x="166" y="722" type="curve"/>
      <point x="139" y="722"/>
      <point x="166" y="722"/>
      <point x="139" y="722" type="curve"/>
      <point x="139" y="481"/>
      <point x="140" y="241"/>
      <point x="139" y="0" type="curve"/>
      <point x="166" y="0"/>
      <point x="139" y="0"/>
    </contour>
    <contour>
      <point x="144" y="398" type="curve"/>
      <point x="191" y="398"/>
      <point x="222" y="398"/>
      <point x="269" y="398" type="curve"/>
      <point x="373" y="398"/>
      <point x="419" y="318"/>
      <point x="419" y="204" type="curve"/>
      <point x="419" y="96"/>
      <point x="366" y="23"/>
      <point x="263" y="23" type="curve"/>
      <point x="218" y="23"/>
      <point x="190" y="23"/>
      <point x="144" y="23" type="curve"/>
      <point x="144" y="15"/>
      <point x="144" y="8"/>
      <point x="144" y="0" type="curve"/>
      <point x="190" y="0"/>
      <point x="218" y="0"/>
      <point x="263" y="0" type="curve"/>
      <point x="381" y="0"/>
      <point x="444" y="81"/>
      <point x="444" y="204" type="curve"/>
      <point x="444" y="334"/>
      <point x="385" y="421"/>
      <point x="260" y="421" type="curve"/>
      <point x="218" y="421"/>
      <point x="186" y="421"/>
      <point x="144" y="421" type="curve"/>
      <point x="144" y="413"/>
      <point x="144" y="407"/>
    </contour>
  </outline>
</glyph>
<glyph name="F" format="1">
  <advance width="482"/>
  <unicode hex="0046"/>
  <outline>
    <contour>
      <point x="152" y="0" type="curve"/>
      <point x="196" y="0"/>
      <point x="152" y="0"/>
      <point x="285" y="0" type="curve"/>
      <point x="285" y="23"/>
      <point x="285" y="0"/>
      <point x="285" y="23" type="curve"/>
      <point x="152" y="23"/>
      <point x="285" y="23"/>
      <point x="152" y="23" type="curve"/>
      <point x="152" y="0"/>
      <point x="152" y="23"/>
    </contour>
    <contour>
      <point x="152" y="722" type="curve"/>
      <point x="108" y="722"/>
      <point x="84" y="722"/>
      <point x="40" y="722" type="curve"/>
      <point x="40" y="699"/>
      <point x="40" y="722"/>
      <point x="40" y="699" type="curve"/>
      <point x="172" y="699"/>
      <point x="20" y="699"/>
      <point x="152" y="699" type="curve"/>
      <point x="152" y="722"/>
      <point x="152" y="699"/>
    </contour>
    <contour>
      <point x="152" y="23" type="curve"/>
      <point x="20" y="23"/>
      <point x="172" y="23"/>
      <point x="40" y="23" type="curve"/>
      <point x="40" y="0"/>
      <point x="40" y="23"/>
      <point x="40" y="0" type="curve"/>
      <point x="84" y="0"/>
      <point x="108" y="0"/>
      <point x="152" y="0" type="curve"/>
      <point x="152" y="23"/>
      <point x="152" y="0"/>
    </contour>
    <contour>
      <point x="409" y="711" type="curve"/>
      <point x="409" y="591"/>
      <point x="409" y="720"/>
      <point x="409" y="600" type="curve"/>
      <point x="432" y="600"/>
      <point x="409" y="600"/>
      <point x="432" y="600" type="curve"/>
      <point x="432" y="720"/>
      <point x="432" y="591"/>
      <point x="432" y="711" type="curve"/>
      <point x="409" y="711"/>
      <point x="432" y="711"/>
    </contour>
    <contour>
      <point x="155" y="363" type="curve"/>
      <point x="231" y="363"/>
      <point x="306" y="363"/>
      <point x="381" y="363" type="curve"/>
      <point x="381" y="385"/>
      <point x="381" y="363"/>
      <point x="381" y="385" type="curve"/>
      <point x="306" y="385"/>
      <point x="231" y="385"/>
      <point x="155" y="385" type="curve"/>
      <point x="155" y="363"/>
      <point x="155" y="385"/>
    </contour>
    <contour>
      <point x="165" y="0" type="curve"/>
      <point x="165" y="722" type="line"/>
      <point x="140" y="722"/>
      <point x="165" y="722"/>
      <point x="140" y="722" type="curve"/>
      <point x="140" y="481"/>
      <point x="140" y="241"/>
      <point x="140" y="0" type="curve"/>
      <point x="165" y="0"/>
      <point x="140" y="0"/>
    </contour>
    <contour>
      <point x="144" y="699" type="curve"/>
      <point x="241" y="699"/>
      <point x="336" y="699"/>
      <point x="432" y="699" type="curve"/>
      <point x="432" y="722"/>
      <point x="432" y="699"/>
      <point x="432" y="722" type="curve"/>
      <point x="336" y="722"/>
      <point x="241" y="722"/>
      <point x="144" y="722" type="curve"/>
      <point x="144" y="699"/>
      <point x="144" y="722"/>
    </contour>
  </outline>
</glyph>
<glyph name="I" format="1">
  <advance width="304"/>
  <unicode hex="0049"/>
  <outline>
    <contour>
      <point x="153" y="825" type="move" name="top"/>
    </contour>
    <contour>
      <point x="165" y="0" type="move" name="bottom"/>
    </contour>
    <contour>
      <point x="152" y="722" type="curve"/>
      <point x="108" y="722"/>
      <point x="84" y="722"/>
      <point x="40" y="722" type="curve"/>
      <point x="40" y="699"/>
      <point x="40" y="722"/>
      <point x="40" y="699" type="curve"/>
      <point x="172" y="699"/>
      <point x="20" y="699"/>
      <point x="152" y="699" type="curve"/>
      <point x="152" y="722"/>
      <point x="152" y="699"/>
    </contour>
    <contour>
      <point x="152" y="699" type="curve"/>
      <point x="285" y="699"/>
      <point x="132" y="699"/>
      <point x="265" y="699" type="curve"/>
      <point x="265" y="722"/>
      <point x="265" y="699"/>
      <point x="265" y="722" type="curve"/>
      <point x="220" y="722"/>
      <point x="196" y="722"/>
      <point x="152" y="722" type="curve"/>
      <point x="152" y="699"/>
      <point x="152" y="722"/>
    </contour>
    <contour>
      <point x="152" y="0" type="curve"/>
      <point x="196" y="0"/>
      <point x="220" y="0"/>
      <point x="265" y="0" type="curve"/>
      <point x="265" y="23"/>
      <point x="265" y="0"/>
      <point x="265" y="23" type="curve"/>
      <point x="132" y="23"/>
      <point x="285" y="23"/>
      <point x="152" y="23" type="curve"/>
      <point x="152" y="0"/>
      <point x="152" y="23"/>
    </contour>
    <contour>
      <point x="152" y="23" type="curve"/>
      <point x="20" y="23"/>
      <point x="172" y="23"/>
      <point x="40" y="23" type="curve"/>
      <point x="40" y="0"/>
      <point x="40" y="23"/>
      <point x="40" y="0" type="curve"/>
      <point x="84" y="0"/>
      <point x="108" y="0"/>
      <point x="152" y="0" type="curve"/>
      <point x="152" y="23"/>
      <point x="152" y="0"/>
    </contour>
    <contour>
      <point x="165" y="0" type="curve"/>
      <point x="165" y="241"/>
      <point x="165" y="481"/>
      <point x="165" y="722" type="curve"/>
      <point x="140" y="722"/>
      <point x="165" y="722"/>
      <point x="140" y="722" type="curve"/>
      <point x="140" y="481"/>
      <point x="140" y="241"/>
      <point x="140" y="0" type="curve"/>
      <point x="165" y="0"/>
      <point x="140" y="0"/>
    </contour>
  </outline>
</glyph>
<glyph name="Q" format="1">
  <advance width="569"/>
  <unicode hex="0051"/>
  <outline>
    <contour>
      <point x="278" y="4" type="curve"/>
      <point x="337" y="-151"/>
      <point x="414" y="-240"/>
      <point x="567" y="-240" type="curve"/>
      <point x="567" y="-216"/>
      <point x="567" y="-240"/>
      <point x="567" y="-216" type="curve"/>
      <point x="425" y="-216"/>
      <point x="356" y="-130"/>
      <point x="300" y="16" type="curve"/>
      <point x="278" y="4"/>
      <point x="300" y="16"/>
    </contour>
    <contour>
      <point x="92" y="360" type="curve"/>
      <point x="92" y="543"/>
      <point x="124" y="703"/>
      <point x="282" y="703" type="curve"/>
      <point x="438" y="703"/>
      <point x="473" y="545"/>
      <point x="473" y="363" type="curve"/>
      <point x="473" y="180"/>
      <point x="442" y="20"/>
      <point x="285" y="20" type="curve"/>
      <point x="126" y="20"/>
      <point x="92" y="177"/>
      <point x="92" y="360" type="curve"/>
      <point x="67" y="360"/>
      <point x="92" y="360"/>
      <point x="67" y="360" type="curve"/>
      <point x="67" y="162"/>
      <point x="111" y="-5"/>
      <point x="284" y="-5" type="curve"/>
      <point x="457" y="-5"/>
      <point x="498" y="165"/>
      <point x="498" y="364" type="curve"/>
      <point x="498" y="561"/>
      <point x="455" y="727"/>
      <point x="284" y="727" type="curve"/>
      <point x="111" y="727"/>
      <point x="67" y="558"/>
      <point x="67" y="360" type="curve"/>
      <point x="92" y="360"/>
      <point x="67" y="360"/>
    </contour>
  </outline>
</glyph>
<glyph name="W" format="1">
  <advance width="746"/>
  <unicode hex="0057"/>
  <outline>
    <contour>
      <point x="104" y="699" type="curve"/>
      <point x="226" y="699"/>
      <point x="95" y="699"/>
      <point x="217" y="699" type="curve"/>
      <point x="217" y="722"/>
      <point x="217" y="699"/>
      <point x="217" y="722" type="curve"/>
      <point x="176" y="722"/>
      <point x="144" y="722"/>
      <point x="104" y="722" type="curve"/>
      <point x="104" y="699"/>
      <point x="104" y="722"/>
    </contour>
    <contour>
      <point x="104" y="722" type="curve"/>
      <point x="64" y="722"/>
      <point x="32" y="722"/>
      <point x="-8" y="722" type="curve"/>
      <point x="-8" y="699"/>
      <point x="-8" y="722"/>
      <point x="-8" y="699" type="curve"/>
      <point x="113" y="699"/>
      <point x="-17" y="699"/>
      <point x="104" y="699" type="curve"/>
      <point x="104" y="722"/>
      <point x="104" y="699"/>
    </contour>
    <contour>
      <point x="621" y="722" type="curve"/>
      <point x="581" y="722"/>
      <point x="549" y="722"/>
      <point x="509" y="722" type="curve"/>
      <point x="509" y="699"/>
      <point x="509" y="722"/>
      <point x="509" y="699" type="curve"/>
      <point x="629" y="699"/>
      <point x="500" y="699"/>
      <point x="621" y="699" type="curve"/>
      <point x="621" y="722"/>
      <point x="621" y="699"/>
    </contour>
    <contour>
      <point x="621" y="699" type="curve"/>
      <point x="742" y="699"/>
      <point x="612" y="699"/>
      <point x="733" y="699" type="curve"/>
      <point x="733" y="722"/>
      <point x="733" y="699"/>
      <point x="733" y="722" type="curve"/>
      <point x="693" y="722"/>
      <point x="661" y="722"/>
      <point x="621" y="722" type="curve"/>
      <point x="621" y="699"/>
      <point x="621" y="722"/>
    </contour>
    <contour>
      <point x="235" y="0" type="curve"/>
      <point x="282" y="241"/>
      <point x="328" y="481"/>
      <point x="375" y="722" type="curve"/>
      <point x="351" y="722"/>
      <point x="376" y="722"/>
      <point x="352" y="722" type="curve"/>
      <point x="307" y="481"/>
      <point x="260" y="241"/>
      <point x="215" y="0" type="curve"/>
      <point x="234" y="0"/>
      <point x="216" y="0"/>
    </contour>
    <contour>
      <point x="358" y="722" type="curve"/>
      <point x="401" y="481"/>
      <point x="442" y="241"/>
      <point x="485" y="0" type="curve"/>
      <point x="504" y="0"/>
      <point x="486" y="0"/>
      <point x="505" y="0" type="curve"/>
      <point x="464" y="241"/>
      <point x="422" y="481"/>
      <point x="381" y="722" type="curve"/>
      <point x="357" y="722"/>
      <point x="382" y="722"/>
    </contour>
    <contour>
      <point x="83" y="722" type="curve"/>
      <point x="126" y="481"/>
      <point x="169" y="241"/>
      <point x="212" y="0" type="curve"/>
      <point x="231" y="0"/>
      <point x="213" y="0"/>
      <point x="232" y="0" type="curve"/>
      <point x="191" y="241"/>
      <point x="150" y="481"/>
      <point x="109" y="722" type="curve"/>
      <point x="83" y="722"/>
      <point x="109" y="722"/>
    </contour>
    <contour>
      <point x="616" y="722" type="curve"/>
      <point x="573" y="481"/>
      <point x="530" y="241"/>
      <point x="488" y="0" type="curve"/>
      <point x="507" y="0"/>
      <point x="489" y="0"/>
      <point x="508" y="0" type="curve"/>
      <point x="553" y="241"/>
      <point x="597" y="481"/>
      <point x="642" y="722" type="curve"/>
      <point x="616" y="722"/>
      <point x="642" y="722"/>
    </contour>
  </outline>
</glyph>
<glyph name="X" format="1">
  <advance width="572"/>
  <unicode hex="0058"/>
  <outline>
    <contour>
      <point x="110" y="0" type="curve"/>
      <point x="150" y="0"/>
      <point x="102" y="0"/>
      <point x="223" y="0" type="curve"/>
      <point x="223" y="23"/>
      <point x="223" y="0"/>
      <point x="223" y="23" type="curve"/>
      <point x="102" y="23"/>
      <point x="231" y="23"/>
      <point x="110" y="23" type="curve"/>
      <point x="110" y="0"/>
      <point x="110" y="23"/>
    </contour>
    <contour>
      <point x="110" y="23" type="curve"/>
      <point x="-11" y="23"/>
      <point x="119" y="23"/>
      <point x="-2" y="23" type="curve"/>
      <point x="-2" y="0"/>
      <point x="-2" y="23"/>
      <point x="-2" y="0" type="curve"/>
      <point x="38" y="0"/>
      <point x="70" y="0"/>
      <point x="110" y="0" type="curve"/>
      <point x="110" y="23"/>
      <point x="110" y="0"/>
    </contour>
    <contour>
      <point x="459" y="0" type="curve"/>
      <point x="499" y="0"/>
      <point x="531" y="0"/>
      <point x="571" y="0" type="curve"/>
      <point x="571" y="23"/>
      <point x="571" y="0"/>
      <point x="571" y="23" type="curve"/>
      <point x="450" y="23"/>
      <point x="580" y="23"/>
      <point x="459" y="23" type="curve"/>
      <point x="459" y="0"/>
      <point x="459" y="23"/>
    </contour>
    <contour>
      <point x="459" y="23" type="curve"/>
      <point x="338" y="23"/>
      <point x="468" y="23"/>
      <point x="347" y="23" type="curve"/>
      <point x="347" y="0"/>
      <point x="347" y="23"/>
      <point x="347" y="0" type="curve"/>
      <point x="387" y="0"/>
      <point x="419" y="0"/>
      <point x="459" y="0" type="curve"/>
      <point x="459" y="23"/>
      <point x="459" y="0"/>
    </contour>
    <contour>
      <point x="441" y="699" type="curve"/>
      <point x="562" y="699"/>
      <point x="432" y="699"/>
      <point x="553" y="699" type="curve"/>
      <point x="553" y="722"/>
      <point x="553" y="699"/>
      <point x="553" y="722" type="curve"/>
      <point x="513" y="722"/>
      <point x="481" y="722"/>
      <point x="441" y="722" type="curve"/>
      <point x="441" y="699"/>
      <point x="441" y="722"/>
    </contour>
    <contour>
      <point x="441" y="722" type="curve"/>
      <point x="401" y="722"/>
      <point x="369" y="722"/>
      <point x="329" y="722" type="curve"/>
      <point x="329" y="699"/>
      <point x="329" y="722"/>
      <point x="329" y="699" type="curve"/>
      <point x="450" y="699"/>
      <point x="320" y="699"/>
      <point x="441" y="699" type="curve"/>
      <point x="441" y="722"/>
      <point x="441" y="699"/>
    </contour>
    <contour>
      <point x="131" y="722" type="curve"/>
      <point x="91" y="722"/>
      <point x="59" y="722"/>
      <point x="19" y="722" type="curve"/>
      <point x="19" y="699"/>
      <point x="19" y="722"/>
      <point x="19" y="699" type="curve"/>
      <point x="140" y="699"/>
      <point x="10" y="699"/>
      <point x="131" y="699" type="curve"/>
      <point x="131" y="722"/>
      <point x="131" y="699"/>
    </contour>
    <contour>
      <point x="131" y="699" type="curve"/>
      <point x="252" y="699"/>
      <point x="122" y="699"/>
      <point x="243" y="699" type="curve"/>
      <point x="243" y="722"/>
      <point x="243" y="699"/>
      <point x="243" y="722" type="curve"/>
      <point x="203" y="722"/>
      <point x="171" y="722"/>
      <point x="131" y="722" type="curve"/>
      <point x="131" y="699"/>
      <point x="131" y="722"/>
    </contour>
    <contour>
      <point x="436" y="722" type="curve"/>
      <point x="319" y="481"/>
      <point x="203" y="241"/>
      <point x="86" y="0" type="curve"/>
      <point x="118" y="0"/>
      <point x="86" y="0"/>
      <point x="118" y="0" type="curve"/>
      <point x="234" y="241"/>
      <point x="349" y="481"/>
      <point x="465" y="722" type="curve"/>
      <point x="436" y="722"/>
      <point x="465" y="722"/>
    </contour>
    <contour>
      <point x="109" y="722" type="curve"/>
      <point x="224" y="481"/>
      <point x="339" y="241"/>
      <point x="454" y="0" type="curve"/>
      <point x="485" y="0"/>
      <point x="454" y="0"/>
      <point x="485" y="0" type="curve"/>
      <point x="370" y="241"/>
      <point x="254" y="481"/>
      <point x="139" y="722" type="curve"/>
      <point x="109" y="722"/>
      <point x="139" y="722"/>
    </contour>
  </outline>
</glyph>
<glyph name="backslash" format="1">
  <advance width="383"/>
  <unicode hex="005C"/>
  <outline>
    <contour>
      <point x="342" y="-68" type="curve"/>
      <point x="251" y="236"/>
      <point x="159" y="540"/>
      <point x="68" y="844" type="curve"/>
      <point x="41" y="844"/>
      <point x="68" y="844"/>
      <point x="41" y="844" type="curve"/>
      <point x="133" y="540"/>
      <point x="224" y="236"/>
      <point x="316" y="-68" type="curve"/>
      <point x="342" y="-68"/>
      <point x="316" y="-68"/>
    </contour>
  </outline>
</glyph>
<glyph name="underscore" format="1">
  <advance width="478"/>
  <unicode hex="005F"/>
  <outline>
    <contour>
      <point x="-1" y="-210" type="curve"/>
      <point x="159" y="-210"/>
      <point x="318" y="-210"/>
      <point x="477" y="-210" type="curve"/>
      <point x="477" y="-187"/>
      <point x="477" y="-210"/>
      <point x="477" y="-187" type="curve"/>
      <point x="318" y="-187"/>
      <point x="159" y="-187"/>
      <point x="-1" y="-187" type="curve"/>
      <point x="-1" y="-210"/>
      <point x="-1" y="-187"/>
    </contour>
  </outline>
</glyph>
<glyph name="grave" format="1">
  <advance width="344"/>
  <unicode hex="0060"/>
  <outline>
    <contour>
      <point x="141" y="590" type="move" name="_top"/>
    </contour>
    <contour>
      <point x="156" y="590" type="line"/>
      <point x="89" y="756" type="line"/>
      <point x="57" y="756" type="line"/>
      <point x="130" y="590" type="line"/>
    </contour>
  </outline>
</glyph>
<glyph name="i" format="1">
  <advance width="261"/>
  <unicode hex="0069"/>
  <outline>
    <contour>
      <point x="145" y="670" type="move" name="top"/>
    </contour>
    <contour>
      <point x="160" y="0" type="move" name="bottom"/>
    </contour>
    <contour>
      <point x="146" y="23" type="curve"/>
      <point x="25" y="23"/>
      <point x="155" y="23"/>
      <point x="34" y="23" type="curve"/>
      <point x="34" y="0"/>
      <point x="34" y="23"/>
      <point x="34" y="0" type="curve"/>
      <point x="74" y="0"/>
      <point x="106" y="0"/>
      <point x="146" y="0" type="curve"/>
      <point x="146" y="23"/>
      <point x="146" y="0"/>
    </contour>
    <contour>
      <point x="146" y="0" type="curve"/>
      <point x="183" y="0"/>
      <point x="213" y="0"/>
      <point x="251" y="0" type="curve"/>
      <point x="251" y="23"/>
      <point x="251" y="0"/>
      <point x="251" y="23" type="curve"/>
      <point x="137" y="23"/>
      <point x="260" y="23"/>
      <point x="146" y="23" type="curve"/>
      <point x="146" y="0"/>
      <point x="146" y="23"/>
    </contour>
    <contour>
      <point x="146" y="533" type="curve"/>
      <point x="106" y="533"/>
      <point x="74" y="533"/>
      <point x="34" y="533" type="curve"/>
      <point x="34" y="510"/>
      <point x="34" y="533"/>
      <point x="34" y="510" type="curve"/>
      <point x="155" y="510"/>
      <point x="25" y="510"/>
      <point x="146" y="510" type="curve"/>
      <point x="146" y="533"/>
      <point x="146" y="510"/>
    </contour>
    <contour>
      <point x="160" y="0" type="curve"/>
      <point x="160" y="178"/>
      <point x="160" y="355"/>
      <point x="160" y="533" type="curve"/>
      <point x="133" y="533"/>
      <point x="160" y="533"/>
      <point x="133" y="533" type="curve"/>
      <point x="133" y="355"/>
      <point x="133" y="178"/>
      <point x="133" y="0" type="curve"/>
      <point x="160" y="0"/>
      <point x="133" y="0"/>
    </contour>
    <contour>
      <point x="163" y="685" type="curve"/>
      <point x="163" y="696"/>
      <point x="155" y="702"/>
      <point x="144" y="702" type="curve"/>
      <point x="133" y="702"/>
      <point x="127" y="695"/>
      <point x="127" y="685" type="curve"/>
      <point x="163" y="685"/>
      <point x="127" y="685"/>
      <point x="163" y="685" type="curve"/>
      <point x="163" y="674"/>
      <point x="155" y="667"/>
      <point x="144" y="667" type="curve"/>
      <point x="133" y="667"/>
      <point x="127" y="674"/>
      <point x="127" y="685" type="curve"/>
      <point x="163" y="685"/>
      <point x="127" y="685"/>
    </contour>
  </outline>
</glyph>
<glyph name="p" format="1">
  <advance width="498"/>
  <unicode hex="0070"/>
  <outline>
    <contour>
      <point x="118" y="-277" type="curve"/>
      <point x="-3" y="-277"/>
      <point x="127" y="-277"/>
      <point x="6" y="-277" type="curve"/>
      <point x="6" y="-300"/>
      <point x="6" y="-277"/>
      <point x="6" y="-300" type="curve"/>
      <point x="46" y="-300"/>
      <point x="78" y="-300"/>
      <point x="118" y="-300" type="curve"/>
      <point x="118" y="-277"/>
      <point x="118" y="-300"/>
    </contour>
    <contour>
      <point x="118" y="-300" type="curve"/>
      <point x="156" y="-300"/>
      <point x="185" y="-300"/>
      <point x="224" y="-300" type="curve"/>
      <point x="224" y="-277"/>
      <point x="224" y="-300"/>
      <point x="224" y="-277" type="curve"/>
      <point x="109" y="-277"/>
      <point x="232" y="-277"/>
      <point x="118" y="-277" type="curve"/>
      <point x="118" y="-300"/>
      <point x="118" y="-277"/>
    </contour>
    <contour>
      <point x="119" y="533" type="curve"/>
      <point x="79" y="533"/>
      <point x="47" y="533"/>
      <point x="7" y="533" type="curve"/>
      <point x="7" y="510"/>
      <point x="7" y="533"/>
      <point x="7" y="510" type="curve"/>
      <point x="128" y="510"/>
      <point x="-2" y="510"/>
      <point x="119" y="510" type="curve"/>
      <point x="119" y="533"/>
      <point x="119" y="510"/>
    </contour>
    <contour>
      <point x="125" y="404" type="curve"/>
      <point x="142" y="452"/>
      <point x="197" y="516"/>
      <point x="266" y="516" type="curve"/>
      <point x="378" y="516"/>
      <point x="409" y="403"/>
      <point x="409" y="276" type="curve"/>
      <point x="411" y="139"/>
      <point x="377" y="18"/>
      <point x="265" y="18" type="curve"/>
      <point x="199" y="18"/>
      <point x="158" y="65"/>
      <point x="127" y="122" type="curve"/>
      <point x="110" y="110"/>
      <point x="127" y="122"/>
      <point x="110" y="110" type="curve"/>
      <point x="143" y="42"/>
      <point x="191" y="-5"/>
      <point x="266" y="-5" type="curve"/>
      <point x="403" y="-5"/>
      <point x="434" y="128"/>
      <point x="434" y="278" type="curve"/>
      <point x="434" y="417"/>
      <point x="397" y="538"/>
      <point x="268" y="538" type="curve"/>
      <point x="188" y="538"/>
      <point x="133" y="479"/>
      <point x="112" y="428" type="curve"/>
      <point x="129" y="407"/>
      <point x="108" y="425"/>
    </contour>
    <contour>
      <point x="131" y="-300" type="curve"/>
      <point x="131" y="-22"/>
      <point x="131" y="255"/>
      <point x="131" y="533" type="curve"/>
      <point x="106" y="533"/>
      <point x="131" y="533"/>
      <point x="106" y="533" type="curve"/>
      <point x="106" y="255"/>
      <point x="106" y="-22"/>
      <point x="106" y="-300" type="curve"/>
      <point x="131" y="-300"/>
      <point x="106" y="-300"/>
    </contour>
  </outline>
</glyph>
<glyph name="t" format="1">
  <advance width="314"/>
  <unicode hex="0074"/>
  <outline>
    <contour>
      <point x="205" y="-79" type="move" name="bottom"/>
    </contour>
    <contour>
      <point x="20" y="510" type="curve"/>
      <point x="294" y="510" type="line"/>
      <point x="294" y="533"/>
      <point x="294" y="510"/>
      <point x="294" y="533" type="curve"/>
      <point x="20" y="533" type="line"/>
      <point x="20" y="510"/>
      <point x="20" y="533"/>
    </contour>
    <contour>
      <point x="275" y="47" type="curve"/>
      <point x="254" y="31"/>
      <point x="236" y="20"/>
      <point x="209" y="20" type="curve"/>
      <point x="152" y="20"/>
      <point x="141" y="73"/>
      <point x="141" y="145" type="curve"/>
      <point x="141" y="681" type="line"/>
      <point x="139" y="680"/>
      <point x="117" y="657"/>
      <point x="115" y="656" type="curve"/>
      <point x="115" y="143" type="line"/>
      <point x="115" y="56"/>
      <point x="133" y="-5"/>
      <point x="207" y="-5" type="curve"/>
      <point x="239" y="-5"/>
      <point x="261" y="5"/>
      <point x="287" y="24" type="curve"/>
      <point x="275" y="47"/>
      <point x="287" y="24"/>
    </contour>
  </outline>
</glyph>
<glyph name="v" format="1">
  <advance width="505"/>
  <unicode hex="0076"/>
  <outline>
    <contour>
      <point x="113" y="533" type="curve"/>
      <point x="73" y="533"/>
      <point x="41" y="533"/>
      <point x="1" y="533" type="curve"/>
      <point x="1" y="510"/>
      <point x="1" y="533"/>
      <point x="1" y="510" type="curve"/>
      <point x="122" y="510"/>
      <point x="-8" y="510"/>
      <point x="113" y="510" type="curve"/>
      <point x="113" y="533"/>
      <point x="113" y="510"/>
    </contour>
    <contour>
      <point x="113" y="510" type="curve"/>
      <point x="205" y="510"/>
      <point x="105" y="510"/>
      <point x="197" y="510" type="curve"/>
      <point x="197" y="533"/>
      <point x="197" y="510"/>
      <point x="197" y="533" type="curve"/>
      <point x="166" y="533"/>
      <point x="143" y="533"/>
      <point x="113" y="533" type="curve"/>
      <point x="113" y="510"/>
      <point x="113" y="533"/>
    </contour>
    <contour>
      <point x="401" y="533" type="curve"/>
      <point x="367" y="533"/>
      <point x="341" y="533"/>
      <point x="308" y="533" type="curve"/>
      <point x="308" y="510"/>
      <point x="308" y="533"/>
      <point x="308" y="510" type="curve"/>
      <point x="409" y="510"/>
      <point x="299" y="510"/>
      <point x="401" y="510" type="curve"/>
      <point x="401" y="533"/>
      <point x="401" y="510"/>
    </contour>
    <contour>
      <point x="401" y="510" type="curve"/>
      <point x="511" y="510"/>
      <point x="393" y="510"/>
      <point x="503" y="510" type="curve"/>
      <point x="503" y="533"/>
      <point x="503" y="510"/>
      <point x="503" y="533" type="curve"/>
      <point x="466" y="533"/>
      <point x="438" y="533"/>
      <point x="401" y="533" type="curve"/>
      <point x="401" y="510"/>
      <point x="401" y="533"/>
    </contour>
    <contour>
      <point x="93" y="533" type="curve"/>
      <point x="142" y="355"/>
      <point x="191" y="178"/>
      <point x="239" y="0" type="curve"/>
      <point x="264" y="0"/>
      <point x="239" y="0"/>
      <point x="264" y="0" type="curve"/>
      <point x="216" y="178"/>
      <point x="168" y="355"/>
      <point x="121" y="533" type="curve"/>
      <point x="93" y="533"/>
      <point x="121" y="533"/>
    </contour>
    <contour>
      <point x="394" y="533" type="curve"/>
      <point x="242" y="0" type="line"/>
      <point x="268" y="0"/>
      <point x="242" y="0"/>
      <point x="268" y="0" type="curve"/>
      <point x="319" y="178"/>
      <point x="370" y="355"/>
      <point x="421" y="533" type="curve"/>
      <point x="394" y="533"/>
      <point x="421" y="533"/>
    </contour>
  </outline>
</glyph>
<glyph name="bar" format="1">
  <advance width="189"/>
  <unicode hex="007C"/>
  <outline>
    <contour>
      <point x="107" y="-300" type="curve"/>
      <point x="107" y="67"/>
      <point x="107" y="433"/>
      <point x="107" y="800" type="curve"/>
      <point x="82" y="800"/>
      <point x="107" y="800"/>
      <point x="82" y="800" type="curve"/>
      <point x="82" y="433"/>
      <point x="82" y="67"/>
      <point x="82" y="-300" type="curve"/>
      <point x="107" y="-300"/>
      <point x="82" y="-300"/>
    </contour>
  </outline>
</glyph>
<glyph name="sterling" format="1">
  <advance width="395"/>
  <unicode hex="00A3"/>
  <outline>
    <contour>
      <point x="328" y="23" type="curve"/>
      <point x="231" y="23"/>
      <point x="140" y="23"/>
      <point x="46" y="23" type="curve"/>
      <point x="46" y="0"/>
      <point x="46" y="23"/>
      <point x="46" y="0" type="curve"/>
      <point x="140" y="0"/>
      <point x="234" y="0"/>
      <point x="328" y="0" type="curve"/>
      <point x="328" y="23"/>
      <point x="328" y="0"/>
    </contour>
    <contour>
      <point x="295" y="388" type="curve"/>
      <point x="220" y="388"/>
      <point x="145" y="388"/>
      <point x="71" y="388" type="curve"/>
      <point x="71" y="366"/>
      <point x="71" y="388"/>
      <point x="71" y="366" type="curve"/>
      <point x="145" y="366"/>
      <point x="220" y="366"/>
      <point x="295" y="366" type="curve"/>
      <point x="295" y="388"/>
      <point x="295" y="366"/>
    </contour>
    <contour>
      <point x="338" y="677" type="curve"/>
      <point x="308" y="708"/>
      <point x="283" y="726"/>
      <point x="242" y="726" type="curve"/>
      <point x="96" y="726"/>
      <point x="106" y="561"/>
      <point x="133" y="375" type="curve"/>
      <point x="159" y="193"/>
      <point x="187" y="23"/>
      <point x="46" y="23" type="curve"/>
      <point x="46" y="0"/>
      <point x="46" y="23"/>
      <point x="46" y="0" type="curve"/>
      <point x="210" y="0"/>
      <point x="185" y="181"/>
      <point x="158" y="379" type="curve"/>
      <point x="135" y="547"/>
      <point x="120" y="702"/>
      <point x="240" y="702" type="curve"/>
      <point x="277" y="702"/>
      <point x="300" y="685"/>
      <point x="323" y="661" type="curve"/>
      <point x="338" y="677"/>
      <point x="323" y="661"/>
    </contour>
  </outline>
</glyph>
<glyph name="copyright" format="1">
  <advance width="579"/>
  <unicode hex="00A9"/>
  <outline>
    <contour>
      <point x="91" y="319" type="curve"/>
      <point x="91" y="483"/>
      <point x="147" y="624"/>
      <point x="292" y="624" type="curve"/>
      <point x="435" y="624"/>
      <point x="489" y="482"/>
      <point x="489" y="318" type="curve"/>
      <point x="489" y="158"/>
      <point x="437" y="18"/>
      <point x="296" y="18" type="curve"/>
      <point x="153" y="18"/>
      <point x="91" y="155"/>
      <point x="91" y="319" type="curve"/>
      <point x="65" y="319"/>
      <point x="91" y="319"/>
      <point x="65" y="319" type="curve"/>
      <point x="65" y="144"/>
      <point x="137" y="-5"/>
      <point x="295" y="-5" type="curve"/>
      <point x="451" y="-5"/>
      <point x="514" y="145"/>
      <point x="514" y="319" type="curve"/>
      <point x="514" y="495"/>
      <point x="449" y="646"/>
      <point x="292" y="646" type="curve"/>
      <point x="134" y="646"/>
      <point x="65" y="496"/>
      <point x="65" y="319" type="curve"/>
      <point x="91" y="319"/>
      <point x="65" y="319"/>
    </contour>
    <contour>
      <point x="356" y="452" type="curve"/>
      <point x="356" y="429"/>
      <point x="356" y="405"/>
      <point x="356" y="381" type="curve"/>
      <point x="379" y="381"/>
      <point x="356" y="381"/>
      <point x="379" y="381" type="curve"/>
      <point x="379" y="409"/>
      <point x="379" y="436"/>
      <point x="379" y="464" type="curve"/>
      <point x="356" y="452"/>
      <point x="379" y="464"/>
    </contour>
    <contour>
      <point x="379" y="464" type="curve"/>
      <point x="354" y="486"/>
      <point x="331" y="496"/>
      <point x="296" y="496" type="curve"/>
      <point x="209" y="496"/>
      <point x="177" y="417"/>
      <point x="177" y="319" type="curve"/>
      <point x="177" y="223"/>
      <point x="203" y="146"/>
      <point x="287" y="146" type="curve"/>
      <point x="330" y="146"/>
      <point x="359" y="160"/>
      <point x="387" y="193" type="curve"/>
      <point x="370" y="208"/>
      <point x="387" y="193"/>
      <point x="370" y="208" type="curve"/>
      <point x="348" y="183"/>
      <point x="324" y="169"/>
      <point x="288" y="169" type="curve"/>
      <point x="218" y="169"/>
      <point x="203" y="238"/>
      <point x="203" y="320" type="curve"/>
      <point x="203" y="404"/>
      <point x="222" y="474"/>
      <point x="295" y="474" type="curve"/>
      <point x="322" y="474"/>
      <point x="338" y="466"/>
      <point x="356" y="452" type="curve"/>
      <point x="379" y="464"/>
      <point x="356" y="452"/>
    </contour>
  </outline>
</glyph>
<glyph name="guillemotleft" format="1">
  <advance width="512"/>
  <unicode hex="00AB"/>
  <outline>
    <contour>
      <point x="257" y="401" type="curve"/>
      <point x="257" y="401"/>
      <point x="75" y="289"/>
      <point x="75" y="289" type="curve"/>
      <point x="75" y="264"/>
      <point x="75" y="289"/>
      <point x="75" y="264" type="curve"/>
      <point x="75" y="264"/>
      <point x="257" y="375"/>
      <point x="257" y="376" type="curve"/>
      <point x="257" y="401"/>
      <point x="257" y="376"/>
    </contour>
    <contour>
      <point x="258" y="176" type="curve"/>
      <point x="258" y="177"/>
      <point x="75" y="288"/>
      <point x="75" y="289" type="curve"/>
      <point x="75" y="264"/>
      <point x="75" y="289"/>
      <point x="75" y="264" type="curve"/>
      <point x="75" y="263"/>
      <point x="258" y="153"/>
      <point x="258" y="152" type="curve"/>
      <point x="258" y="176"/>
      <point x="258" y="152"/>
    </contour>
    <contour>
      <point x="417" y="401" type="curve"/>
      <point x="416" y="401"/>
      <point x="234" y="289"/>
      <point x="234" y="289" type="curve"/>
      <point x="234" y="264"/>
      <point x="234" y="289"/>
      <point x="234" y="264" type="curve"/>
      <point x="234" y="264"/>
      <point x="416" y="375"/>
      <point x="417" y="376" type="curve"/>
      <point x="417" y="401"/>
      <point x="417" y="376"/>
    </contour>
    <contour>
      <point x="418" y="176" type="curve"/>
      <point x="417" y="177"/>
      <point x="234" y="288"/>
      <point x="234" y="289" type="curve"/>
      <point x="234" y="264"/>
      <point x="234" y="289"/>
      <point x="234" y="264" type="curve"/>
      <point x="234" y="263"/>
      <point x="417" y="153"/>
      <point x="418" y="152" type="curve"/>
      <point x="418" y="176"/>
      <point x="418" y="152"/>
    </contour>
  </outline>
</glyph>
<glyph name="macron" format="1">
  <advance width="286"/>
  <unicode hex="00AF"/>
  <outline>
    <contour>
      <point x="102" y="658" type="move" name="_top"/>
    </contour>
    <contour>
      <point x="179" y="680" type="curve"/>
      <point x="127" y="680"/>
      <point x="74" y="680"/>
      <point x="22" y="680" type="curve"/>
      <point x="22" y="658"/>
      <point x="22" y="680"/>
      <point x="22" y="658" type="curve"/>
      <point x="74" y="658"/>
      <point x="127" y="658"/>
      <point x="179" y="658" type="curve"/>
      <point x="179" y="680"/>
      <point x="179" y="658"/>
    </contour>
  </outline>
</glyph>
<glyph name="twosuperior" format="1">
  <advance width="394"/>
  <unicode hex="00B2"/>
  <outline>
    <contour>
      <point x="212" y="695" type="move" name="_top"/>
    </contour>
    <contour>
      <point x="185" y="279" type="move" name="_bottom"/>
    </contour>
    <contour>
      <point x="307" y="280" type="curve"/>
      <point x="307" y="317"/>
      <point x="307" y="324"/>
      <point x="307" y="362" type="curve"/>
      <point x="284" y="362"/>
      <point x="307" y="362"/>
      <point x="284" y="362" type="curve"/>
      <point x="284" y="332"/>
      <point x="284" y="333"/>
      <point x="284" y="303" type="curve"/>
      <point x="307" y="280"/>
      <point x="284" y="303"/>
    </contour>
    <contour>
      <point x="80" y="280" type="curve"/>
      <point x="156" y="280"/>
      <point x="231" y="280"/>
      <point x="307" y="280" type="curve"/>
      <point x="284" y="303"/>
      <point x="307" y="280"/>
      <point x="284" y="303" type="curve"/>
      <point x="216" y="303"/>
      <point x="148" y="303"/>
      <point x="80" y="303" type="curve"/>
      <point x="80" y="280"/>
      <point x="80" y="303"/>
    </contour>
    <contour>
      <point x="122" y="598" type="curve"/>
      <point x="138" y="639"/>
      <point x="155" y="673"/>
      <point x="199" y="673" type="curve"/>
      <point x="249" y="673"/>
      <point x="270" y="630"/>
      <point x="270" y="575" type="curve"/>
      <point x="270" y="525"/>
      <point x="247" y="494"/>
      <point x="216" y="456" type="curve"/>
      <point x="171" y="405"/>
      <point x="125" y="354"/>
      <point x="80" y="303" type="curve"/>
      <point x="91" y="280"/>
      <point x="80" y="303"/>
      <point x="91" y="280" type="curve"/>
      <point x="138" y="333"/>
      <point x="185" y="385"/>
      <point x="232" y="438" type="curve"/>
      <point x="267" y="483"/>
      <point x="294" y="518"/>
      <point x="294" y="576" type="curve"/>
      <point x="294" y="644"/>
      <point x="262" y="695"/>
      <point x="200" y="695" type="curve"/>
      <point x="148" y="695"/>
      <point x="120" y="661"/>
      <point x="102" y="607" type="curve"/>
      <point x="122" y="598"/>
      <point x="102" y="607"/>
    </contour>
  </outline>
</glyph>
<glyph name="acute" format="1">
  <advance width="170"/>
  <unicode hex="00B4"/>
  <outline>
    <contour>
      <point x="19" y="590" type="move" name="_top"/>
    </contour>
    <contour>
      <point x="31" y="590" type="line"/>
      <point x="104" y="756" type="line"/>
      <point x="72" y="756" type="line"/>
      <point x="5" y="590" type="line"/>
    </contour>
  </outline>
</glyph>
<glyph name="paragraph" format="1">
  <advance width="535"/>
  <unicode hex="00B6"/>
  <outline>
    <contour>
      <point x="312" y="699" type="curve"/>
      <point x="444" y="699"/>
      <point x="312" y="699"/>
      <point x="444" y="699" type="curve"/>
      <point x="444" y="722"/>
      <point x="444" y="699"/>
      <point x="444" y="722" type="curve"/>
      <point x="400" y="722"/>
      <point x="356" y="722"/>
      <point x="312" y="722" type="curve"/>
      <point x="312" y="699"/>
      <point x="312" y="722"/>
    </contour>
    <contour>
      <point x="312" y="0" type="curve"/>
      <point x="356" y="0"/>
      <point x="400" y="0"/>
      <point x="444" y="0" type="curve"/>
      <point x="444" y="23"/>
      <point x="444" y="0"/>
      <point x="444" y="23" type="curve"/>
      <point x="312" y="23"/>
      <point x="444" y="23"/>
      <point x="312" y="23" type="curve"/>
      <point x="312" y="0"/>
      <point x="312" y="23"/>
    </contour>
    <contour>
      <point x="312" y="23" type="curve"/>
      <point x="209" y="23"/>
      <point x="312" y="23"/>
      <point x="209" y="23" type="curve"/>
      <point x="209" y="0"/>
      <point x="209" y="23"/>
      <point x="209" y="0" type="curve"/>
      <point x="312" y="0"/>
      <point x="278" y="0"/>
      <point x="312" y="0" type="curve"/>
      <point x="312" y="23"/>
      <point x="312" y="0"/>
    </contour>
    <contour>
      <point x="306" y="346" type="curve"/>
      <point x="272" y="320"/>
      <point x="245" y="304"/>
      <point x="203" y="304" type="curve"/>
      <point x="110" y="304"/>
      <point x="71" y="388"/>
      <point x="71" y="493" type="curve"/>
      <point x="71" y="607"/>
      <point x="118" y="699"/>
      <point x="223" y="699" type="curve"/>
      <point x="252" y="699"/>
      <point x="281" y="699"/>
      <point x="310" y="699" type="curve"/>
      <point x="310" y="722"/>
      <point x="310" y="699"/>
      <point x="310" y="722" type="curve"/>
      <point x="280" y="722"/>
      <point x="250" y="722"/>
      <point x="220" y="722" type="curve"/>
      <point x="102" y="722"/>
      <point x="46" y="621"/>
      <point x="46" y="494" type="curve"/>
      <point x="46" y="369"/>
      <point x="95" y="282"/>
      <point x="204" y="280" type="curve"/>
      <point x="247" y="280"/>
      <point x="283" y="300"/>
      <point x="315" y="325" type="curve"/>
      <point x="306" y="345"/>
      <point x="315" y="326"/>
    </contour>
    <contour>
      <point x="325" y="0" type="curve"/>
      <point x="325" y="241"/>
      <point x="325" y="481"/>
      <point x="325" y="722" type="curve"/>
      <point x="300" y="722"/>
      <point x="325" y="722"/>
      <point x="300" y="722" type="curve"/>
      <point x="300" y="481"/>
      <point x="300" y="241"/>
      <point x="300" y="0" type="curve"/>
      <point x="325" y="0"/>
      <point x="300" y="0"/>
    </contour>
    <contour>
      <point x="452" y="0" type="curve"/>
      <point x="452" y="241"/>
      <point x="452" y="481"/>
      <point x="452" y="722" type="curve"/>
      <point x="427" y="722"/>
      <point x="452" y="722"/>
      <point x="427" y="722" type="curve"/>
      <point x="427" y="481"/>
      <point x="427" y="241"/>
      <point x="427" y="0" type="curve"/>
      <point x="452" y="0"/>
      <point x="427" y="0"/>
    </contour>
  </outline>
</glyph>
<glyph name="ordmasculine" format="1">
  <advance width="357"/>
  <unicode hex="00BA"/>
  <outline>
    <contour>
      <point x="102" y="606" type="curve"/>
      <point x="102" y="683"/>
      <point x="117" y="744"/>
      <point x="181" y="744" type="curve"/>
      <point x="242" y="744"/>
      <point x="255" y="681"/>
      <point x="255" y="604" type="curve"/>
      <point x="255" y="518"/>
      <point x="242" y="447"/>
      <point x="184" y="447" type="curve"/>
      <point x="114" y="447"/>
      <point x="102" y="520"/>
      <point x="102" y="606" type="curve"/>
      <point x="78" y="606"/>
      <point x="101" y="606"/>
      <point x="78" y="606" type="curve"/>
      <point x="78" y="506"/>
      <point x="98" y="425"/>
      <point x="183" y="425" type="curve"/>
      <point x="260" y="425"/>
      <point x="280" y="505"/>
      <point x="280" y="604" type="curve"/>
      <point x="280" y="694"/>
      <point x="260" y="765"/>
      <point x="182" y="765" type="curve"/>
      <point x="99" y="765"/>
      <point x="78" y="694"/>
      <point x="78" y="606" type="curve"/>
      <point x="101" y="606"/>
      <point x="78" y="606"/>
    </contour>
  </outline>
</glyph>
<glyph name="threequarters" format="1">
  <advance width="684"/>
  <unicode hex="00BE"/>
  <outline>
    <contour>
      <point x="218" y="-92" type="line"/>
      <point x="517" y="757" type="line"/>
      <point x="488" y="757" type="line"/>
      <point x="190" y="-92" type="line"/>
    </contour>
    <contour>
      <point x="70" y="694" type="curve"/>
      <point x="85" y="716"/>
      <point x="105" y="738"/>
      <point x="134" y="738" type="curve"/>
      <point x="182" y="738"/>
      <point x="207" y="703"/>
      <point x="207" y="652" type="curve"/>
      <point x="207" y="600"/>
      <point x="161" y="569"/>
      <point x="104" y="564" type="curve"/>
      <point x="104" y="544"/>
      <point x="104" y="564"/>
      <point x="104" y="544" type="curve"/>
      <point x="177" y="547"/>
      <point x="232" y="585"/>
      <point x="232" y="654" type="curve"/>
      <point x="232" y="717"/>
      <point x="198" y="759"/>
      <point x="137" y="759" type="curve"/>
      <point x="101" y="759"/>
      <point x="71" y="735"/>
      <point x="53" y="706" type="curve"/>
      <point x="70" y="694"/>
      <point x="53" y="706"/>
    </contour>
    <contour>
      <point x="49" y="373" type="curve"/>
      <point x="72" y="352"/>
      <point x="98" y="340"/>
      <point x="129" y="340" type="curve"/>
      <point x="199" y="336"/>
      <point x="244" y="381"/>
      <point x="243" y="453" type="curve"/>
      <point x="243" y="524"/>
      <point x="181" y="554"/>
      <point x="104" y="557" type="curve"/>
      <point x="104" y="540"/>
      <point x="104" y="557"/>
      <point x="104" y="540" type="curve"/>
      <point x="170" y="535"/>
      <point x="218" y="505"/>
      <point x="218" y="451" type="curve"/>
      <point x="217" y="397"/>
      <point x="186" y="360"/>
      <point x="132" y="362" type="curve"/>
      <point x="105" y="362"/>
      <point x="82" y="373"/>
      <point x="61" y="390" type="curve"/>
      <point x="49" y="373"/>
      <point x="61" y="390"/>
    </contour>
    <contour>
      <point x="661" y="46" type="line"/>
      <point x="381" y="46" type="line"/>
      <point x="381" y="26" type="line"/>
      <point x="661" y="26" type="line"/>
    </contour>
    <contour>
      <point x="395" y="26" type="line"/>
      <point x="573" y="332" type="line"/>
      <point x="550" y="341" type="line"/>
      <point x="381" y="46" type="line"/>
    </contour>
    <contour>
      <point x="573" y="-91" type="line"/>
      <point x="573" y="341" type="line"/>
      <point x="550" y="341" type="line"/>
      <point x="550" y="-91" type="line"/>
    </contour>
    <contour>
      <point x="561" y="-71" type="line"/>
      <point x="485" y="-71" type="line"/>
      <point x="485" y="-92" type="line"/>
      <point x="561" y="-92" type="line"/>
    </contour>
    <contour>
      <point x="561" y="-92" type="line"/>
      <point x="640" y="-92" type="line"/>
      <point x="640" y="-71" type="line"/>
      <point x="561" y="-71" type="line"/>
    </contour>
  </outline>
</glyph>
<glyph name="Adieresis" format="1">
  <advance width="599"/>
  <unicode hex="00C4"/>
  <outline>
    <contour>
      <point x="89" y="23" type="curve"/>
      <point x="-43" y="23"/>
      <point x="109" y="23"/>
      <point x="-23" y="23" type="curve"/>
      <point x="-23" y="0"/>
      <point x="-23" y="23"/>
      <point x="-23" y="0" type="curve"/>
      <point x="21" y="0"/>
      <point x="45" y="0"/>
      <point x="89" y="0" type="curve"/>
      <point x="89" y="23"/>
      <point x="89" y="0"/>
    </contour>
    <contour>
      <point x="89" y="0" type="curve"/>
      <point x="135" y="0"/>
      <point x="70" y="0"/>
      <point x="207" y="0" type="curve"/>
      <point x="207" y="23"/>
      <point x="207" y="0"/>
      <point x="207" y="23" type="curve"/>
      <point x="70" y="23"/>
      <point x="227" y="23"/>
      <point x="89" y="23" type="curve"/>
      <point x="89" y="0"/>
      <point x="89" y="23"/>
    </contour>
    <contour>
      <point x="473" y="0" type="curve"/>
      <point x="517" y="0"/>
      <point x="541" y="0"/>
      <point x="585" y="0" type="curve"/>
      <point x="585" y="23"/>
      <point x="585" y="0"/>
      <point x="585" y="23" type="curve"/>
      <point x="453" y="23"/>
      <point x="605" y="23"/>
      <point x="473" y="23" type="curve"/>
      <point x="473" y="0"/>
      <point x="473" y="23"/>
    </contour>
    <contour>
      <point x="473" y="23" type="curve"/>
      <point x="334" y="23"/>
      <point x="492" y="23"/>
      <point x="354" y="23" type="curve"/>
      <point x="354" y="0"/>
      <point x="354" y="23"/>
      <point x="354" y="0" type="curve"/>
      <point x="400" y="0"/>
      <point x="427" y="0"/>
      <point x="473" y="0" type="curve"/>
      <point x="473" y="23"/>
      <point x="473" y="0"/>
    </contour>
    <contour>
      <point x="407" y="277" type="curve"/>
      <point x="326" y="277"/>
      <point x="247" y="277"/>
      <point x="166" y="277" type="curve"/>
      <point x="155" y="253"/>
      <point x="166" y="277"/>
      <point x="155" y="253" type="curve"/>
      <point x="242" y="253"/>
      <point x="329" y="253"/>
      <point x="416" y="253" type="curve"/>
      <point x="407" y="277"/>
      <point x="416" y="253"/>
    </contour>
    <contour>
      <point x="493" y="0" type="curve"/>
      <point x="430" y="241"/>
      <point x="367" y="481"/>
      <point x="304" y="722" type="curve"/>
      <point x="281" y="722"/>
      <point x="304" y="722"/>
      <point x="281" y="722" type="curve"/>
      <point x="343" y="481"/>
      <point x="405" y="241"/>
      <point x="467" y="0" type="curve"/>
      <point x="493" y="0"/>
      <point x="467" y="0"/>
    </contour>
    <contour>
      <point x="95" y="0" type="curve"/>
      <point x="164" y="241"/>
      <point x="233" y="481"/>
      <point x="302" y="722" type="curve"/>
      <point x="279" y="722"/>
      <point x="302" y="722"/>
      <point x="279" y="722" type="curve"/>
      <point x="209" y="481"/>
      <point x="138" y="241"/>
      <point x="67" y="0" type="curve"/>
      <point x="95" y="0"/>
      <point x="67" y="0"/>
    </contour>
    <contour>
      <point x="266" y="839" type="curve"/>
      <point x="266" y="850"/>
      <point x="259" y="857"/>
      <point x="248" y="857" type="curve"/>
      <point x="237" y="857"/>
      <point x="230" y="849"/>
      <point x="230" y="839" type="curve"/>
      <point x="266" y="839"/>
      <point x="230" y="839"/>
      <point x="266" y="839" type="curve"/>
      <point x="266" y="828"/>
      <point x="259" y="822"/>
      <point x="248" y="822" type="curve"/>
      <point x="237" y="822"/>
      <point x="230" y="828"/>
      <point x="230" y="839" type="curve"/>
      <point x="266" y="839"/>
      <point x="230" y="839"/>
    </contour>
    <contour>
      <point x="352" y="839" type="curve"/>
      <point x="352" y="850"/>
      <point x="344" y="857"/>
      <point x="333" y="857" type="curve"/>
      <point x="322" y="857"/>
      <point x="316" y="849"/>
      <point x="316" y="839" type="curve"/>
      <point x="352" y="839"/>
      <point x="316" y="839"/>
      <point x="352" y="839" type="curve"/>
      <point x="352" y="828"/>
      <point x="344" y="822"/>
      <point x="333" y="822" type="curve"/>
      <point x="322" y="822"/>
      <point x="316" y="828"/>
      <point x="316" y="839" type="curve"/>
      <point x="352" y="839"/>
      <point x="316" y="839"/>
    </contour>
  </outline>
</glyph>
<glyph name="Aring" format="1">
  <advance width="599"/>
  <unicode hex="00C5"/>
  <outline>
    <contour>
      <point x="89" y="23" type="curve"/>
      <point x="-43" y="23"/>
      <point x="109" y="23"/>
      <point x="-23" y="23" type="curve"/>
      <point x="-23" y="0"/>
      <point x="-23" y="23"/>
      <point x="-23" y="0" type="curve"/>
      <point x="21" y="0"/>
      <point x="45" y="0"/>
      <point x="89" y="0" type="curve"/>
      <point x="89" y="23"/>
      <point x="89" y="0"/>
    </contour>
    <contour>
      <point x="89" y="0" type="curve"/>
      <point x="135" y="0"/>
      <point x="70" y="0"/>
      <point x="207" y="0" type="curve"/>
      <point x="207" y="23"/>
      <point x="207" y="0"/>
      <point x="207" y="23" type="curve"/>
      <point x="70" y="23"/>
      <point x="227" y="23"/>
      <point x="89" y="23" type="curve"/>
      <point x="89" y="0"/>
      <point x="89" y="23"/>
    </contour>
    <contour>
      <point x="473" y="0" type="curve"/>
      <point x="517" y="0"/>
      <point x="541" y="0"/>
      <point x="585" y="0" type="curve"/>
      <point x="585" y="23"/>
      <point x="585" y="0"/>
      <point x="585" y="23" type="curve"/>
      <point x="453" y="23"/>
      <point x="605" y="23"/>
      <point x="473" y="23" type="curve"/>
      <point x="473" y="0"/>
      <point x="473" y="23"/>
    </contour>
    <contour>
      <point x="473" y="23" type="curve"/>
      <point x="334" y="23"/>
      <point x="492" y="23"/>
      <point x="354" y="23" type="curve"/>
      <point x="354" y="0"/>
      <point x="354" y="23"/>
      <point x="354" y="0" type="curve"/>
      <point x="400" y="0"/>
      <point x="427" y="0"/>
      <point x="473" y="0" type="curve"/>
      <point x="473" y="23"/>
      <point x="473" y="0"/>
    </contour>
    <contour>
      <point x="407" y="277" type="curve"/>
      <point x="326" y="277"/>
      <point x="247" y="277"/>
      <point x="166" y="277" type="curve"/>
      <point x="155" y="253"/>
      <point x="166" y="277"/>
      <point x="155" y="253" type="curve"/>
      <point x="242" y="253"/>
      <point x="329" y="253"/>
      <point x="416" y="253" type="curve"/>
      <point x="407" y="277"/>
      <point x="416" y="253"/>
    </contour>
    <contour>
      <point x="493" y="0" type="curve"/>
      <point x="430" y="241"/>
      <point x="367" y="481"/>
      <point x="304" y="722" type="curve"/>
      <point x="281" y="722"/>
      <point x="304" y="722"/>
      <point x="281" y="722" type="curve"/>
      <point x="343" y="481"/>
      <point x="405" y="241"/>
      <point x="467" y="0" type="curve"/>
      <point x="493" y="0"/>
      <point x="467" y="0"/>
    </contour>
    <contour>
      <point x="95" y="0" type="curve"/>
      <point x="164" y="241"/>
      <point x="233" y="481"/>
      <point x="302" y="722" type="curve"/>
      <point x="279" y="722"/>
      <point x="302" y="722"/>
      <point x="279" y="722" type="curve"/>
      <point x="209" y="481"/>
      <point x="138" y="241"/>
      <point x="67" y="0" type="curve"/>
      <point x="95" y="0"/>
      <point x="67" y="0"/>
    </contour>
    <contour>
      <point x="208" y="940" type="curve"/>
      <point x="208" y="875"/>
      <point x="232" y="824"/>
      <point x="291" y="824" type="curve"/>
      <point x="352" y="824"/>
      <point x="377" y="874"/>
      <point x="377" y="940" type="curve"/>
      <point x="377" y="1006"/>
      <point x="351" y="1057"/>
      <point x="289" y="1057" type="curve"/>
      <point x="231" y="1057"/>
      <point x="208" y="1006"/>
      <point x="208" y="940" type="curve"/>
      <point x="232" y="940"/>
      <point x="208" y="940"/>
      <point x="232" y="940" type="curve"/>
      <point x="232" y="992"/>
      <point x="245" y="1034"/>
      <point x="289" y="1034" type="curve"/>
      <point x="336" y="1034"/>
      <point x="352" y="993"/>
      <point x="352" y="940" type="curve"/>
      <point x="352" y="888"/>
      <point x="337" y="845"/>
      <point x="291" y="845" type="curve"/>
      <point x="246" y="845"/>
      <point x="232" y="888"/>
      <point x="232" y="940" type="curve"/>
      <point x="208" y="940"/>
      <point x="232" y="940"/>
    </contour>
  </outline>
</glyph>
<glyph name="Icircumflex" format="1">
  <advance width="300"/>
  <unicode hex="00CE"/>
  <outline>
    <contour>
      <point x="151" y="722" type="curve"/>
      <point x="107" y="722"/>
      <point x="83" y="722"/>
      <point x="39" y="722" type="curve"/>
      <point x="39" y="699"/>
      <point x="39" y="722"/>
      <point x="39" y="699" type="curve"/>
      <point x="171" y="699"/>
      <point x="19" y="699"/>
      <point x="151" y="699" type="curve"/>
      <point x="151" y="722"/>
      <point x="151" y="699"/>
    </contour>
    <contour>
      <point x="151" y="699" type="curve"/>
      <point x="284" y="699"/>
      <point x="131" y="699"/>
      <point x="264" y="699" type="curve"/>
      <point x="264" y="722"/>
      <point x="264" y="699"/>
      <point x="264" y="722" type="curve"/>
      <point x="219" y="722"/>
      <point x="195" y="722"/>
      <point x="151" y="722" type="curve"/>
      <point x="151" y="699"/>
      <point x="151" y="722"/>
    </contour>
    <contour>
      <point x="151" y="0" type="curve"/>
      <point x="195" y="0"/>
      <point x="219" y="0"/>
      <point x="264" y="0" type="curve"/>
      <point x="264" y="23"/>
      <point x="264" y="0"/>
      <point x="264" y="23" type="curve"/>
      <point x="131" y="23"/>
      <point x="284" y="23"/>
      <point x="151" y="23" type="curve"/>
      <point x="151" y="0"/>
      <point x="151" y="23"/>
    </contour>
    <contour>
      <point x="151" y="23" type="curve"/>
      <point x="19" y="23"/>
      <point x="171" y="23"/>
      <point x="39" y="23" type="curve"/>
      <point x="39" y="0"/>
      <point x="39" y="23"/>
      <point x="39" y="0" type="curve"/>
      <point x="83" y="0"/>
      <point x="107" y="0"/>
      <point x="151" y="0" type="curve"/>
      <point x="151" y="23"/>
      <point x="151" y="0"/>
    </contour>
    <contour>
      <point x="164" y="0" type="curve"/>
      <point x="164" y="241"/>
      <point x="164" y="481"/>
      <point x="164" y="722" type="curve"/>
      <point x="139" y="722"/>
      <point x="164" y="722"/>
      <point x="139" y="722" type="curve"/>
      <point x="139" y="481"/>
      <point x="139" y="241"/>
      <point x="139" y="0" type="curve"/>
      <point x="164" y="0"/>
      <point x="139" y="0"/>
    </contour>
    <contour>
      <point x="89" y="825" type="line"/>
      <point x="163" y="991" type="line"/>
      <point x="130" y="991" type="line"/>
      <point x="64" y="825" type="line"/>
    </contour>
    <contour>
      <point x="239" y="825" type="line"/>
      <point x="173" y="991" type="line"/>
      <point x="141" y="991" type="line"/>
      <point x="214" y="825" type="line"/>
    </contour>
  </outline>
</glyph>
<glyph name="Ograve" format="1">
  <advance width="564"/>
  <unicode hex="00D2"/>
  <outline>
    <contour>
      <point x="93" y="360" type="curve"/>
      <point x="93" y="543"/>
      <point x="123" y="703"/>
      <point x="281" y="703" type="curve"/>
      <point x="438" y="703"/>
      <point x="472" y="545"/>
      <point x="472" y="363" type="curve"/>
      <point x="472" y="183"/>
      <point x="441" y="19"/>
      <point x="284" y="19" type="curve"/>
      <point x="125" y="19"/>
      <point x="93" y="177"/>
      <point x="93" y="360" type="curve"/>
      <point x="67" y="360"/>
      <point x="93" y="360"/>
      <point x="67" y="360" type="curve"/>
      <point x="67" y="162"/>
      <point x="110" y="-5"/>
      <point x="283" y="-5" type="curve"/>
      <point x="455" y="-5"/>
      <point x="497" y="164"/>
      <point x="497" y="363" type="curve"/>
      <point x="497" y="560"/>
      <point x="455" y="727"/>
      <point x="283" y="727" type="curve"/>
      <point x="109" y="727"/>
      <point x="67" y="558"/>
      <point x="67" y="360" type="curve"/>
      <point x="93" y="360"/>
      <point x="67" y="360"/>
    </contour>
    <contour>
      <point x="296" y="825" type="line"/>
      <point x="230" y="991" type="line"/>
      <point x="197" y="991" type="line"/>
      <point x="271" y="825" type="line"/>
    </contour>
  </outline>
</glyph>
<glyph name="Otilde" format="1">
  <advance width="564"/>
  <unicode hex="00D5"/>
  <outline>
    <contour>
      <point x="93" y="360" type="curve"/>
      <point x="93" y="543"/>
      <point x="123" y="703"/>
      <point x="281" y="703" type="curve"/>
      <point x="438" y="703"/>
      <point x="472" y="545"/>
      <point x="472" y="363" type="curve"/>
      <point x="472" y="183"/>
      <point x="441" y="19"/>
      <point x="284" y="19" type="curve"/>
      <point x="125" y="19"/>
      <point x="93" y="177"/>
      <point x="93" y="360" type="curve"/>
      <point x="67" y="360"/>
      <point x="93" y="360"/>
      <point x="67" y="360" type="curve"/>
      <point x="67" y="162"/>
      <point x="110" y="-5"/>
      <point x="283" y="-5" type="curve"/>
      <point x="455" y="-5"/>
      <point x="497" y="164"/>
      <point x="497" y="363" type="curve"/>
      <point x="497" y="560"/>
      <point x="455" y="727"/>
      <point x="283" y="727" type="curve"/>
      <point x="109" y="727"/>
      <point x="67" y="558"/>
      <point x="67" y="360" type="curve"/>
      <point x="93" y="360"/>
      <point x="67" y="360"/>
    </contour>
    <contour>
      <point x="397" y="949" type="curve"/>
      <point x="388" y="899"/>
      <point x="383" y="847"/>
      <point x="349" y="847" type="curve"/>
      <point x="319" y="847"/>
      <point x="306" y="869"/>
      <point x="290" y="896" type="curve"/>
      <point x="271" y="925"/>
      <point x="256" y="950"/>
      <point x="221" y="950" type="curve"/>
      <point x="164" y="950"/>
      <point x="156" y="894"/>
      <point x="147" y="831" type="curve"/>
      <point x="168" y="825"/>
      <point x="147" y="831"/>
      <point x="168" y="825" type="curve"/>
      <point x="176" y="877"/>
      <point x="180" y="927"/>
      <point x="222" y="927" type="curve"/>
      <point x="250" y="927"/>
      <point x="259" y="904"/>
      <point x="273" y="880" type="curve"/>
      <point x="293" y="848"/>
      <point x="311" y="825"/>
      <point x="348" y="825" type="curve"/>
      <point x="405" y="825"/>
      <point x="408" y="884"/>
      <point x="419" y="945" type="curve"/>
      <point x="397" y="949"/>
      <point x="419" y="945"/>
    </contour>
  </outline>
</glyph>
<glyph name="Oslash" format="1">
  <advance width="564"/>
  <unicode hex="00D8"/>
  <outline>
    <contour>
      <point x="146" y="-68" type="line"/>
      <point x="443" y="773" type="line"/>
      <point x="419" y="781" type="line"/>
      <point x="122" y="-59" type="line"/>
    </contour>
    <contour>
      <point x="93" y="360" type="curve"/>
      <point x="93" y="543"/>
      <point x="123" y="703"/>
      <point x="281" y="703" type="curve"/>
      <point x="438" y="703"/>
      <point x="472" y="545"/>
      <point x="472" y="363" type="curve"/>
      <point x="472" y="183"/>
      <point x="441" y="19"/>
      <point x="284" y="19" type="curve"/>
      <point x="125" y="19"/>
      <point x="93" y="177"/>
      <point x="93" y="360" type="curve"/>
      <point x="67" y="360"/>
      <point x="93" y="360"/>
      <point x="67" y="360" type="curve"/>
      <point x="67" y="162"/>
      <point x="110" y="-5"/>
      <point x="283" y="-5" type="curve"/>
      <point x="455" y="-5"/>
      <point x="497" y="164"/>
      <point x="497" y="363" type="curve"/>
      <point x="497" y="560"/>
      <point x="455" y="727"/>
      <point x="283" y="727" type="curve"/>
      <point x="109" y="727"/>
      <point x="67" y="558"/>
      <point x="67" y="360" type="curve"/>
      <point x="93" y="360"/>
      <point x="67" y="360"/>
    </contour>
  </outline>
</glyph>
<glyph name="Udieresis" format="1">
  <advance width="626"/>
  <unicode hex="00DC"/>
  <outline>
    <contour>
      <point x="489" y="699" type="curve"/>
      <point x="610" y="699"/>
      <point x="480" y="699"/>
      <point x="601" y="699" type="curve"/>
      <point x="601" y="722"/>
      <point x="601" y="699"/>
      <point x="601" y="722" type="curve"/>
      <point x="561" y="722"/>
      <point x="529" y="722"/>
      <point x="489" y="722" type="curve"/>
      <point x="489" y="699"/>
      <point x="489" y="722"/>
    </contour>
    <contour>
      <point x="489" y="722" type="curve"/>
      <point x="449" y="722"/>
      <point x="416" y="722"/>
      <point x="376" y="722" type="curve"/>
      <point x="376" y="699"/>
      <point x="376" y="722"/>
      <point x="376" y="699" type="curve"/>
      <point x="498" y="699"/>
      <point x="367" y="699"/>
      <point x="489" y="699" type="curve"/>
      <point x="489" y="722"/>
      <point x="489" y="699"/>
    </contour>
    <contour>
      <point x="138" y="722" type="curve"/>
      <point x="98" y="722"/>
      <point x="66" y="722"/>
      <point x="26" y="722" type="curve"/>
      <point x="26" y="699"/>
      <point x="26" y="722"/>
      <point x="26" y="699" type="curve"/>
      <point x="147" y="699"/>
      <point x="17" y="699"/>
      <point x="138" y="699" type="curve"/>
      <point x="138" y="722"/>
      <point x="138" y="699"/>
    </contour>
    <contour>
      <point x="138" y="699" type="curve"/>
      <point x="260" y="699"/>
      <point x="129" y="699"/>
      <point x="251" y="699" type="curve"/>
      <point x="251" y="722"/>
      <point x="251" y="699"/>
      <point x="251" y="722" type="curve"/>
      <point x="211" y="722"/>
      <point x="178" y="722"/>
      <point x="138" y="722" type="curve"/>
      <point x="138" y="699"/>
      <point x="138" y="722"/>
    </contour>
    <contour>
      <point x="124" y="721" type="curve"/>
      <point x="124" y="571"/>
      <point x="124" y="421"/>
      <point x="124" y="271" type="curve"/>
      <point x="124" y="106"/>
      <point x="165" y="-5"/>
      <point x="313" y="-5" type="curve"/>
      <point x="458" y="-5"/>
      <point x="501" y="103"/>
      <point x="501" y="263" type="curve"/>
      <point x="501" y="416"/>
      <point x="501" y="569"/>
      <point x="501" y="721" type="curve"/>
      <point x="478" y="721"/>
      <point x="500" y="721"/>
      <point x="477" y="721" type="curve"/>
      <point x="477" y="567"/>
      <point x="477" y="413"/>
      <point x="477" y="259" type="curve"/>
      <point x="477" y="118"/>
      <point x="438" y="20"/>
      <point x="316" y="20" type="curve"/>
      <point x="182" y="20"/>
      <point x="148" y="125"/>
      <point x="148" y="275" type="curve"/>
      <point x="148" y="424"/>
      <point x="148" y="573"/>
      <point x="148" y="721" type="curve"/>
      <point x="125" y="721"/>
      <point x="147" y="721"/>
    </contour>
    <contour>
      <point x="291" y="839" type="curve"/>
      <point x="291" y="850"/>
      <point x="283" y="857"/>
      <point x="272" y="857" type="curve"/>
      <point x="261" y="857"/>
      <point x="254" y="849"/>
      <point x="254" y="839" type="curve"/>
      <point x="291" y="839"/>
      <point x="254" y="839"/>
      <point x="291" y="839" type="curve"/>
      <point x="291" y="828"/>
      <point x="283" y="822"/>
      <point x="272" y="822" type="curve"/>
      <point x="261" y="822"/>
      <point x="254" y="828"/>
      <point x="254" y="839" type="curve"/>
      <point x="291" y="839"/>
      <point x="254" y="839"/>
    </contour>
    <contour>
      <point x="376" y="839" type="curve"/>
      <point x="376" y="850"/>
      <point x="368" y="857"/>
      <point x="357" y="857" type="curve"/>
      <point x="346" y="857"/>
      <point x="340" y="849"/>
      <point x="340" y="839" type="curve"/>
      <point x="376" y="839"/>
      <point x="340" y="839"/>
      <point x="376" y="839" type="curve"/>
      <point x="376" y="828"/>
      <point x="368" y="822"/>
      <point x="357" y="822" type="curve"/>
      <point x="346" y="822"/>
      <point x="340" y="828"/>
      <point x="340" y="839" type="curve"/>
      <point x="376" y="839"/>
      <point x="340" y="839"/>
    </contour>
  </outline>
</glyph>
<glyph name="Thorn" format="1">
  <advance width="463"/>
  <unicode hex="00DE"/>
  <outline>
    <contour>
      <point x="144" y="722" type="curve"/>
      <point x="109" y="722"/>
      <point x="75" y="722"/>
      <point x="41" y="722" type="curve"/>
      <point x="41" y="699"/>
      <point x="41" y="722"/>
      <point x="41" y="699" type="curve"/>
      <point x="144" y="699"/>
      <point x="41" y="699"/>
      <point x="144" y="699" type="curve"/>
      <point x="144" y="722"/>
      <point x="144" y="699"/>
    </contour>
    <contour>
      <point x="144" y="23" type="curve"/>
      <point x="41" y="23"/>
      <point x="144" y="23"/>
      <point x="41" y="23" type="curve"/>
      <point x="41" y="0"/>
      <point x="41" y="23"/>
      <point x="41" y="0" type="curve"/>
      <point x="75" y="0"/>
      <point x="109" y="0"/>
      <point x="144" y="0" type="curve"/>
      <point x="144" y="23"/>
      <point x="144" y="0"/>
    </contour>
    <contour>
      <point x="144" y="0" type="curve"/>
      <point x="178" y="0"/>
      <point x="144" y="0"/>
      <point x="246" y="0" type="curve"/>
      <point x="246" y="23"/>
      <point x="246" y="0"/>
      <point x="246" y="23" type="curve"/>
      <point x="144" y="23"/>
      <point x="246" y="23"/>
      <point x="144" y="23" type="curve"/>
      <point x="144" y="0"/>
      <point x="144" y="23"/>
    </contour>
    <contour>
      <point x="140" y="220" type="curve"/>
      <point x="173" y="195"/>
      <point x="209" y="175"/>
      <point x="252" y="175" type="curve"/>
      <point x="360" y="177"/>
      <point x="409" y="264"/>
      <point x="409" y="389" type="curve"/>
      <point x="409" y="516"/>
      <point x="353" y="617"/>
      <point x="236" y="617" type="curve"/>
      <point x="206" y="617"/>
      <point x="176" y="617"/>
      <point x="146" y="617" type="curve"/>
      <point x="146" y="594"/>
      <point x="146" y="617"/>
      <point x="146" y="594" type="curve"/>
      <point x="175" y="594"/>
      <point x="204" y="594"/>
      <point x="233" y="594" type="curve"/>
      <point x="337" y="594"/>
      <point x="384" y="502"/>
      <point x="384" y="388" type="curve"/>
      <point x="384" y="283"/>
      <point x="345" y="199"/>
      <point x="253" y="199" type="curve"/>
      <point x="210" y="199"/>
      <point x="183" y="216"/>
      <point x="149" y="242" type="curve"/>
      <point x="140" y="221"/>
      <point x="149" y="241"/>
    </contour>
    <contour>
      <point x="155" y="0" type="curve"/>
      <point x="155" y="241"/>
      <point x="155" y="481"/>
      <point x="155" y="722" type="curve"/>
      <point x="130" y="722"/>
      <point x="155" y="722"/>
      <point x="130" y="722" type="curve"/>
      <point x="130" y="481"/>
      <point x="130" y="241"/>
      <point x="130" y="0" type="curve"/>
      <point x="155" y="0"/>
      <point x="130" y="0"/>
    </contour>
    <contour>
      <point x="144" y="699" type="curve"/>
      <point x="178" y="699"/>
      <point x="144" y="699"/>
      <point x="246" y="699" type="curve"/>
      <point x="246" y="722"/>
      <point x="246" y="699"/>
      <point x="246" y="722" type="curve"/>
      <point x="144" y="722"/>
      <point x="246" y="722"/>
      <point x="144" y="722" type="curve"/>
      <point x="144" y="699"/>
      <point x="144" y="722"/>
    </contour>
  </outline>
</glyph>
<glyph name="ae" format="1">
  <advance width="667"/>
  <unicode hex="00E6"/>
  <outline>
    <contour>
      <point x="77" y="464" type="curve"/>
      <point x="77" y="344"/>
      <point x="77" y="494"/>
      <point x="77" y="374" type="curve"/>
      <point x="99" y="374"/>
      <point x="77" y="374"/>
      <point x="99" y="374" type="curve"/>
      <point x="99" y="494"/>
      <point x="99" y="344"/>
      <point x="99" y="464" type="curve"/>
      <point x="77" y="464"/>
      <point x="99" y="464"/>
    </contour>
    <contour>
      <point x="333" y="280" type="curve"/>
      <point x="333" y="409"/>
      <point x="333" y="261"/>
      <point x="333" y="390" type="curve"/>
      <point x="333" y="485"/>
      <point x="299" y="538"/>
      <point x="213" y="538" type="curve"/>
      <point x="148" y="538"/>
      <point x="106" y="501"/>
      <point x="77" y="464" type="curve"/>
      <point x="90" y="444"/>
      <point x="77" y="464"/>
      <point x="90" y="444" type="curve"/>
      <point x="113" y="478"/>
      <point x="150" y="515"/>
      <point x="210" y="515" type="curve"/>
      <point x="283" y="515"/>
      <point x="309" y="467"/>
      <point x="309" y="383" type="curve"/>
      <point x="309" y="256"/>
      <point x="309" y="407"/>
      <point x="309" y="280" type="curve"/>
      <point x="333" y="280"/>
      <point x="308" y="280"/>
    </contour>
    <contour>
      <point x="324" y="295" type="curve"/>
      <point x="264" y="295"/>
      <point x="237" y="297"/>
      <point x="181" y="286" type="curve"/>
      <point x="105" y="270"/>
      <point x="63" y="226"/>
      <point x="63" y="141" type="curve"/>
      <point x="63" y="56"/>
      <point x="89" y="-5"/>
      <point x="170" y="-5" type="curve"/>
      <point x="263" y="-5"/>
      <point x="304" y="66"/>
      <point x="341" y="147" type="curve"/>
      <point x="328" y="159"/>
      <point x="334" y="147"/>
      <point x="321" y="159" type="curve"/>
      <point x="287" y="85"/>
      <point x="250" y="18"/>
      <point x="176" y="18" type="curve"/>
      <point x="106" y="18"/>
      <point x="88" y="71"/>
      <point x="88" y="143" type="curve"/>
      <point x="88" y="214"/>
      <point x="125" y="252"/>
      <point x="184" y="265" type="curve"/>
      <point x="241" y="276"/>
      <point x="269" y="273"/>
      <point x="325" y="273" type="curve"/>
      <point x="324" y="292"/>
      <point x="326" y="276"/>
    </contour>
    <contour>
      <point x="322" y="273" type="curve"/>
      <point x="413" y="273"/>
      <point x="505" y="273"/>
      <point x="596" y="273" type="curve"/>
      <point x="601" y="273"/>
      <point x="596" y="273"/>
      <point x="601" y="273" type="curve"/>
      <point x="601" y="276"/>
      <point x="601" y="273"/>
      <point x="601" y="276" type="curve"/>
      <point x="601" y="285"/>
      <point x="601" y="294"/>
      <point x="601" y="303" type="curve"/>
      <point x="601" y="435"/>
      <point x="573" y="538"/>
      <point x="460" y="538" type="curve"/>
      <point x="335" y="538"/>
      <point x="308" y="425"/>
      <point x="308" y="281" type="curve"/>
      <point x="308" y="122"/>
      <point x="337" y="-5"/>
      <point x="472" y="-5" type="curve"/>
      <point x="530" y="-5"/>
      <point x="566" y="26"/>
      <point x="601" y="76" type="curve"/>
      <point x="582" y="91"/>
      <point x="601" y="76"/>
      <point x="582" y="91" type="curve"/>
      <point x="553" y="49"/>
      <point x="519" y="18"/>
      <point x="472" y="18" type="curve"/>
      <point x="357" y="18"/>
      <point x="334" y="136"/>
      <point x="334" y="281" type="curve"/>
      <point x="334" y="409"/>
      <point x="354" y="515"/>
      <point x="458" y="515" type="curve"/>
      <point x="556" y="515"/>
      <point x="577" y="422"/>
      <point x="577" y="305" type="curve"/>
      <point x="577" y="295"/>
      <point x="577" y="286"/>
      <point x="577" y="276" type="curve"/>
      <point x="580" y="279"/>
      <point x="584" y="282"/>
      <point x="586" y="285" type="curve"/>
      <point x="589" y="289"/>
      <point x="593" y="291"/>
      <point x="596" y="295" type="curve"/>
      <point x="505" y="295"/>
      <point x="413" y="295"/>
      <point x="322" y="295" type="curve"/>
      <point x="322" y="272"/>
      <point x="322" y="295"/>
    </contour>
  </outline>
</glyph>
<glyph name="ccedilla" format="1">
  <advance width="411"/>
  <unicode hex="00E7"/>
  <outline>
    <contour>
      <point x="326" y="473" type="curve"/>
      <point x="326" y="353"/>
      <point x="326" y="483"/>
      <point x="326" y="363" type="curve"/>
      <point x="349" y="363"/>
      <point x="326" y="363"/>
      <point x="349" y="363" type="curve"/>
      <point x="349" y="483"/>
      <point x="349" y="353"/>
      <point x="349" y="473" type="curve"/>
      <point x="326" y="473"/>
      <point x="349" y="473"/>
    </contour>
    <contour>
      <point x="349" y="473" type="curve"/>
      <point x="320" y="507"/>
      <point x="280" y="538"/>
      <point x="233" y="538" type="curve"/>
      <point x="99" y="538"/>
      <point x="64" y="422"/>
      <point x="64" y="267" type="curve"/>
      <point x="64" y="112"/>
      <point x="97" y="-5"/>
      <point x="231" y="-5" type="curve"/>
      <point x="286" y="-5"/>
      <point x="330" y="35"/>
      <point x="357" y="88" type="curve"/>
      <point x="338" y="100"/>
      <point x="357" y="88"/>
      <point x="338" y="100" type="curve"/>
      <point x="318" y="63"/>
      <point x="279" y="18"/>
      <point x="232" y="18" type="curve"/>
      <point x="115" y="18"/>
      <point x="89" y="128"/>
      <point x="89" y="267" type="curve"/>
      <point x="89" y="406"/>
      <point x="119" y="515"/>
      <point x="232" y="515" type="curve"/>
      <point x="272" y="515"/>
      <point x="308" y="486"/>
      <point x="334" y="457" type="curve"/>
      <point x="349" y="473"/>
      <point x="334" y="457"/>
    </contour>
    <contour>
      <point x="213" y="11" type="curve"/>
      <point x="202" y="-16"/>
      <point x="192" y="-44"/>
      <point x="182" y="-70" type="curve"/>
      <point x="199" y="-89"/>
      <point x="182" y="-70"/>
      <point x="199" y="-89" type="curve"/>
      <point x="209" y="-61"/>
      <point x="222" y="-32"/>
      <point x="232" y="-5" type="curve"/>
      <point x="213" y="11"/>
      <point x="232" y="-5"/>
    </contour>
    <contour>
      <point x="199" y="-89" type="curve"/>
      <point x="208" y="-80"/>
      <point x="215" y="-76"/>
      <point x="228" y="-76" type="curve"/>
      <point x="255" y="-76"/>
      <point x="261" y="-101"/>
      <point x="261" y="-132" type="curve"/>
      <point x="261" y="-164"/>
      <point x="248" y="-187"/>
      <point x="219" y="-187" type="curve"/>
      <point x="200" y="-187"/>
      <point x="186" y="-183"/>
      <point x="172" y="-170" type="curve"/>
      <point x="162" y="-187"/>
      <point x="172" y="-170"/>
      <point x="162" y="-187" type="curve"/>
      <point x="179" y="-202"/>
      <point x="195" y="-210"/>
      <point x="218" y="-210" type="curve"/>
      <point x="262" y="-210"/>
      <point x="287" y="-177"/>
      <point x="287" y="-132" type="curve"/>
      <point x="287" y="-88"/>
      <point x="269" y="-53"/>
      <point x="230" y="-53" type="curve"/>
      <point x="211" y="-53"/>
      <point x="198" y="-59"/>
      <point x="182" y="-70" type="curve"/>
      <point x="199" y="-89"/>
      <point x="182" y="-70"/>
    </contour>
  </outline>
</glyph>
<glyph name="iacute" format="1">
  <advance width="261"/>
  <unicode hex="00ED"/>
  <outline>
    <contour>
      <point x="146" y="23" type="curve"/>
      <point x="25" y="23"/>
      <point x="155" y="23"/>
      <point x="34" y="23" type="curve"/>
      <point x="34" y="0"/>
      <point x="34" y="23"/>
      <point x="34" y="0" type="curve"/>
      <point x="74" y="0"/>
      <point x="106" y="0"/>
      <point x="146" y="0" type="curve"/>
      <point x="146" y="23"/>
      <point x="146" y="0"/>
    </contour>
    <contour>
      <point x="146" y="0" type="curve"/>
      <point x="183" y="0"/>
      <point x="213" y="0"/>
      <point x="251" y="0" type="curve"/>
      <point x="251" y="23"/>
      <point x="251" y="0"/>
      <point x="251" y="23" type="curve"/>
      <point x="137" y="23"/>
      <point x="260" y="23"/>
      <point x="146" y="23" type="curve"/>
      <point x="146" y="0"/>
      <point x="146" y="23"/>
    </contour>
    <contour>
      <point x="146" y="533" type="curve"/>
      <point x="106" y="533"/>
      <point x="74" y="533"/>
      <point x="34" y="533" type="curve"/>
      <point x="34" y="510"/>
      <point x="34" y="533"/>
      <point x="34" y="510" type="curve"/>
      <point x="155" y="510"/>
      <point x="25" y="510"/>
      <point x="146" y="510" type="curve"/>
      <point x="146" y="533"/>
      <point x="146" y="510"/>
    </contour>
    <contour>
      <point x="160" y="0" type="curve"/>
      <point x="160" y="178"/>
      <point x="160" y="355"/>
      <point x="160" y="533" type="curve"/>
      <point x="133" y="533"/>
      <point x="160" y="533"/>
      <point x="133" y="533" type="curve"/>
      <point x="133" y="355"/>
      <point x="133" y="178"/>
      <point x="133" y="0" type="curve"/>
      <point x="160" y="0"/>
      <point x="133" y="0"/>
    </contour>
    <contour>
      <point x="156" y="670" type="line"/>
      <point x="229" y="836" type="line"/>
      <point x="197" y="836" type="line"/>
      <point x="131" y="670" type="line"/>
    </contour>
  </outline>
</glyph>
<glyph name="idieresis" format="1">
  <advance width="261"/>
  <unicode hex="00EF"/>
  <outline>
    <contour>
      <point x="146" y="23" type="curve"/>
      <point x="25" y="23"/>
      <point x="155" y="23"/>
      <point x="34" y="23" type="curve"/>
      <point x="34" y="0"/>
      <point x="34" y="23"/>
      <point x="34" y="0" type="curve"/>
      <point x="74" y="0"/>
      <point x="106" y="0"/>
      <point x="146" y="0" type="curve"/>
      <point x="146" y="23"/>
      <point x="146" y="0"/>
    </contour>
    <contour>
      <point x="146" y="0" type="curve"/>
      <point x="183" y="0"/>
      <point x="213" y="0"/>
      <point x="251" y="0" type="curve"/>
      <point x="251" y="23"/>
      <point x="251" y="0"/>
      <point x="251" y="23" type="curve"/>
      <point x="137" y="23"/>
      <point x="260" y="23"/>
      <point x="146" y="23" type="curve"/>
      <point x="146" y="0"/>
      <point x="146" y="23"/>
    </contour>
    <contour>
      <point x="146" y="533" type="curve"/>
      <point x="106" y="533"/>
      <point x="74" y="533"/>
      <point x="34" y="533" type="curve"/>
      <point x="34" y="510"/>
      <point x="34" y="533"/>
      <point x="34" y="510" type="curve"/>
      <point x="155" y="510"/>
      <point x="25" y="510"/>
      <point x="146" y="510" type="curve"/>
      <point x="146" y="533"/>
      <point x="146" y="510"/>
    </contour>
    <contour>
      <point x="160" y="0" type="curve"/>
      <point x="160" y="178"/>
      <point x="160" y="355"/>
      <point x="160" y="533" type="curve"/>
      <point x="133" y="533"/>
      <point x="160" y="533"/>
      <point x="133" y="533" type="curve"/>
      <point x="133" y="355"/>
      <point x="133" y="178"/>
      <point x="133" y="0" type="curve"/>
      <point x="160" y="0"/>
      <point x="133" y="0"/>
    </contour>
    <contour>
      <point x="119" y="685" type="curve"/>
      <point x="119" y="696"/>
      <point x="112" y="702"/>
      <point x="101" y="702" type="curve"/>
      <point x="89" y="702"/>
      <point x="83" y="695"/>
      <point x="83" y="685" type="curve"/>
      <point x="119" y="685"/>
      <point x="83" y="685"/>
      <point x="119" y="685" type="curve"/>
      <point x="119" y="674"/>
      <point x="112" y="667"/>
      <point x="101" y="667" type="curve"/>
      <point x="89" y="667"/>
      <point x="83" y="674"/>
      <point x="83" y="685" type="curve"/>
      <point x="119" y="685"/>
      <point x="83" y="685"/>
    </contour>
    <contour>
      <point x="204" y="685" type="curve"/>
      <point x="204" y="696"/>
      <point x="197" y="702"/>
      <point x="186" y="702" type="curve"/>
      <point x="175" y="702"/>
      <point x="168" y="695"/>
      <point x="168" y="685" type="curve"/>
      <point x="204" y="685"/>
      <point x="168" y="685"/>
      <point x="204" y="685" type="curve"/>
      <point x="204" y="674"/>
      <point x="197" y="667"/>
      <point x="186" y="667" type="curve"/>
      <point x="175" y="667"/>
      <point x="168" y="674"/>
      <point x="168" y="685" type="curve"/>
      <point x="204" y="685"/>
      <point x="168" y="685"/>
    </contour>
  </outline>
</glyph>
<glyph name="eth" format="1">
  <advance width="437"/>
  <unicode hex="00F0"/>
  <outline>
    <contour>
      <point x="86" y="548" type="curve"/>
      <point x="147" y="610"/>
      <point x="208" y="671"/>
      <point x="269" y="732" type="curve"/>
      <point x="287" y="715"/>
      <point x="269" y="732"/>
      <point x="287" y="715" type="curve"/>
      <point x="226" y="654"/>
      <point x="165" y="592"/>
      <point x="103" y="531" type="curve"/>
      <point x="86" y="548"/>
      <point x="103" y="531"/>
    </contour>
    <contour>
      <point x="350" y="226" type="curve"/>
      <point x="329" y="295"/>
      <point x="293" y="379"/>
      <point x="207" y="379" type="curve"/>
      <point x="115" y="379"/>
      <point x="83" y="299"/>
      <point x="83" y="195" type="curve"/>
      <point x="83" y="95"/>
      <point x="115" y="12"/>
      <point x="202" y="12" type="curve"/>
      <point x="310" y="12"/>
      <point x="345" y="114"/>
      <point x="345" y="235" type="curve"/>
      <point x="345" y="457"/>
      <point x="260" y="616"/>
      <point x="55" y="706" type="curve"/>
      <point x="66" y="730"/>
      <point x="55" y="706"/>
      <point x="66" y="730" type="curve"/>
      <point x="280" y="636"/>
      <point x="371" y="473"/>
      <point x="371" y="234" type="curve"/>
      <point x="371" y="96"/>
      <point x="329" y="-12"/>
      <point x="203" y="-12" type="curve"/>
      <point x="97" y="-12"/>
      <point x="57" y="79"/>
      <point x="57" y="196" type="curve"/>
      <point x="57" y="314"/>
      <point x="98" y="403"/>
      <point x="204" y="403" type="curve"/>
      <point x="300" y="403"/>
      <point x="338" y="330"/>
      <point x="366" y="234" type="curve"/>
      <point x="350" y="226"/>
      <point x="366" y="234"/>
    </contour>
  </outline>
</glyph>
<glyph name="ograve" format="1">
  <advance width="455"/>
  <unicode hex="00F2"/>
  <outline>
    <contour>
      <point x="89" y="268" type="curve"/>
      <point x="89" y="405"/>
      <point x="115" y="516"/>
      <point x="225" y="516" type="curve"/>
      <point x="341" y="516"/>
      <point x="366" y="403"/>
      <point x="366" y="266" type="curve"/>
      <point x="366" y="130"/>
      <point x="340" y="18"/>
      <point x="228" y="18" type="curve"/>
      <point x="109" y="18"/>
      <point x="89" y="131"/>
      <point x="89" y="268" type="curve"/>
      <point x="65" y="268"/>
      <point x="87" y="268"/>
      <point x="64" y="268" type="curve"/>
      <point x="64" y="117"/>
      <point x="95" y="-5"/>
      <point x="227" y="-5" type="curve"/>
      <point x="359" y="-5"/>
      <point x="391" y="115"/>
      <point x="391" y="266" type="curve"/>
      <point x="391" y="417"/>
      <point x="359" y="538"/>
      <point x="226" y="538" type="curve"/>
      <point x="96" y="538"/>
      <point x="64" y="417"/>
      <point x="64" y="268" type="curve"/>
      <point x="87" y="268"/>
      <point x="65" y="268"/>
    </contour>
    <contour>
      <point x="239" y="670" type="line"/>
      <point x="173" y="836" type="line"/>
      <point x="140" y="836" type="line"/>
      <point x="214" y="670" type="line"/>
    </contour>
  </outline>
</glyph>
<glyph name="oslash" format="1">
  <advance width="455"/>
  <unicode hex="00F8"/>
  <outline>
    <contour>
      <point x="123" y="-79" type="line"/>
      <point x="358" y="586" type="line"/>
      <point x="336" y="594" type="line"/>
      <point x="101" y="-70" type="line"/>
    </contour>
    <contour>
      <point x="89" y="268" type="curve"/>
      <point x="89" y="405"/>
      <point x="115" y="516"/>
      <point x="225" y="516" type="curve"/>
      <point x="341" y="516"/>
      <point x="366" y="403"/>
      <point x="366" y="266" type="curve"/>
      <point x="366" y="130"/>
      <point x="340" y="18"/>
      <point x="228" y="18" type="curve"/>
      <point x="109" y="18"/>
      <point x="89" y="131"/>
      <point x="89" y="268" type="curve"/>
      <point x="65" y="268"/>
      <point x="87" y="268"/>
      <point x="64" y="268" type="curve"/>
      <point x="64" y="117"/>
      <point x="95" y="-5"/>
      <point x="227" y="-5" type="curve"/>
      <point x="359" y="-5"/>
      <point x="391" y="115"/>
      <point x="391" y="266" type="curve"/>
      <point x="391" y="417"/>
      <point x="359" y="538"/>
      <point x="226" y="538" type="curve"/>
      <point x="96" y="538"/>
      <point x="64" y="417"/>
      <point x="64" y="268" type="curve"/>
      <point x="87" y="268"/>
      <point x="65" y="268"/>
    </contour>
  </outline>
</glyph>
<glyph name="yacute" format="1">
  <advance width="547"/>
  <unicode hex="00FD"/>
  <outline>
    <contour>
      <point x="183" y="-277" type="curve"/>
      <point x="62" y="-277"/>
      <point x="192" y="-277"/>
      <point x="71" y="-277" type="curve"/>
      <point x="71" y="-300"/>
      <point x="71" y="-277"/>
      <point x="71" y="-300" type="curve"/>
      <point x="111" y="-300"/>
      <point x="143" y="-300"/>
      <point x="183" y="-300" type="curve"/>
      <point x="183" y="-277"/>
      <point x="183" y="-300"/>
    </contour>
    <contour>
      <point x="117" y="533" type="curve"/>
      <point x="77" y="533"/>
      <point x="45" y="533"/>
      <point x="5" y="533" type="curve"/>
      <point x="5" y="510"/>
      <point x="5" y="533"/>
      <point x="5" y="510" type="curve"/>
      <point x="126" y="510"/>
      <point x="-4" y="510"/>
      <point x="117" y="510" type="curve"/>
      <point x="117" y="533"/>
      <point x="117" y="510"/>
    </contour>
    <contour>
      <point x="117" y="510" type="curve"/>
      <point x="228" y="510"/>
      <point x="108" y="510"/>
      <point x="219" y="510" type="curve"/>
      <point x="219" y="533"/>
      <point x="219" y="510"/>
      <point x="219" y="533" type="curve"/>
      <point x="182" y="533"/>
      <point x="154" y="533"/>
      <point x="117" y="533" type="curve"/>
      <point x="117" y="510"/>
      <point x="117" y="533"/>
    </contour>
    <contour>
      <point x="431" y="533" type="curve"/>
      <point x="397" y="533"/>
      <point x="371" y="533"/>
      <point x="338" y="533" type="curve"/>
      <point x="338" y="510"/>
      <point x="338" y="533"/>
      <point x="338" y="510" type="curve"/>
      <point x="440" y="510"/>
      <point x="329" y="510"/>
      <point x="431" y="510" type="curve"/>
      <point x="431" y="533"/>
      <point x="431" y="510"/>
    </contour>
    <contour>
      <point x="431" y="510" type="curve"/>
      <point x="549" y="510"/>
      <point x="422" y="510"/>
      <point x="541" y="510" type="curve"/>
      <point x="541" y="533"/>
      <point x="541" y="510"/>
      <point x="541" y="533" type="curve"/>
      <point x="502" y="533"/>
      <point x="471" y="533"/>
      <point x="431" y="533" type="curve"/>
      <point x="431" y="510"/>
      <point x="431" y="533"/>
    </contour>
    <contour>
      <point x="285" y="7" type="curve"/>
      <point x="284" y="9"/>
      <point x="123" y="531"/>
      <point x="123" y="533" type="curve"/>
      <point x="94" y="533"/>
      <point x="123" y="533"/>
      <point x="94" y="533" type="curve"/>
      <point x="94" y="531"/>
      <point x="260" y="1"/>
      <point x="261" y="-1" type="curve"/>
      <point x="285" y="-1"/>
      <point x="261" y="7"/>
    </contour>
    <contour>
      <point x="189" y="-300" type="curve"/>
      <point x="190" y="-297"/>
      <point x="452" y="530"/>
      <point x="453" y="533" type="curve"/>
      <point x="425" y="533"/>
      <point x="453" y="533"/>
      <point x="425" y="533" type="curve"/>
      <point x="424" y="530"/>
      <point x="161" y="-297"/>
      <point x="160" y="-300" type="curve"/>
      <point x="189" y="-300"/>
      <point x="160" y="-300"/>
    </contour>
    <contour>
      <point x="305" y="671" type="line"/>
      <point x="378" y="837" type="line"/>
      <point x="346" y="837" type="line"/>
      <point x="280" y="671" type="line"/>
    </contour>
  </outline>
</glyph>
<glyph name="thorn" format="1">
  <advance width="449"/>
  <unicode hex="00FE"/>
  <outline>
    <contour>
      <point x="79" y="-277" type="curve"/>
      <point x="-43" y="-277"/>
      <point x="88" y="-277"/>
      <point x="-34" y="-277" type="curve"/>
      <point x="-34" y="-300"/>
      <point x="-34" y="-277"/>
      <point x="-34" y="-300" type="curve"/>
      <point x="6" y="-300"/>
      <point x="39" y="-300"/>
      <point x="79" y="-300" type="curve"/>
      <point x="79" y="-277"/>
      <point x="79" y="-300"/>
    </contour>
    <contour>
      <point x="79" y="-300" type="curve"/>
      <point x="117" y="-300"/>
      <point x="146" y="-300"/>
      <point x="184" y="-300" type="curve"/>
      <point x="184" y="-277"/>
      <point x="184" y="-300"/>
      <point x="184" y="-277" type="curve"/>
      <point x="70" y="-277"/>
      <point x="193" y="-277"/>
      <point x="79" y="-277" type="curve"/>
      <point x="79" y="-300"/>
      <point x="79" y="-277"/>
    </contour>
    <contour>
      <point x="80" y="800" type="curve"/>
      <point x="40" y="800"/>
      <point x="7" y="800"/>
      <point x="-33" y="800" type="curve"/>
      <point x="-33" y="777"/>
      <point x="-33" y="800"/>
      <point x="-33" y="777" type="curve"/>
      <point x="89" y="777"/>
      <point x="-42" y="777"/>
      <point x="80" y="777" type="curve"/>
      <point x="80" y="800"/>
      <point x="80" y="777"/>
    </contour>
    <contour>
      <point x="85" y="422" type="curve"/>
      <point x="108" y="463"/>
      <point x="159" y="516"/>
      <point x="228" y="516" type="curve"/>
      <point x="334" y="516"/>
      <point x="360" y="403"/>
      <point x="360" y="276" type="curve"/>
      <point x="362" y="139"/>
      <point x="335" y="18"/>
      <point x="227" y="18" type="curve"/>
      <point x="160" y="18"/>
      <point x="125" y="66"/>
      <point x="87" y="122" type="curve"/>
      <point x="71" y="110"/>
      <point x="87" y="122"/>
      <point x="71" y="110" type="curve"/>
      <point x="111" y="46"/>
      <point x="152" y="-5"/>
      <point x="227" y="-5" type="curve"/>
      <point x="356" y="-5"/>
      <point x="385" y="128"/>
      <point x="385" y="278" type="curve"/>
      <point x="385" y="417"/>
      <point x="350" y="538"/>
      <point x="229" y="538" type="curve"/>
      <point x="154" y="538"/>
      <point x="98" y="484"/>
      <point x="73" y="438" type="curve"/>
      <point x="85" y="422"/>
      <point x="73" y="438"/>
    </contour>
    <contour>
      <point x="91" y="-300" type="curve"/>
      <point x="91" y="-22"/>
      <point x="91" y="522"/>
      <point x="91" y="800" type="curve"/>
      <point x="66" y="800"/>
      <point x="91" y="800"/>
      <point x="66" y="800" type="curve"/>
      <point x="66" y="522"/>
      <point x="66" y="-22"/>
      <point x="66" y="-300" type="curve"/>
      <point x="91" y="-300"/>
      <point x="66" y="-300"/>
    </contour>
  </outline>
</glyph>
<glyph name="Abreve" format="1">
  <advance width="599"/>
  <unicode hex="0102"/>
  <outline>
    <contour>
      <point x="89" y="23" type="curve"/>
      <point x="-43" y="23"/>
      <point x="109" y="23"/>
      <point x="-23" y="23" type="curve"/>
      <point x="-23" y="0"/>
      <point x="-23" y="23"/>
      <point x="-23" y="0" type="curve"/>
      <point x="21" y="0"/>
      <point x="45" y="0"/>
      <point x="89" y="0" type="curve"/>
      <point x="89" y="23"/>
      <point x="89" y="0"/>
    </contour>
    <contour>
      <point x="89" y="0" type="curve"/>
      <point x="135" y="0"/>
      <point x="70" y="0"/>
      <point x="207" y="0" type="curve"/>
      <point x="207" y="23"/>
      <point x="207" y="0"/>
      <point x="207" y="23" type="curve"/>
      <point x="70" y="23"/>
      <point x="227" y="23"/>
      <point x="89" y="23" type="curve"/>
      <point x="89" y="0"/>
      <point x="89" y="23"/>
    </contour>
    <contour>
      <point x="473" y="0" type="curve"/>
      <point x="517" y="0"/>
      <point x="541" y="0"/>
      <point x="585" y="0" type="curve"/>
      <point x="585" y="23"/>
      <point x="585" y="0"/>
      <point x="585" y="23" type="curve"/>
      <point x="453" y="23"/>
      <point x="605" y="23"/>
      <point x="473" y="23" type="curve"/>
      <point x="473" y="0"/>
      <point x="473" y="23"/>
    </contour>
    <contour>
      <point x="473" y="23" type="curve"/>
      <point x="334" y="23"/>
      <point x="492" y="23"/>
      <point x="354" y="23" type="curve"/>
      <point x="354" y="0"/>
      <point x="354" y="23"/>
      <point x="354" y="0" type="curve"/>
      <point x="400" y="0"/>
      <point x="427" y="0"/>
      <point x="473" y="0" type="curve"/>
      <point x="473" y="23"/>
      <point x="473" y="0"/>
    </contour>
    <contour>
      <point x="407" y="277" type="curve"/>
      <point x="326" y="277"/>
      <point x="247" y="277"/>
      <point x="166" y="277" type="curve"/>
      <point x="155" y="253"/>
      <point x="166" y="277"/>
      <point x="155" y="253" type="curve"/>
      <point x="242" y="253"/>
      <point x="329" y="253"/>
      <point x="416" y="253" type="curve"/>
      <point x="407" y="277"/>
      <point x="416" y="253"/>
    </contour>
    <contour>
      <point x="493" y="0" type="curve"/>
      <point x="430" y="241"/>
      <point x="367" y="481"/>
      <point x="304" y="722" type="curve"/>
      <point x="281" y="722"/>
      <point x="304" y="722"/>
      <point x="281" y="722" type="curve"/>
      <point x="343" y="481"/>
      <point x="405" y="241"/>
      <point x="467" y="0" type="curve"/>
      <point x="493" y="0"/>
      <point x="467" y="0"/>
    </contour>
    <contour>
      <point x="95" y="0" type="curve"/>
      <point x="164" y="241"/>
      <point x="233" y="481"/>
      <point x="302" y="722" type="curve"/>
      <point x="279" y="722"/>
      <point x="302" y="722"/>
      <point x="279" y="722" type="curve"/>
      <point x="209" y="481"/>
      <point x="138" y="241"/>
      <point x="67" y="0" type="curve"/>
      <point x="95" y="0"/>
      <point x="67" y="0"/>
    </contour>
    <contour>
      <point x="370" y="948" type="curve"/>
      <point x="370" y="890"/>
      <point x="347" y="846"/>
      <point x="293" y="846" type="curve"/>
      <point x="242" y="846"/>
      <point x="221" y="891"/>
      <point x="221" y="949" type="curve"/>
      <point x="196" y="949"/>
      <point x="221" y="949"/>
      <point x="196" y="949" type="curve"/>
      <point x="196" y="877"/>
      <point x="225" y="825"/>
      <point x="291" y="825" type="curve"/>
      <point x="361" y="825"/>
      <point x="394" y="875"/>
      <point x="394" y="948" type="curve"/>
      <point x="370" y="948"/>
      <point x="394" y="948"/>
    </contour>
  </outline>
</glyph>
<glyph name="Ccaron" format="1">
  <advance width="517"/>
  <unicode hex="010C"/>
  <outline>
    <contour>
      <point x="434" y="655" type="curve"/>
      <point x="434" y="535"/>
      <point x="434" y="655"/>
      <point x="434" y="535" type="curve"/>
      <point x="457" y="535"/>
      <point x="434" y="535"/>
      <point x="457" y="535" type="curve"/>
      <point x="457" y="655"/>
      <point x="457" y="535"/>
      <point x="457" y="655" type="curve"/>
      <point x="434" y="655"/>
      <point x="457" y="655"/>
    </contour>
    <contour>
      <point x="457" y="655" type="curve"/>
      <point x="413" y="694"/>
      <point x="361" y="727"/>
      <point x="297" y="727" type="curve"/>
      <point x="112" y="727"/>
      <point x="67" y="558"/>
      <point x="67" y="344" type="curve"/>
      <point x="67" y="149"/>
      <point x="111" y="-5"/>
      <point x="282" y="-5" type="curve"/>
      <point x="367" y="-5"/>
      <point x="417" y="34"/>
      <point x="471" y="96" type="curve"/>
      <point x="454" y="114"/>
      <point x="470" y="96"/>
      <point x="453" y="114" type="curve"/>
      <point x="405" y="58"/>
      <point x="359" y="22"/>
      <point x="283" y="22" type="curve"/>
      <point x="128" y="22"/>
      <point x="92" y="166"/>
      <point x="92" y="345" type="curve"/>
      <point x="92" y="542"/>
      <point x="131" y="702"/>
      <point x="295" y="702" type="curve"/>
      <point x="354" y="702"/>
      <point x="403" y="673"/>
      <point x="443" y="637" type="curve"/>
      <point x="457" y="655"/>
      <point x="443" y="637"/>
    </contour>
    <contour>
      <point x="357" y="991" type="line"/>
      <point x="284" y="825" type="line"/>
      <point x="316" y="825" type="line"/>
      <point x="383" y="991" type="line"/>
    </contour>
    <contour>
      <point x="207" y="991" type="line"/>
      <point x="273" y="825" type="line"/>
      <point x="306" y="825" type="line"/>
      <point x="232" y="991" type="line"/>
    </contour>
  </outline>
</glyph>
<glyph name="dcroat" format="1">
  <advance width="491"/>
  <unicode hex="0111"/>
  <outline>
    <contour>
      <point x="371" y="800" type="curve"/>
      <point x="327" y="800"/>
      <point x="302" y="800"/>
      <point x="258" y="800" type="curve"/>
      <point x="258" y="777"/>
      <point x="258" y="800"/>
      <point x="258" y="777" type="curve"/>
      <point x="390" y="777"/>
      <point x="239" y="777"/>
      <point x="371" y="777" type="curve"/>
      <point x="371" y="800"/>
      <point x="371" y="777"/>
    </contour>
    <contour>
      <point x="372" y="0" type="curve"/>
      <point x="416" y="0"/>
      <point x="440" y="0"/>
      <point x="484" y="0" type="curve"/>
      <point x="484" y="23"/>
      <point x="484" y="0"/>
      <point x="484" y="23" type="curve"/>
      <point x="352" y="23"/>
      <point x="504" y="23"/>
      <point x="372" y="23" type="curve"/>
      <point x="372" y="0"/>
      <point x="372" y="23"/>
    </contour>
    <contour>
      <point x="379" y="438" type="curve"/>
      <point x="357" y="495"/>
      <point x="303" y="538"/>
      <point x="235" y="538" type="curve"/>
      <point x="106" y="538"/>
      <point x="61" y="410"/>
      <point x="61" y="264" type="curve"/>
      <point x="61" y="120"/>
      <point x="109" y="-5"/>
      <point x="237" y="-5" type="curve"/>
      <point x="310" y="-5"/>
      <point x="354" y="51"/>
      <point x="379" y="129" type="curve"/>
      <point x="363" y="144"/>
      <point x="379" y="129"/>
      <point x="363" y="144" type="curve"/>
      <point x="340" y="72"/>
      <point x="297" y="18"/>
      <point x="236" y="18" type="curve"/>
      <point x="126" y="18"/>
      <point x="86" y="134"/>
      <point x="86" y="265" type="curve"/>
      <point x="86" y="397"/>
      <point x="125" y="515"/>
      <point x="236" y="515" type="curve"/>
      <point x="291" y="515"/>
      <point x="343" y="476"/>
      <point x="363" y="421" type="curve"/>
      <point x="379" y="438"/>
      <point x="363" y="421"/>
    </contour>
    <contour>
      <point x="384" y="0" type="curve"/>
      <point x="384" y="267"/>
      <point x="384" y="533"/>
      <point x="384" y="800" type="curve"/>
      <point x="358" y="800"/>
      <point x="384" y="800"/>
      <point x="358" y="800" type="curve"/>
      <point x="358" y="533"/>
      <point x="358" y="267"/>
      <point x="358" y="0" type="curve"/>
      <point x="384" y="0"/>
      <point x="358" y="0"/>
    </contour>
    <contour>
      <point x="223" y="656" type="curve"/>
      <point x="299" y="656"/>
      <point x="374" y="656"/>
      <point x="447" y="656" type="curve"/>
      <point x="447" y="681"/>
      <point x="447" y="656"/>
      <point x="447" y="681" type="curve"/>
      <point x="374" y="681"/>
      <point x="299" y="681"/>
      <point x="223" y="681" type="curve"/>
      <point x="223" y="656"/>
      <point x="223" y="681"/>
    </contour>
  </outline>
</glyph>
<glyph name="Eogonek" format="1">
  <advance width="512"/>
  <unicode hex="0118"/>
  <outline>
    <contour>
      <point x="453" y="11" type="curve"/>
      <point x="453" y="131"/>
      <point x="453" y="2"/>
      <point x="453" y="122" type="curve"/>
      <point x="430" y="122"/>
      <point x="453" y="122"/>
      <point x="430" y="122" type="curve"/>
      <point x="430" y="2"/>
      <point x="430" y="131"/>
      <point x="430" y="11" type="curve"/>
      <point x="453" y="11"/>
      <point x="430" y="11"/>
    </contour>
    <contour>
      <point x="406" y="711" type="curve"/>
      <point x="406" y="591"/>
      <point x="406" y="720"/>
      <point x="406" y="600" type="curve"/>
      <point x="429" y="600"/>
      <point x="406" y="600"/>
      <point x="429" y="600" type="curve"/>
      <point x="429" y="720"/>
      <point x="429" y="591"/>
      <point x="429" y="711" type="curve"/>
      <point x="406" y="711"/>
      <point x="429" y="711"/>
    </contour>
    <contour>
      <point x="152" y="23" type="curve"/>
      <point x="20" y="23"/>
      <point x="172" y="23"/>
      <point x="40" y="23" type="curve"/>
      <point x="40" y="0"/>
      <point x="40" y="23"/>
      <point x="40" y="0" type="curve"/>
      <point x="84" y="0"/>
      <point x="108" y="0"/>
      <point x="152" y="0" type="curve"/>
      <point x="152" y="23"/>
      <point x="152" y="0"/>
    </contour>
    <contour>
      <point x="152" y="722" type="curve"/>
      <point x="108" y="722"/>
      <point x="84" y="722"/>
      <point x="40" y="722" type="curve"/>
      <point x="40" y="699"/>
      <point x="40" y="722"/>
      <point x="40" y="699" type="curve"/>
      <point x="172" y="699"/>
      <point x="20" y="699"/>
      <point x="152" y="699" type="curve"/>
      <point x="152" y="722"/>
      <point x="152" y="699"/>
    </contour>
    <contour>
      <point x="154" y="363" type="curve"/>
      <point x="232" y="363"/>
      <point x="308" y="363"/>
      <point x="385" y="363" type="curve"/>
      <point x="385" y="385"/>
      <point x="385" y="363"/>
      <point x="385" y="385" type="curve"/>
      <point x="308" y="385"/>
      <point x="232" y="385"/>
      <point x="154" y="385" type="curve"/>
      <point x="154" y="363"/>
      <point x="154" y="385"/>
    </contour>
    <contour>
      <point x="144" y="699" type="curve"/>
      <point x="240" y="699"/>
      <point x="334" y="699"/>
      <point x="429" y="699" type="curve"/>
      <point x="429" y="722"/>
      <point x="429" y="699"/>
      <point x="429" y="722" type="curve"/>
      <point x="334" y="722"/>
      <point x="240" y="722"/>
      <point x="144" y="722" type="curve"/>
      <point x="144" y="699"/>
      <point x="144" y="722"/>
    </contour>
    <contour>
      <point x="165" y="0" type="curve"/>
      <point x="165" y="722" type="line"/>
      <point x="140" y="722"/>
      <point x="165" y="722"/>
      <point x="140" y="722" type="curve"/>
      <point x="140" y="481"/>
      <point x="140" y="241"/>
      <point x="140" y="0" type="curve"/>
      <point x="165" y="0"/>
      <point x="140" y="0"/>
    </contour>
    <contour>
      <point x="144" y="0" type="curve"/>
      <point x="248" y="0"/>
      <point x="350" y="0"/>
      <point x="453" y="0" type="curve"/>
      <point x="453" y="23"/>
      <point x="453" y="0"/>
      <point x="453" y="23" type="curve"/>
      <point x="350" y="23"/>
      <point x="248" y="23"/>
      <point x="144" y="23" type="curve"/>
      <point x="144" y="0"/>
      <point x="144" y="23"/>
    </contour>
    <contour>
      <point x="443" y="16" type="curve"/>
      <point x="395" y="-9"/>
      <point x="364" y="-45"/>
      <point x="364" y="-99" type="curve"/>
      <point x="364" y="-151"/>
      <point x="387" y="-194"/>
      <point x="434" y="-194" type="curve"/>
      <point x="459" y="-194"/>
      <point x="476" y="-179"/>
      <point x="495" y="-162" type="curve"/>
      <point x="489" y="-156"/>
      <point x="486" y="-154"/>
      <point x="480" y="-148" type="curve"/>
      <point x="466" y="-161"/>
      <point x="454" y="-171"/>
      <point x="436" y="-171" type="curve"/>
      <point x="402" y="-171"/>
      <point x="388" y="-137"/>
      <point x="388" y="-99" type="curve"/>
      <point x="388" y="-54"/>
      <point x="413" y="-23"/>
      <point x="453" y="0" type="curve"/>
      <point x="449" y="6"/>
      <point x="447" y="10"/>
    </contour>
  </outline>
</glyph>
<glyph name="eogonek" format="1">
  <advance width="426"/>
  <unicode hex="0119"/>
  <outline>
    <contour>
      <point x="80" y="273" type="curve"/>
      <point x="171" y="273"/>
      <point x="263" y="273"/>
      <point x="355" y="273" type="curve"/>
      <point x="360" y="273"/>
      <point x="355" y="273"/>
      <point x="360" y="273" type="curve"/>
      <point x="360" y="276"/>
      <point x="360" y="273"/>
      <point x="360" y="276" type="curve"/>
      <point x="360" y="285"/>
      <point x="360" y="294"/>
      <point x="360" y="303" type="curve"/>
      <point x="360" y="435"/>
      <point x="332" y="538"/>
      <point x="218" y="538" type="curve"/>
      <point x="94" y="538"/>
      <point x="67" y="425"/>
      <point x="67" y="281" type="curve"/>
      <point x="67" y="122"/>
      <point x="96" y="-5"/>
      <point x="230" y="-5" type="curve"/>
      <point x="289" y="-5"/>
      <point x="325" y="26"/>
      <point x="360" y="76" type="curve"/>
      <point x="341" y="91"/>
      <point x="360" y="76"/>
      <point x="341" y="91" type="curve"/>
      <point x="312" y="49"/>
      <point x="277" y="18"/>
      <point x="230" y="18" type="curve"/>
      <point x="116" y="18"/>
      <point x="93" y="136"/>
      <point x="93" y="281" type="curve"/>
      <point x="93" y="409"/>
      <point x="113" y="515"/>
      <point x="216" y="515" type="curve"/>
      <point x="315" y="515"/>
      <point x="336" y="422"/>
      <point x="336" y="305" type="curve"/>
      <point x="336" y="295"/>
      <point x="336" y="286"/>
      <point x="336" y="276" type="curve"/>
      <point x="339" y="279"/>
      <point x="343" y="282"/>
      <point x="345" y="285" type="curve"/>
      <point x="348" y="289"/>
      <point x="351" y="291"/>
      <point x="355" y="295" type="curve"/>
      <point x="263" y="295"/>
      <point x="171" y="295"/>
      <point x="80" y="295" type="curve"/>
      <point x="80" y="272"/>
      <point x="80" y="295"/>
    </contour>
    <contour>
      <point x="227" y="11" type="curve"/>
      <point x="179" y="-14"/>
      <point x="147" y="-50"/>
      <point x="147" y="-103" type="curve"/>
      <point x="147" y="-156"/>
      <point x="171" y="-199"/>
      <point x="218" y="-199" type="curve"/>
      <point x="243" y="-199"/>
      <point x="260" y="-184"/>
      <point x="278" y="-167" type="curve"/>
      <point x="273" y="-161"/>
      <point x="269" y="-159"/>
      <point x="264" y="-153" type="curve"/>
      <point x="250" y="-166"/>
      <point x="238" y="-176"/>
      <point x="220" y="-176" type="curve"/>
      <point x="185" y="-176"/>
      <point x="171" y="-142"/>
      <point x="171" y="-103" type="curve"/>
      <point x="171" y="-59"/>
      <point x="196" y="-28"/>
      <point x="236" y="-5" type="curve"/>
      <point x="233" y="1"/>
      <point x="230" y="5"/>
    </contour>
  </outline>
</glyph>
<glyph name="Ecaron" format="1">
  <advance width="502"/>
  <unicode hex="011A"/>
  <outline>
    <contour>
      <point x="453" y="11" type="curve"/>
      <point x="453" y="131"/>
      <point x="453" y="2"/>
      <point x="453" y="122" type="curve"/>
      <point x="430" y="122"/>
      <point x="453" y="122"/>
      <point x="430" y="122" type="curve"/>
      <point x="430" y="2"/>
      <point x="430" y="131"/>
      <point x="430" y="11" type="curve"/>
      <point x="453" y="11"/>
      <point x="430" y="11"/>
    </contour>
    <contour>
      <point x="406" y="711" type="curve"/>
      <point x="406" y="591"/>
      <point x="406" y="720"/>
      <point x="406" y="600" type="curve"/>
      <point x="429" y="600"/>
      <point x="406" y="600"/>
      <point x="429" y="600" type="curve"/>
      <point x="429" y="720"/>
      <point x="429" y="591"/>
      <point x="429" y="711" type="curve"/>
      <point x="406" y="711"/>
      <point x="429" y="711"/>
    </contour>
    <contour>
      <point x="152" y="23" type="curve"/>
      <point x="20" y="23"/>
      <point x="172" y="23"/>
      <point x="40" y="23" type="curve"/>
      <point x="40" y="0"/>
      <point x="40" y="23"/>
      <point x="40" y="0" type="curve"/>
      <point x="84" y="0"/>
      <point x="108" y="0"/>
      <point x="152" y="0" type="curve"/>
      <point x="152" y="23"/>
      <point x="152" y="0"/>
    </contour>
    <contour>
      <point x="152" y="722" type="curve"/>
      <point x="108" y="722"/>
      <point x="84" y="722"/>
      <point x="40" y="722" type="curve"/>
      <point x="40" y="699"/>
      <point x="40" y="722"/>
      <point x="40" y="699" type="curve"/>
      <point x="172" y="699"/>
      <point x="20" y="699"/>
      <point x="152" y="699" type="curve"/>
      <point x="152" y="722"/>
      <point x="152" y="699"/>
    </contour>
    <contour>
      <point x="154" y="363" type="curve"/>
      <point x="232" y="363"/>
      <point x="308" y="363"/>
      <point x="385" y="363" type="curve"/>
      <point x="385" y="385"/>
      <point x="385" y="363"/>
      <point x="385" y="385" type="curve"/>
      <point x="308" y="385"/>
      <point x="232" y="385"/>
      <point x="154" y="385" type="curve"/>
      <point x="154" y="363"/>
      <point x="154" y="385"/>
    </contour>
    <contour>
      <point x="144" y="699" type="curve"/>
      <point x="240" y="699"/>
      <point x="334" y="699"/>
      <point x="429" y="699" type="curve"/>
      <point x="429" y="722"/>
      <point x="429" y="699"/>
      <point x="429" y="722" type="curve"/>
      <point x="334" y="722"/>
      <point x="240" y="722"/>
      <point x="144" y="722" type="curve"/>
      <point x="144" y="699"/>
      <point x="144" y="722"/>
    </contour>
    <contour>
      <point x="165" y="0" type="curve"/>
      <point x="165" y="722" type="line"/>
      <point x="140" y="722"/>
      <point x="165" y="722"/>
      <point x="140" y="722" type="curve"/>
      <point x="140" y="481"/>
      <point x="140" y="241"/>
      <point x="140" y="0" type="curve"/>
      <point x="165" y="0"/>
      <point x="140" y="0"/>
    </contour>
    <contour>
      <point x="144" y="0" type="curve"/>
      <point x="248" y="0"/>
      <point x="350" y="0"/>
      <point x="453" y="0" type="curve"/>
      <point x="453" y="23"/>
      <point x="453" y="0"/>
      <point x="453" y="23" type="curve"/>
      <point x="350" y="23"/>
      <point x="248" y="23"/>
      <point x="144" y="23" type="curve"/>
      <point x="144" y="0"/>
      <point x="144" y="23"/>
    </contour>
    <contour>
      <point x="316" y="991" type="line"/>
      <point x="242" y="825" type="line"/>
      <point x="274" y="825" type="line"/>
      <point x="341" y="991" type="line"/>
    </contour>
    <contour>
      <point x="165" y="991" type="line"/>
      <point x="232" y="825" type="line"/>
      <point x="264" y="825" type="line"/>
      <point x="190" y="991" type="line"/>
    </contour>
  </outline>
</glyph>
<glyph name="Gcommaaccent" format="1">
  <advance width="577"/>
  <unicode hex="0122"/>
  <outline>
    <contour>
      <point x="472" y="642" type="curve"/>
      <point x="472" y="522"/>
      <point x="472" y="652"/>
      <point x="472" y="532" type="curve"/>
      <point x="495" y="532"/>
      <point x="472" y="532"/>
      <point x="495" y="532" type="curve"/>
      <point x="495" y="652"/>
      <point x="495" y="522"/>
      <point x="495" y="642" type="curve"/>
      <point x="472" y="642"/>
      <point x="495" y="642"/>
    </contour>
    <contour>
      <point x="499" y="320" type="curve"/>
      <point x="448" y="320"/>
      <point x="396" y="320"/>
      <point x="345" y="320" type="curve"/>
      <point x="345" y="297"/>
      <point x="345" y="320"/>
      <point x="345" y="297" type="curve"/>
      <point x="396" y="297"/>
      <point x="448" y="297"/>
      <point x="499" y="297" type="curve"/>
      <point x="499" y="320"/>
      <point x="499" y="297"/>
    </contour>
    <contour>
      <point x="507" y="77" type="curve"/>
      <point x="507" y="158"/>
      <point x="507" y="238"/>
      <point x="507" y="320" type="curve"/>
      <point x="484" y="320"/>
      <point x="507" y="320"/>
      <point x="484" y="320" type="curve"/>
      <point x="484" y="238"/>
      <point x="484" y="158"/>
      <point x="484" y="77" type="curve"/>
      <point x="507" y="77"/>
      <point x="484" y="77"/>
    </contour>
    <contour>
      <point x="495" y="642" type="curve"/>
      <point x="437" y="696"/>
      <point x="378" y="727"/>
      <point x="299" y="727" type="curve"/>
      <point x="119" y="727"/>
      <point x="64" y="570"/>
      <point x="64" y="365" type="curve"/>
      <point x="64" y="154"/>
      <point x="122" y="-5"/>
      <point x="307" y="-5" type="curve"/>
      <point x="391" y="-5"/>
      <point x="442" y="24"/>
      <point x="507" y="77" type="curve"/>
      <point x="491" y="98"/>
      <point x="507" y="77"/>
      <point x="491" y="98" type="curve"/>
      <point x="447" y="56"/>
      <point x="383" y="20"/>
      <point x="307" y="20" type="curve"/>
      <point x="136" y="20"/>
      <point x="90" y="172"/>
      <point x="90" y="367" type="curve"/>
      <point x="90" y="554"/>
      <point x="136" y="702"/>
      <point x="299" y="702" type="curve"/>
      <point x="372" y="702"/>
      <point x="427" y="673"/>
      <point x="482" y="623" type="curve"/>
      <point x="495" y="642"/>
      <point x="482" y="623"/>
    </contour>
    <contour>
      <point x="271" y="-213" type="line"/>
      <point x="296" y="-189"/>
      <point x="315" y="-162"/>
      <point x="315" y="-114" type="curve"/>
      <point x="315" y="-93"/>
      <point x="312" y="-76"/>
      <point x="294" y="-76" type="curve"/>
      <point x="280" y="-76"/>
      <point x="273" y="-82"/>
      <point x="273" y="-95" type="curve"/>
      <point x="273" y="-105"/>
      <point x="277" y="-111"/>
      <point x="288" y="-116" type="curve"/>
      <point x="288" y="-137"/>
      <point x="279" y="-172"/>
      <point x="255" y="-195" type="curve"/>
    </contour>
  </outline>
</glyph>
<glyph name="Idotaccent" format="1">
  <advance width="304"/>
  <unicode hex="0130"/>
  <outline>
    <contour>
      <point x="152" y="722" type="curve"/>
      <point x="108" y="722"/>
      <point x="84" y="722"/>
      <point x="40" y="722" type="curve"/>
      <point x="40" y="699"/>
      <point x="40" y="722"/>
      <point x="40" y="699" type="curve"/>
      <point x="172" y="699"/>
      <point x="20" y="699"/>
      <point x="152" y="699" type="curve"/>
      <point x="152" y="722"/>
      <point x="152" y="699"/>
    </contour>
    <contour>
      <point x="152" y="699" type="curve"/>
      <point x="285" y="699"/>
      <point x="132" y="699"/>
      <point x="265" y="699" type="curve"/>
      <point x="265" y="722"/>
      <point x="265" y="699"/>
      <point x="265" y="722" type="curve"/>
      <point x="220" y="722"/>
      <point x="196" y="722"/>
      <point x="152" y="722" type="curve"/>
      <point x="152" y="699"/>
      <point x="152" y="722"/>
    </contour>
    <contour>
      <point x="152" y="0" type="curve"/>
      <point x="196" y="0"/>
      <point x="220" y="0"/>
      <point x="265" y="0" type="curve"/>
      <point x="265" y="23"/>
      <point x="265" y="0"/>
      <point x="265" y="23" type="curve"/>
      <point x="132" y="23"/>
      <point x="285" y="23"/>
      <point x="152" y="23" type="curve"/>
      <point x="152" y="0"/>
      <point x="152" y="23"/>
    </contour>
    <contour>
      <point x="152" y="23" type="curve"/>
      <point x="20" y="23"/>
      <point x="172" y="23"/>
      <point x="40" y="23" type="curve"/>
      <point x="40" y="0"/>
      <point x="40" y="23"/>
      <point x="40" y="0" type="curve"/>
      <point x="84" y="0"/>
      <point x="108" y="0"/>
      <point x="152" y="0" type="curve"/>
      <point x="152" y="23"/>
      <point x="152" y="0"/>
    </contour>
    <contour>
      <point x="165" y="0" type="curve"/>
      <point x="165" y="241"/>
      <point x="165" y="481"/>
      <point x="165" y="722" type="curve"/>
      <point x="140" y="722"/>
      <point x="165" y="722"/>
      <point x="140" y="722" type="curve"/>
      <point x="140" y="481"/>
      <point x="140" y="241"/>
      <point x="140" y="0" type="curve"/>
      <point x="165" y="0"/>
      <point x="140" y="0"/>
    </contour>
    <contour>
      <point x="171" y="839" type="curve"/>
      <point x="171" y="850"/>
      <point x="164" y="857"/>
      <point x="152" y="857" type="curve"/>
      <point x="141" y="857"/>
      <point x="135" y="849"/>
      <point x="135" y="839" type="curve"/>
      <point x="171" y="839"/>
      <point x="135" y="839"/>
      <point x="171" y="839" type="curve"/>
      <point x="171" y="828"/>
      <point x="164" y="821"/>
      <point x="152" y="821" type="curve"/>
      <point x="141" y="821"/>
      <point x="135" y="828"/>
      <point x="135" y="839" type="curve"/>
      <point x="171" y="839"/>
      <point x="135" y="839"/>
    </contour>
  </outline>
</glyph>
<glyph name="dotlessi" format="1">
  <advance width="261"/>
  <unicode hex="0131"/>
  <outline>
    <contour>
      <point x="144" y="670" type="move" name="top"/>
    </contour>
    <contour>
      <point x="146" y="23" type="curve"/>
      <point x="25" y="23"/>
      <point x="155" y="23"/>
      <point x="34" y="23" type="curve"/>
      <point x="34" y="0"/>
      <point x="34" y="23"/>
      <point x="34" y="0" type="curve"/>
      <point x="74" y="0"/>
      <point x="106" y="0"/>
      <point x="146" y="0" type="curve"/>
      <point x="146" y="23"/>
      <point x="146" y="0"/>
    </contour>
    <contour>
      <point x="146" y="0" type="curve"/>
      <point x="183" y="0"/>
      <point x="214" y="0"/>
      <point x="252" y="0" type="curve"/>
      <point x="252" y="23"/>
      <point x="252" y="0"/>
      <point x="252" y="23" type="curve"/>
      <point x="138" y="23"/>
      <point x="261" y="23"/>
      <point x="146" y="23" type="curve"/>
      <point x="146" y="0"/>
      <point x="146" y="23"/>
    </contour>
    <contour>
      <point x="146" y="533" type="curve"/>
      <point x="106" y="533"/>
      <point x="74" y="533"/>
      <point x="34" y="533" type="curve"/>
      <point x="34" y="510"/>
      <point x="34" y="533"/>
      <point x="34" y="510" type="curve"/>
      <point x="155" y="510"/>
      <point x="25" y="510"/>
      <point x="146" y="510" type="curve"/>
      <point x="146" y="533"/>
      <point x="146" y="510"/>
    </contour>
    <contour>
      <point x="160" y="0" type="curve"/>
      <point x="160" y="178"/>
      <point x="160" y="355"/>
      <point x="160" y="533" type="curve"/>
      <point x="133" y="533"/>
      <point x="160" y="533"/>
      <point x="133" y="533" type="curve"/>
      <point x="133" y="355"/>
      <point x="133" y="178"/>
      <point x="133" y="0" type="curve"/>
      <point x="160" y="0"/>
      <point x="133" y="0"/>
    </contour>
  </outline>
</glyph>
<glyph name="kcommaaccent" format="1">
  <advance width="454"/>
  <unicode hex="0137"/>
  <outline>
    <contour>
      <point x="119" y="23" type="curve"/>
      <point x="-2" y="23"/>
      <point x="128" y="23"/>
      <point x="7" y="23" type="curve"/>
      <point x="7" y="0"/>
      <point x="7" y="23"/>
      <point x="7" y="0" type="curve"/>
      <point x="47" y="0"/>
      <point x="79" y="0"/>
      <point x="119" y="0" type="curve"/>
      <point x="119" y="23"/>
      <point x="119" y="0"/>
    </contour>
    <contour>
      <point x="338" y="0" type="curve"/>
      <point x="374" y="0"/>
      <point x="402" y="0"/>
      <point x="439" y="0" type="curve"/>
      <point x="439" y="23"/>
      <point x="439" y="0"/>
      <point x="439" y="23" type="curve"/>
      <point x="330" y="23"/>
      <point x="447" y="23"/>
      <point x="338" y="23" type="curve"/>
      <point x="338" y="0"/>
      <point x="338" y="23"/>
    </contour>
    <contour>
      <point x="320" y="510" type="curve"/>
      <point x="421" y="510"/>
      <point x="312" y="510"/>
      <point x="413" y="510" type="curve"/>
      <point x="413" y="533"/>
      <point x="413" y="510"/>
      <point x="413" y="533" type="curve"/>
      <point x="379" y="533"/>
      <point x="353" y="533"/>
      <point x="320" y="533" type="curve"/>
      <point x="320" y="510"/>
      <point x="320" y="533"/>
    </contour>
    <contour>
      <point x="119" y="0" type="curve"/>
      <point x="153" y="0"/>
      <point x="111" y="0"/>
      <point x="212" y="0" type="curve"/>
      <point x="212" y="23"/>
      <point x="212" y="0"/>
      <point x="212" y="23" type="curve"/>
      <point x="111" y="23"/>
      <point x="220" y="23"/>
      <point x="119" y="23" type="curve"/>
      <point x="119" y="0"/>
      <point x="119" y="23"/>
    </contour>
    <contour>
      <point x="320" y="533" type="curve"/>
      <point x="282" y="533"/>
      <point x="252" y="533"/>
      <point x="213" y="533" type="curve"/>
      <point x="213" y="510"/>
      <point x="213" y="533"/>
      <point x="213" y="510" type="curve"/>
      <point x="329" y="510"/>
      <point x="204" y="510"/>
      <point x="320" y="510" type="curve"/>
      <point x="320" y="533"/>
      <point x="320" y="510"/>
    </contour>
    <contour>
      <point x="120" y="800" type="curve"/>
      <point x="80" y="800"/>
      <point x="48" y="800"/>
      <point x="8" y="800" type="curve"/>
      <point x="8" y="777"/>
      <point x="8" y="800"/>
      <point x="8" y="777" type="curve"/>
      <point x="129" y="777"/>
      <point x="-1" y="777"/>
      <point x="120" y="777" type="curve"/>
      <point x="120" y="800"/>
      <point x="120" y="777"/>
    </contour>
    <contour>
      <point x="132" y="0" type="curve"/>
      <point x="132" y="800" type="line"/>
      <point x="107" y="800"/>
      <point x="132" y="800"/>
      <point x="107" y="800" type="curve"/>
      <point x="107" y="533"/>
      <point x="107" y="267"/>
      <point x="107" y="0" type="curve"/>
      <point x="132" y="0"/>
      <point x="107" y="0"/>
    </contour>
    <contour>
      <point x="313" y="533" type="curve"/>
      <point x="118" y="275" type="line"/>
      <point x="155" y="275"/>
      <point x="114" y="275"/>
      <point x="151" y="275" type="curve"/>
      <point x="346" y="532" type="line"/>
      <point x="309" y="532"/>
      <point x="350" y="533"/>
    </contour>
    <contour>
      <point x="364" y="1" type="curve"/>
      <point x="151" y="275" type="line"/>
      <point x="114" y="275"/>
      <point x="155" y="275"/>
      <point x="118" y="275" type="curve"/>
      <point x="331" y="0" type="line"/>
      <point x="368" y="0"/>
      <point x="327" y="1"/>
    </contour>
    <contour>
      <point x="237" y="-213" type="line"/>
      <point x="261" y="-189"/>
      <point x="281" y="-162"/>
      <point x="281" y="-114" type="curve"/>
      <point x="281" y="-93"/>
      <point x="278" y="-76"/>
      <point x="259" y="-76" type="curve"/>
      <point x="246" y="-76"/>
      <point x="239" y="-82"/>
      <point x="239" y="-95" type="curve"/>
      <point x="239" y="-105"/>
      <point x="243" y="-111"/>
      <point x="254" y="-116" type="curve"/>
      <point x="254" y="-137"/>
      <point x="244" y="-172"/>
      <point x="221" y="-195" type="curve"/>
    </contour>
  </outline>
</glyph>
<glyph name="Lcommaaccent" format="1">
  <advance width="487"/>
  <unicode hex="013B"/>
  <outline>
    <contour>
      <point x="447" y="11" type="curve"/>
      <point x="447" y="131"/>
      <point x="447" y="2"/>
      <point x="447" y="122" type="curve"/>
      <point x="425" y="122"/>
      <point x="447" y="122"/>
      <point x="425" y="122" type="curve"/>
      <point x="425" y="2"/>
      <point x="425" y="131"/>
      <point x="425" y="11" type="curve"/>
      <point x="447" y="11"/>
      <point x="425" y="11"/>
    </contour>
    <contour>
      <point x="151" y="23" type="curve"/>
      <point x="19" y="23"/>
      <point x="171" y="23"/>
      <point x="39" y="23" type="curve"/>
      <point x="39" y="0"/>
      <point x="39" y="23"/>
      <point x="39" y="0" type="curve"/>
      <point x="83" y="0"/>
      <point x="107" y="0"/>
      <point x="151" y="0" type="curve"/>
      <point x="151" y="23"/>
      <point x="151" y="0"/>
    </contour>
    <contour>
      <point x="151" y="722" type="curve"/>
      <point x="107" y="722"/>
      <point x="83" y="722"/>
      <point x="39" y="722" type="curve"/>
      <point x="39" y="699"/>
      <point x="39" y="722"/>
      <point x="39" y="699" type="curve"/>
      <point x="171" y="699"/>
      <point x="19" y="699"/>
      <point x="151" y="699" type="curve"/>
      <point x="151" y="722"/>
      <point x="151" y="699"/>
    </contour>
    <contour>
      <point x="151" y="699" type="curve"/>
      <point x="283" y="699"/>
      <point x="131" y="699"/>
      <point x="264" y="699" type="curve"/>
      <point x="264" y="722"/>
      <point x="264" y="699"/>
      <point x="264" y="722" type="curve"/>
      <point x="219" y="722"/>
      <point x="195" y="722"/>
      <point x="151" y="722" type="curve"/>
      <point x="151" y="699"/>
      <point x="151" y="722"/>
    </contour>
    <contour>
      <point x="165" y="0" type="curve"/>
      <point x="165" y="241"/>
      <point x="165" y="481"/>
      <point x="165" y="722" type="curve"/>
      <point x="140" y="722"/>
      <point x="165" y="722"/>
      <point x="140" y="722" type="curve"/>
      <point x="140" y="481"/>
      <point x="140" y="241"/>
      <point x="140" y="0" type="curve"/>
      <point x="165" y="0"/>
      <point x="140" y="0"/>
    </contour>
    <contour>
      <point x="151" y="0" type="curve"/>
      <point x="250" y="0"/>
      <point x="348" y="0"/>
      <point x="447" y="0" type="curve"/>
      <point x="447" y="23"/>
      <point x="447" y="0"/>
      <point x="447" y="23" type="curve"/>
      <point x="348" y="23"/>
      <point x="250" y="23"/>
      <point x="151" y="23" type="curve"/>
      <point x="151" y="0"/>
      <point x="151" y="23"/>
    </contour>
    <contour>
      <point x="251" y="-212" type="line"/>
      <point x="276" y="-188"/>
      <point x="296" y="-161"/>
      <point x="296" y="-113" type="curve"/>
      <point x="296" y="-92"/>
      <point x="292" y="-75"/>
      <point x="274" y="-75" type="curve"/>
      <point x="261" y="-75"/>
      <point x="253" y="-81"/>
      <point x="253" y="-94" type="curve"/>
      <point x="253" y="-104"/>
      <point x="258" y="-110"/>
      <point x="269" y="-115" type="curve"/>
      <point x="269" y="-136"/>
      <point x="259" y="-171"/>
      <point x="235" y="-194" type="curve"/>
    </contour>
  </outline>
</glyph>
<glyph name="Lcaron" format="1">
  <advance width="489"/>
  <unicode hex="013D"/>
  <outline>
    <contour>
      <point x="447" y="11" type="curve"/>
      <point x="447" y="131"/>
      <point x="447" y="2"/>
      <point x="447" y="122" type="curve"/>
      <point x="425" y="122"/>
      <point x="447" y="122"/>
      <point x="425" y="122" type="curve"/>
      <point x="425" y="2"/>
      <point x="425" y="131"/>
      <point x="425" y="11" type="curve"/>
      <point x="447" y="11"/>
      <point x="425" y="11"/>
    </contour>
    <contour>
      <point x="151" y="23" type="curve"/>
      <point x="19" y="23"/>
      <point x="171" y="23"/>
      <point x="39" y="23" type="curve"/>
      <point x="39" y="0"/>
      <point x="39" y="23"/>
      <point x="39" y="0" type="curve"/>
      <point x="83" y="0"/>
      <point x="107" y="0"/>
      <point x="151" y="0" type="curve"/>
      <point x="151" y="23"/>
      <point x="151" y="0"/>
    </contour>
    <contour>
      <point x="151" y="722" type="curve"/>
      <point x="107" y="722"/>
      <point x="83" y="722"/>
      <point x="39" y="722" type="curve"/>
      <point x="39" y="699"/>
      <point x="39" y="722"/>
      <point x="39" y="699" type="curve"/>
      <point x="171" y="699"/>
      <point x="19" y="699"/>
      <point x="151" y="699" type="curve"/>
      <point x="151" y="722"/>
      <point x="151" y="699"/>
    </contour>
    <contour>
      <point x="151" y="699" type="curve"/>
      <point x="283" y="699"/>
      <point x="131" y="699"/>
      <point x="264" y="699" type="curve"/>
      <point x="264" y="722"/>
      <point x="264" y="699"/>
      <point x="264" y="722" type="curve"/>
      <point x="219" y="722"/>
      <point x="195" y="722"/>
      <point x="151" y="722" type="curve"/>
      <point x="151" y="699"/>
      <point x="151" y="722"/>
    </contour>
    <contour>
      <point x="165" y="0" type="curve"/>
      <point x="165" y="241"/>
      <point x="165" y="481"/>
      <point x="165" y="722" type="curve"/>
      <point x="140" y="722"/>
      <point x="165" y="722"/>
      <point x="140" y="722" type="curve"/>
      <point x="140" y="481"/>
      <point x="140" y="241"/>
      <point x="140" y="0" type="curve"/>
      <point x="165" y="0"/>
      <point x="140" y="0"/>
    </contour>
    <contour>
      <point x="151" y="0" type="curve"/>
      <point x="250" y="0"/>
      <point x="348" y="0"/>
      <point x="447" y="0" type="curve"/>
      <point x="447" y="23"/>
      <point x="447" y="0"/>
      <point x="447" y="23" type="curve"/>
      <point x="348" y="23"/>
      <point x="250" y="23"/>
      <point x="151" y="23" type="curve"/>
      <point x="151" y="0"/>
      <point x="151" y="23"/>
    </contour>
    <contour>
      <point x="396" y="590" type="line"/>
      <point x="421" y="614"/>
      <point x="441" y="641"/>
      <point x="441" y="689" type="curve"/>
      <point x="441" y="709"/>
      <point x="437" y="727"/>
      <point x="419" y="727" type="curve"/>
      <point x="406" y="727"/>
      <point x="398" y="720"/>
      <point x="398" y="708" type="curve"/>
      <point x="398" y="698"/>
      <point x="403" y="692"/>
      <point x="414" y="687" type="curve"/>
      <point x="414" y="666"/>
      <point x="404" y="630"/>
      <point x="381" y="608" type="curve"/>
    </contour>
  </outline>
</glyph>
<glyph name="lcaron" format="1">
  <advance width="273"/>
  <unicode hex="013E"/>
  <outline>
    <contour>
      <point x="130" y="23" type="curve"/>
      <point x="8" y="23"/>
      <point x="130" y="23"/>
      <point x="8" y="23" type="curve"/>
      <point x="8" y="0"/>
      <point x="8" y="23"/>
      <point x="8" y="0" type="curve"/>
      <point x="49" y="0"/>
      <point x="89" y="0"/>
      <point x="130" y="0" type="curve"/>
      <point x="130" y="23"/>
      <point x="130" y="0"/>
    </contour>
    <contour>
      <point x="131" y="800" type="curve"/>
      <point x="90" y="800"/>
      <point x="50" y="800"/>
      <point x="9" y="800" type="curve"/>
      <point x="9" y="777"/>
      <point x="9" y="800"/>
      <point x="9" y="777" type="curve"/>
      <point x="131" y="777"/>
      <point x="9" y="777"/>
      <point x="131" y="777" type="curve"/>
      <point x="131" y="800"/>
      <point x="131" y="777"/>
    </contour>
    <contour>
      <point x="130" y="0" type="curve"/>
      <point x="171" y="0"/>
      <point x="211" y="0"/>
      <point x="252" y="0" type="curve"/>
      <point x="252" y="23"/>
      <point x="252" y="0"/>
      <point x="252" y="23" type="curve"/>
      <point x="130" y="23"/>
      <point x="252" y="23"/>
      <point x="130" y="23" type="curve"/>
      <point x="130" y="0"/>
      <point x="130" y="23"/>
    </contour>
    <contour>
      <point x="142" y="0" type="curve"/>
      <point x="142" y="267"/>
      <point x="142" y="533"/>
      <point x="142" y="800" type="curve"/>
      <point x="117" y="800"/>
      <point x="142" y="800"/>
      <point x="117" y="800" type="curve"/>
      <point x="117" y="533"/>
      <point x="117" y="267"/>
      <point x="117" y="0" type="curve"/>
      <point x="142" y="0"/>
      <point x="117" y="0"/>
    </contour>
    <contour>
      <point x="266" y="675" type="line"/>
      <point x="291" y="699"/>
      <point x="310" y="726"/>
      <point x="310" y="774" type="curve"/>
      <point x="310" y="794"/>
      <point x="307" y="812"/>
      <point x="289" y="812" type="curve"/>
      <point x="275" y="812"/>
      <point x="268" y="805"/>
      <point x="268" y="793" type="curve"/>
      <point x="268" y="783"/>
      <point x="272" y="777"/>
      <point x="284" y="772" type="curve"/>
      <point x="284" y="751"/>
      <point x="274" y="715"/>
      <point x="250" y="692" type="curve"/>
    </contour>
  </outline>
</glyph>
<glyph name="lslash" format="1">
  <advance width="266"/>
  <unicode hex="0142"/>
  <outline>
    <contour>
      <point x="33" y="328" type="curve"/>
      <point x="101" y="385"/>
      <point x="169" y="442"/>
      <point x="236" y="499" type="curve"/>
      <point x="236" y="531"/>
      <point x="236" y="499"/>
      <point x="236" y="531" type="curve"/>
      <point x="169" y="474"/>
      <point x="101" y="417"/>
      <point x="33" y="361" type="curve"/>
      <point x="33" y="328"/>
      <point x="33" y="361"/>
    </contour>
    <contour>
      <point x="134" y="23" type="curve"/>
      <point x="12" y="23"/>
      <point x="134" y="23"/>
      <point x="12" y="23" type="curve"/>
      <point x="12" y="0"/>
      <point x="12" y="23"/>
      <point x="12" y="0" type="curve"/>
      <point x="53" y="0"/>
      <point x="93" y="0"/>
      <point x="134" y="0" type="curve"/>
      <point x="134" y="23"/>
      <point x="134" y="0"/>
    </contour>
    <contour>
      <point x="135" y="800" type="curve"/>
      <point x="94" y="800"/>
      <point x="54" y="800"/>
      <point x="13" y="800" type="curve"/>
      <point x="13" y="777"/>
      <point x="13" y="800"/>
      <point x="13" y="777" type="curve"/>
      <point x="135" y="777"/>
      <point x="13" y="777"/>
      <point x="135" y="777" type="curve"/>
      <point x="135" y="800"/>
      <point x="135" y="777"/>
    </contour>
    <contour>
      <point x="134" y="0" type="curve"/>
      <point x="175" y="0"/>
      <point x="215" y="0"/>
      <point x="256" y="0" type="curve"/>
      <point x="256" y="23"/>
      <point x="256" y="0"/>
      <point x="256" y="23" type="curve"/>
      <point x="134" y="23"/>
      <point x="256" y="23"/>
      <point x="134" y="23" type="curve"/>
      <point x="134" y="0"/>
      <point x="134" y="23"/>
    </contour>
    <contour>
      <point x="146" y="0" type="curve"/>
      <point x="146" y="267"/>
      <point x="146" y="533"/>
      <point x="146" y="800" type="curve"/>
      <point x="121" y="800"/>
      <point x="146" y="800"/>
      <point x="121" y="800" type="curve"/>
      <point x="121" y="533"/>
      <point x="121" y="267"/>
      <point x="121" y="0" type="curve"/>
      <point x="146" y="0"/>
      <point x="121" y="0"/>
    </contour>
  </outline>
</glyph>
<glyph name="ohungarumlaut" format="1">
  <advance width="455"/>
  <unicode hex="0151"/>
  <outline>
    <contour>
      <point x="89" y="268" type="curve"/>
      <point x="89" y="405"/>
      <point x="115" y="516"/>
      <point x="225" y="516" type="curve"/>
      <point x="341" y="516"/>
      <point x="366" y="403"/>
      <point x="366" y="266" type="curve"/>
      <point x="366" y="130"/>
      <point x="340" y="18"/>
      <point x="228" y="18" type="curve"/>
      <point x="109" y="18"/>
      <point x="89" y="131"/>
      <point x="89" y="268" type="curve"/>
      <point x="65" y="268"/>
      <point x="87" y="268"/>
      <point x="64" y="268" type="curve"/>
      <point x="64" y="117"/>
      <point x="95" y="-5"/>
      <point x="227" y="-5" type="curve"/>
      <point x="359" y="-5"/>
      <point x="391" y="115"/>
      <point x="391" y="266" type="curve"/>
      <point x="391" y="417"/>
      <point x="359" y="538"/>
      <point x="226" y="538" type="curve"/>
      <point x="96" y="538"/>
      <point x="64" y="417"/>
      <point x="64" y="268" type="curve"/>
      <point x="87" y="268"/>
      <point x="65" y="268"/>
    </contour>
    <contour>
      <point x="172" y="697" type="line"/>
      <point x="246" y="863" type="line"/>
      <point x="214" y="863" type="line"/>
      <point x="147" y="697" type="line"/>
    </contour>
    <contour>
      <point x="274" y="697" type="line"/>
      <point x="347" y="863" type="line"/>
      <point x="315" y="863" type="line"/>
      <point x="248" y="697" type="line"/>
    </contour>
  </outline>
</glyph>
<glyph name="Racute" format="1">
  <advance width="599"/>
  <unicode hex="0154"/>
  <outline>
    <contour>
      <point x="467" y="0" type="curve"/>
      <point x="511" y="0"/>
      <point x="535" y="0"/>
      <point x="579" y="0" type="curve"/>
      <point x="579" y="23"/>
      <point x="579" y="0"/>
      <point x="579" y="23" type="curve"/>
      <point x="447" y="23"/>
      <point x="599" y="23"/>
      <point x="467" y="23" type="curve"/>
      <point x="467" y="0"/>
      <point x="467" y="23"/>
    </contour>
    <contour>
      <point x="151" y="722" type="curve"/>
      <point x="107" y="722"/>
      <point x="83" y="722"/>
      <point x="39" y="722" type="curve"/>
      <point x="39" y="699"/>
      <point x="39" y="722"/>
      <point x="39" y="699" type="curve"/>
      <point x="171" y="699"/>
      <point x="19" y="699"/>
      <point x="151" y="699" type="curve"/>
      <point x="151" y="722"/>
      <point x="151" y="699"/>
    </contour>
    <contour>
      <point x="151" y="23" type="curve"/>
      <point x="19" y="23"/>
      <point x="171" y="23"/>
      <point x="39" y="23" type="curve"/>
      <point x="39" y="0"/>
      <point x="39" y="23"/>
      <point x="39" y="0" type="curve"/>
      <point x="83" y="0"/>
      <point x="107" y="0"/>
      <point x="151" y="0" type="curve"/>
      <point x="151" y="23"/>
      <point x="151" y="0"/>
    </contour>
    <contour>
      <point x="151" y="0" type="curve"/>
      <point x="195" y="0"/>
      <point x="132" y="0"/>
      <point x="265" y="0" type="curve"/>
      <point x="265" y="23"/>
      <point x="265" y="0"/>
      <point x="265" y="23" type="curve"/>
      <point x="132" y="23"/>
      <point x="284" y="23"/>
      <point x="151" y="23" type="curve"/>
      <point x="151" y="0"/>
      <point x="151" y="23"/>
    </contour>
    <contour>
      <point x="282" y="354" type="curve"/>
      <point x="342" y="236"/>
      <point x="402" y="118"/>
      <point x="461" y="0" type="curve"/>
      <point x="491" y="0"/>
      <point x="459" y="0"/>
      <point x="489" y="0" type="curve"/>
      <point x="430" y="118"/>
      <point x="370" y="236"/>
      <point x="310" y="354" type="curve"/>
      <point x="280" y="354"/>
      <point x="312" y="354"/>
    </contour>
    <contour>
      <point x="165" y="0" type="curve"/>
      <point x="165" y="241"/>
      <point x="165" y="481"/>
      <point x="165" y="722" type="curve"/>
      <point x="140" y="722"/>
      <point x="165" y="722"/>
      <point x="140" y="722" type="curve"/>
      <point x="140" y="481"/>
      <point x="140" y="241"/>
      <point x="140" y="0" type="curve"/>
      <point x="165" y="0"/>
      <point x="140" y="0"/>
    </contour>
    <contour>
      <point x="154" y="340" type="curve"/>
      <point x="194" y="340"/>
      <point x="233" y="340"/>
      <point x="273" y="340" type="curve"/>
      <point x="381" y="340"/>
      <point x="431" y="420"/>
      <point x="431" y="537" type="curve"/>
      <point x="431" y="650"/>
      <point x="378" y="722"/>
      <point x="270" y="722" type="curve"/>
      <point x="228" y="722"/>
      <point x="196" y="722"/>
      <point x="154" y="722" type="curve"/>
      <point x="154" y="699"/>
      <point x="154" y="722"/>
      <point x="154" y="699" type="curve"/>
      <point x="194" y="699"/>
      <point x="225" y="699"/>
      <point x="266" y="699" type="curve"/>
      <point x="360" y="699"/>
      <point x="405" y="634"/>
      <point x="405" y="535" type="curve"/>
      <point x="405" y="434"/>
      <point x="367" y="362"/>
      <point x="276" y="362" type="curve"/>
      <point x="236" y="362"/>
      <point x="194" y="362"/>
      <point x="154" y="362" type="curve"/>
      <point x="154" y="340"/>
      <point x="154" y="362"/>
    </contour>
    <contour>
      <point x="254" y="825" type="line"/>
      <point x="328" y="991" type="line"/>
      <point x="295" y="991" type="line"/>
      <point x="229" y="825" type="line"/>
    </contour>
  </outline>
</glyph>
<glyph name="racute" format="1">
  <advance width="351"/>
  <unicode hex="0155"/>
  <outline>
    <contour>
      <point x="146" y="0" type="curve"/>
      <point x="184" y="0"/>
      <point x="215" y="0"/>
      <point x="252" y="0" type="curve"/>
      <point x="252" y="23"/>
      <point x="252" y="0"/>
      <point x="252" y="23" type="curve"/>
      <point x="137" y="23"/>
      <point x="261" y="23"/>
      <point x="146" y="23" type="curve"/>
      <point x="146" y="0"/>
      <point x="146" y="23"/>
    </contour>
    <contour>
      <point x="146" y="23" type="curve"/>
      <point x="25" y="23"/>
      <point x="155" y="23"/>
      <point x="34" y="23" type="curve"/>
      <point x="34" y="0"/>
      <point x="34" y="23"/>
      <point x="34" y="0" type="curve"/>
      <point x="74" y="0"/>
      <point x="106" y="0"/>
      <point x="146" y="0" type="curve"/>
      <point x="146" y="23"/>
      <point x="146" y="0"/>
    </contour>
    <contour>
      <point x="146" y="533" type="curve"/>
      <point x="106" y="533"/>
      <point x="74" y="533"/>
      <point x="34" y="533" type="curve"/>
      <point x="34" y="510"/>
      <point x="34" y="533"/>
      <point x="34" y="510" type="curve"/>
      <point x="155" y="510"/>
      <point x="25" y="510"/>
      <point x="146" y="510" type="curve"/>
      <point x="146" y="533"/>
      <point x="146" y="510"/>
    </contour>
    <contour>
      <point x="159" y="0" type="curve"/>
      <point x="159" y="178"/>
      <point x="159" y="355"/>
      <point x="159" y="533" type="curve"/>
      <point x="134" y="533"/>
      <point x="159" y="533"/>
      <point x="134" y="533" type="curve"/>
      <point x="134" y="355"/>
      <point x="134" y="178"/>
      <point x="134" y="0" type="curve"/>
      <point x="159" y="0"/>
      <point x="134" y="0"/>
    </contour>
    <contour>
      <point x="153" y="370" type="curve"/>
      <point x="169" y="455"/>
      <point x="243" y="515"/>
      <point x="322" y="515" type="curve"/>
      <point x="322" y="543"/>
      <point x="322" y="510"/>
      <point x="322" y="538" type="curve"/>
      <point x="235" y="538"/>
      <point x="162" y="483"/>
      <point x="140" y="393" type="curve"/>
      <point x="154" y="380"/>
      <point x="144" y="381"/>
    </contour>
    <contour>
      <point x="160" y="670" type="line"/>
      <point x="234" y="836" type="line"/>
      <point x="201" y="836" type="line"/>
      <point x="135" y="670" type="line"/>
    </contour>
  </outline>
</glyph>
<glyph name="rcaron" format="1">
  <advance width="349"/>
  <unicode hex="0159"/>
  <outline>
    <contour>
      <point x="143" y="0" type="curve"/>
      <point x="182" y="0"/>
      <point x="212" y="0"/>
      <point x="249" y="0" type="curve"/>
      <point x="249" y="23"/>
      <point x="249" y="0"/>
      <point x="249" y="23" type="curve"/>
      <point x="135" y="23"/>
      <point x="258" y="23"/>
      <point x="143" y="23" type="curve"/>
      <point x="143" y="0"/>
      <point x="143" y="23"/>
    </contour>
    <contour>
      <point x="143" y="23" type="curve"/>
      <point x="22" y="23"/>
      <point x="152" y="23"/>
      <point x="31" y="23" type="curve"/>
      <point x="31" y="0"/>
      <point x="31" y="23"/>
      <point x="31" y="0" type="curve"/>
      <point x="72" y="0"/>
      <point x="103" y="0"/>
      <point x="143" y="0" type="curve"/>
      <point x="143" y="23"/>
      <point x="143" y="0"/>
    </contour>
    <contour>
      <point x="143" y="533" type="curve"/>
      <point x="103" y="533"/>
      <point x="72" y="533"/>
      <point x="31" y="533" type="curve"/>
      <point x="31" y="510"/>
      <point x="31" y="533"/>
      <point x="31" y="510" type="curve"/>
      <point x="152" y="510"/>
      <point x="22" y="510"/>
      <point x="143" y="510" type="curve"/>
      <point x="143" y="533"/>
      <point x="143" y="510"/>
    </contour>
    <contour>
      <point x="156" y="0" type="curve"/>
      <point x="156" y="178"/>
      <point x="156" y="355"/>
      <point x="156" y="533" type="curve"/>
      <point x="131" y="533"/>
      <point x="156" y="533"/>
      <point x="131" y="533" type="curve"/>
      <point x="131" y="355"/>
      <point x="131" y="178"/>
      <point x="131" y="0" type="curve"/>
      <point x="156" y="0"/>
      <point x="131" y="0"/>
    </contour>
    <contour>
      <point x="150" y="370" type="curve"/>
      <point x="167" y="455"/>
      <point x="240" y="515"/>
      <point x="319" y="515" type="curve"/>
      <point x="319" y="543"/>
      <point x="319" y="510"/>
      <point x="319" y="538" type="curve"/>
      <point x="232" y="538"/>
      <point x="159" y="483"/>
      <point x="137" y="393" type="curve"/>
      <point x="151" y="380"/>
      <point x="142" y="381"/>
    </contour>
    <contour>
      <point x="209" y="836" type="line"/>
      <point x="135" y="670" type="line"/>
      <point x="167" y="670" type="line"/>
      <point x="234" y="836" type="line"/>
    </contour>
    <contour>
      <point x="58" y="836" type="line"/>
      <point x="125" y="670" type="line"/>
      <point x="157" y="670" type="line"/>
      <point x="83" y="836" type="line"/>
    </contour>
  </outline>
</glyph>
<glyph name="Scedilla" format="1">
  <advance width="444"/>
  <unicode hex="015E"/>
  <outline>
    <contour>
      <point x="326" y="663" type="curve"/>
      <point x="326" y="543"/>
      <point x="326" y="673"/>
      <point x="326" y="553" type="curve"/>
      <point x="349" y="553"/>
      <point x="326" y="553"/>
      <point x="349" y="553" type="curve"/>
      <point x="349" y="673"/>
      <point x="349" y="543"/>
      <point x="349" y="663" type="curve"/>
      <point x="326" y="663"/>
      <point x="349" y="663"/>
    </contour>
    <contour>
      <point x="93" y="58" type="curve"/>
      <point x="93" y="178"/>
      <point x="93" y="48"/>
      <point x="93" y="168" type="curve"/>
      <point x="70" y="168"/>
      <point x="93" y="168"/>
      <point x="70" y="168" type="curve"/>
      <point x="70" y="48"/>
      <point x="70" y="178"/>
      <point x="70" y="58" type="curve"/>
      <point x="93" y="58"/>
      <point x="70" y="58"/>
    </contour>
    <contour>
      <point x="70" y="58" type="curve"/>
      <point x="102" y="25"/>
      <point x="149" y="-5"/>
      <point x="208" y="-5" type="curve"/>
      <point x="313" y="-5"/>
      <point x="372" y="62"/>
      <point x="372" y="169" type="curve"/>
      <point x="372" y="273"/>
      <point x="318" y="328"/>
      <point x="233" y="388" type="curve"/>
      <point x="161" y="437"/>
      <point x="111" y="479"/>
      <point x="111" y="563" type="curve"/>
      <point x="111" y="644"/>
      <point x="147" y="703"/>
      <point x="220" y="703" type="curve"/>
      <point x="268" y="703"/>
      <point x="314" y="672"/>
      <point x="336" y="644" type="curve"/>
      <point x="342" y="652"/>
      <point x="344" y="656"/>
      <point x="349" y="663" type="curve"/>
      <point x="315" y="700"/>
      <point x="277" y="726"/>
      <point x="221" y="726" type="curve"/>
      <point x="130" y="726"/>
      <point x="85" y="659"/>
      <point x="85" y="562" type="curve"/>
      <point x="85" y="469"/>
      <point x="138" y="422"/>
      <point x="216" y="368" type="curve"/>
      <point x="295" y="315"/>
      <point x="347" y="264"/>
      <point x="347" y="169" type="curve"/>
      <point x="347" y="83"/>
      <point x="291" y="18"/>
      <point x="211" y="18" type="curve"/>
      <point x="156" y="18"/>
      <point x="114" y="49"/>
      <point x="84" y="79" type="curve"/>
      <point x="78" y="70"/>
      <point x="76" y="67"/>
    </contour>
    <contour>
      <point x="197" y="12" type="curve"/>
      <point x="186" y="-15"/>
      <point x="176" y="-43"/>
      <point x="166" y="-69" type="curve"/>
      <point x="184" y="-87"/>
      <point x="166" y="-69"/>
      <point x="184" y="-87" type="curve"/>
      <point x="194" y="-60"/>
      <point x="206" y="-31"/>
      <point x="216" y="-4" type="curve"/>
      <point x="197" y="12"/>
      <point x="216" y="-4"/>
    </contour>
    <contour>
      <point x="184" y="-87" type="curve"/>
      <point x="193" y="-79"/>
      <point x="200" y="-75"/>
      <point x="213" y="-75" type="curve"/>
      <point x="239" y="-75"/>
      <point x="245" y="-100"/>
      <point x="245" y="-131" type="curve"/>
      <point x="245" y="-163"/>
      <point x="232" y="-186"/>
      <point x="204" y="-186" type="curve"/>
      <point x="185" y="-186"/>
      <point x="171" y="-182"/>
      <point x="157" y="-169" type="curve"/>
      <point x="146" y="-186"/>
      <point x="157" y="-169"/>
      <point x="146" y="-186" type="curve"/>
      <point x="163" y="-201"/>
      <point x="179" y="-208"/>
      <point x="202" y="-208" type="curve"/>
      <point x="247" y="-208"/>
      <point x="271" y="-176"/>
      <point x="271" y="-131" type="curve"/>
      <point x="271" y="-87"/>
      <point x="254" y="-52"/>
      <point x="214" y="-52" type="curve"/>
      <point x="195" y="-52"/>
      <point x="182" y="-58"/>
      <point x="166" y="-69" type="curve"/>
      <point x="184" y="-87"/>
      <point x="166" y="-69"/>
    </contour>
  </outline>
</glyph>
<glyph name="uogonek" format="1">
  <advance width="488"/>
  <unicode hex="0173"/>
  <outline>
    <contour>
      <point x="375" y="533" type="curve"/>
      <point x="335" y="533"/>
      <point x="302" y="533"/>
      <point x="262" y="533" type="curve"/>
      <point x="262" y="510"/>
      <point x="262" y="533"/>
      <point x="262" y="510" type="curve"/>
      <point x="383" y="510"/>
      <point x="253" y="510"/>
      <point x="375" y="510" type="curve"/>
      <point x="375" y="533"/>
      <point x="375" y="510"/>
    </contour>
    <contour>
      <point x="118" y="533" type="curve"/>
      <point x="78" y="533"/>
      <point x="46" y="533"/>
      <point x="6" y="533" type="curve"/>
      <point x="6" y="510"/>
      <point x="6" y="533"/>
      <point x="6" y="510" type="curve"/>
      <point x="127" y="510"/>
      <point x="-3" y="510"/>
      <point x="118" y="510" type="curve"/>
      <point x="118" y="533"/>
      <point x="118" y="510"/>
    </contour>
    <contour>
      <point x="375" y="0" type="curve"/>
      <point x="413" y="0"/>
      <point x="442" y="0"/>
      <point x="480" y="0" type="curve"/>
      <point x="480" y="23"/>
      <point x="480" y="0"/>
      <point x="480" y="23" type="curve"/>
      <point x="366" y="23"/>
      <point x="489" y="23"/>
      <point x="375" y="23" type="curve"/>
      <point x="375" y="0"/>
      <point x="375" y="23"/>
    </contour>
    <contour>
      <point x="387" y="0" type="curve"/>
      <point x="387" y="178"/>
      <point x="387" y="355"/>
      <point x="387" y="533" type="curve"/>
      <point x="362" y="533"/>
      <point x="387" y="533"/>
      <point x="362" y="533" type="curve"/>
      <point x="362" y="355"/>
      <point x="362" y="178"/>
      <point x="362" y="0" type="curve"/>
      <point x="387" y="0"/>
      <point x="362" y="0"/>
    </contour>
    <contour>
      <point x="365" y="172" type="curve"/>
      <point x="347" y="97"/>
      <point x="299" y="18"/>
      <point x="241" y="18" type="curve"/>
      <point x="156" y="18"/>
      <point x="131" y="92"/>
      <point x="131" y="187" type="curve"/>
      <point x="131" y="302"/>
      <point x="131" y="418"/>
      <point x="131" y="533" type="curve"/>
      <point x="106" y="533"/>
      <point x="131" y="533"/>
      <point x="106" y="533" type="curve"/>
      <point x="106" y="417"/>
      <point x="106" y="301"/>
      <point x="106" y="185" type="curve"/>
      <point x="106" y="76"/>
      <point x="138" y="-5"/>
      <point x="241" y="-5" type="curve"/>
      <point x="317" y="-5"/>
      <point x="360" y="76"/>
      <point x="382" y="161" type="curve"/>
      <point x="365" y="173"/>
      <point x="382" y="161"/>
    </contour>
    <contour>
      <point x="378" y="16" type="curve"/>
      <point x="330" y="-9"/>
      <point x="299" y="-45"/>
      <point x="299" y="-99" type="curve"/>
      <point x="299" y="-151"/>
      <point x="322" y="-194"/>
      <point x="369" y="-194" type="curve"/>
      <point x="394" y="-194"/>
      <point x="411" y="-179"/>
      <point x="429" y="-162" type="curve"/>
      <point x="424" y="-156"/>
      <point x="420" y="-154"/>
      <point x="415" y="-148" type="curve"/>
      <point x="401" y="-161"/>
      <point x="389" y="-171"/>
      <point x="371" y="-171" type="curve"/>
      <point x="336" y="-171"/>
      <point x="322" y="-137"/>
      <point x="322" y="-99" type="curve"/>
      <point x="322" y="-54"/>
      <point x="348" y="-23"/>
      <point x="387" y="0" type="curve"/>
      <point x="384" y="6"/>
      <point x="381" y="10"/>
    </contour>
  </outline>
</glyph>
<glyph name="Zdotaccent" format="1">
  <advance width="496"/>
  <unicode hex="017B"/>
  <outline>
    <contour>
      <point x="73" y="711" type="curve"/>
      <point x="73" y="591"/>
      <point x="73" y="720"/>
      <point x="73" y="600" type="curve"/>
      <point x="95" y="600"/>
      <point x="73" y="600"/>
      <point x="95" y="600" type="curve"/>
      <point x="95" y="720"/>
      <point x="95" y="591"/>
      <point x="95" y="711" type="curve"/>
      <point x="73" y="711"/>
      <point x="95" y="711"/>
    </contour>
    <contour>
      <point x="454" y="11" type="curve"/>
      <point x="454" y="131"/>
      <point x="454" y="2"/>
      <point x="454" y="122" type="curve"/>
      <point x="432" y="122"/>
      <point x="454" y="122"/>
      <point x="432" y="122" type="curve"/>
      <point x="432" y="2"/>
      <point x="432" y="131"/>
      <point x="432" y="11" type="curve"/>
      <point x="454" y="11"/>
      <point x="432" y="11"/>
    </contour>
    <contour>
      <point x="73" y="699" type="curve"/>
      <point x="186" y="699"/>
      <point x="300" y="699"/>
      <point x="413" y="699" type="curve"/>
      <point x="411" y="702"/>
      <point x="407" y="704"/>
      <point x="405" y="706" type="curve"/>
      <point x="403" y="707"/>
      <point x="403" y="710"/>
      <point x="401" y="712" type="curve"/>
      <point x="398" y="708"/>
      <point x="396" y="705"/>
      <point x="394" y="701" type="curve"/>
      <point x="41" y="23" type="line"/>
      <point x="41" y="10"/>
      <point x="41" y="23"/>
      <point x="41" y="10" type="curve"/>
      <point x="41" y="0"/>
      <point x="41" y="10"/>
      <point x="41" y="0" type="curve"/>
      <point x="48" y="0"/>
      <point x="41" y="0"/>
      <point x="48" y="0" type="curve"/>
      <point x="454" y="0"/>
      <point x="319" y="0"/>
      <point x="454" y="0" type="curve"/>
      <point x="454" y="23"/>
      <point x="454" y="0"/>
      <point x="454" y="23" type="curve"/>
      <point x="319" y="23"/>
      <point x="183" y="23"/>
      <point x="48" y="23" type="curve"/>
      <point x="50" y="21"/>
      <point x="53" y="19"/>
      <point x="55" y="17" type="curve"/>
      <point x="58" y="16"/>
      <point x="58" y="12"/>
      <point x="61" y="10" type="curve"/>
      <point x="63" y="15"/>
      <point x="66" y="17"/>
      <point x="69" y="21" type="curve"/>
      <point x="422" y="699" type="line"/>
      <point x="422" y="712"/>
      <point x="422" y="699"/>
      <point x="422" y="712" type="curve"/>
      <point x="422" y="722"/>
      <point x="422" y="712"/>
      <point x="422" y="722" type="curve"/>
      <point x="413" y="722"/>
      <point x="422" y="722"/>
      <point x="413" y="722" type="curve"/>
      <point x="300" y="722"/>
      <point x="186" y="722"/>
      <point x="73" y="722" type="curve"/>
      <point x="73" y="699"/>
      <point x="73" y="722"/>
    </contour>
    <contour>
      <point x="257" y="839" type="curve"/>
      <point x="257" y="850"/>
      <point x="250" y="857"/>
      <point x="239" y="857" type="curve"/>
      <point x="227" y="857"/>
      <point x="221" y="849"/>
      <point x="221" y="839" type="curve"/>
      <point x="257" y="839"/>
      <point x="221" y="839"/>
      <point x="257" y="839" type="curve"/>
      <point x="257" y="828"/>
      <point x="250" y="821"/>
      <point x="239" y="821" type="curve"/>
      <point x="227" y="821"/>
      <point x="221" y="828"/>
      <point x="221" y="839" type="curve"/>
      <point x="257" y="839"/>
      <point x="221" y="839"/>
    </contour>
  </outline>
</glyph>
<glyph name="zdotaccent" format="1">
  <advance width="408"/>
  <unicode hex="017C"/>
  <outline>
    <contour>
      <point x="67" y="510" type="curve"/>
      <point x="155" y="510"/>
      <point x="236" y="510"/>
      <point x="324" y="510" type="curve"/>
      <point x="322" y="513"/>
      <point x="320" y="515"/>
      <point x="317" y="517" type="curve"/>
      <point x="315" y="518"/>
      <point x="315" y="521"/>
      <point x="313" y="523" type="curve"/>
      <point x="310" y="519"/>
      <point x="307" y="516"/>
      <point x="305" y="512" type="curve"/>
      <point x="53" y="23" type="line"/>
      <point x="53" y="10"/>
      <point x="53" y="23"/>
      <point x="53" y="10" type="curve"/>
      <point x="53" y="0"/>
      <point x="53" y="10"/>
      <point x="53" y="0" type="curve"/>
      <point x="60" y="0"/>
      <point x="53" y="0"/>
      <point x="60" y="0" type="curve"/>
      <point x="360" y="0"/>
      <point x="258" y="0"/>
      <point x="358" y="0" type="curve"/>
      <point x="358" y="23"/>
      <point x="358" y="0"/>
      <point x="358" y="23" type="curve"/>
      <point x="258" y="23"/>
      <point x="160" y="23"/>
      <point x="60" y="23" type="curve"/>
      <point x="62" y="21"/>
      <point x="66" y="19"/>
      <point x="68" y="17" type="curve"/>
      <point x="70" y="16"/>
      <point x="71" y="12"/>
      <point x="73" y="10" type="curve"/>
      <point x="76" y="15"/>
      <point x="77" y="17"/>
      <point x="79" y="21" type="curve"/>
      <point x="332" y="510" type="line"/>
      <point x="332" y="523"/>
      <point x="332" y="510"/>
      <point x="332" y="523" type="curve"/>
      <point x="332" y="533"/>
      <point x="332" y="523"/>
      <point x="332" y="533" type="curve"/>
      <point x="324" y="533"/>
      <point x="332" y="533"/>
      <point x="324" y="533" type="curve"/>
      <point x="236" y="533"/>
      <point x="155" y="533"/>
      <point x="67" y="533" type="curve"/>
      <point x="67" y="510"/>
      <point x="67" y="533"/>
    </contour>
    <contour>
      <point x="67" y="522" type="curve"/>
      <point x="67" y="402"/>
      <point x="67" y="531"/>
      <point x="67" y="411" type="curve"/>
      <point x="89" y="411"/>
      <point x="67" y="411"/>
      <point x="89" y="411" type="curve"/>
      <point x="89" y="531"/>
      <point x="89" y="402"/>
      <point x="89" y="522" type="curve"/>
      <point x="67" y="522"/>
      <point x="89" y="522"/>
    </contour>
    <contour>
      <point x="358" y="11" type="curve"/>
      <point x="358" y="131"/>
      <point x="358" y="2"/>
      <point x="358" y="122" type="curve"/>
      <point x="335" y="122"/>
      <point x="358" y="122"/>
      <point x="335" y="122" type="curve"/>
      <point x="335" y="2"/>
      <point x="335" y="131"/>
      <point x="335" y="11" type="curve"/>
      <point x="358" y="11"/>
      <point x="335" y="11"/>
    </contour>
    <contour>
      <point x="221" y="685" type="curve"/>
      <point x="221" y="696"/>
      <point x="214" y="703"/>
      <point x="202" y="703" type="curve"/>
      <point x="191" y="703"/>
      <point x="185" y="695"/>
      <point x="185" y="685" type="curve"/>
      <point x="221" y="685"/>
      <point x="185" y="685"/>
      <point x="221" y="685" type="curve"/>
      <point x="221" y="674"/>
      <point x="214" y="667"/>
      <point x="202" y="667" type="curve"/>
      <point x="191" y="667"/>
      <point x="185" y="674"/>
      <point x="185" y="685" type="curve"/>
      <point x="221" y="685"/>
      <point x="185" y="685"/>
    </contour>
  </outline>
</glyph>
<glyph name="Zcaron" format="1">
  <advance width="496"/>
  <unicode hex="017D"/>
  <outline>
    <contour>
      <point x="73" y="711" type="curve"/>
      <point x="73" y="591"/>
      <point x="73" y="720"/>
      <point x="73" y="600" type="curve"/>
      <point x="95" y="600"/>
      <point x="73" y="600"/>
      <point x="95" y="600" type="curve"/>
      <point x="95" y="720"/>
      <point x="95" y="591"/>
      <point x="95" y="711" type="curve"/>
      <point x="73" y="711"/>
      <point x="95" y="711"/>
    </contour>
    <contour>
      <point x="454" y="11" type="curve"/>
      <point x="454" y="131"/>
      <point x="454" y="2"/>
      <point x="454" y="122" type="curve"/>
      <point x="432" y="122"/>
      <point x="454" y="122"/>
      <point x="432" y="122" type="curve"/>
      <point x="432" y="2"/>
      <point x="432" y="131"/>
      <point x="432" y="11" type="curve"/>
      <point x="454" y="11"/>
      <point x="432" y="11"/>
    </contour>
    <contour>
      <point x="73" y="699" type="curve"/>
      <point x="186" y="699"/>
      <point x="300" y="699"/>
      <point x="413" y="699" type="curve"/>
      <point x="411" y="702"/>
      <point x="407" y="704"/>
      <point x="405" y="706" type="curve"/>
      <point x="403" y="707"/>
      <point x="403" y="710"/>
      <point x="401" y="712" type="curve"/>
      <point x="398" y="708"/>
      <point x="396" y="705"/>
      <point x="394" y="701" type="curve"/>
      <point x="41" y="23" type="line"/>
      <point x="41" y="10"/>
      <point x="41" y="23"/>
      <point x="41" y="10" type="curve"/>
      <point x="41" y="0"/>
      <point x="41" y="10"/>
      <point x="41" y="0" type="curve"/>
      <point x="48" y="0"/>
      <point x="41" y="0"/>
      <point x="48" y="0" type="curve"/>
      <point x="454" y="0"/>
      <point x="319" y="0"/>
      <point x="454" y="0" type="curve"/>
      <point x="454" y="23"/>
      <point x="454" y="0"/>
      <point x="454" y="23" type="curve"/>
      <point x="319" y="23"/>
      <point x="183" y="23"/>
      <point x="48" y="23" type="curve"/>
      <point x="50" y="21"/>
      <point x="53" y="19"/>
      <point x="55" y="17" type="curve"/>
      <point x="58" y="16"/>
      <point x="58" y="12"/>
      <point x="61" y="10" type="curve"/>
      <point x="63" y="15"/>
      <point x="66" y="17"/>
      <point x="69" y="21" type="curve"/>
      <point x="422" y="699" type="line"/>
      <point x="422" y="712"/>
      <point x="422" y="699"/>
      <point x="422" y="712" type="curve"/>
      <point x="422" y="722"/>
      <point x="422" y="712"/>
      <point x="422" y="722" type="curve"/>
      <point x="413" y="722"/>
      <point x="422" y="722"/>
      <point x="413" y="722" type="curve"/>
      <point x="300" y="722"/>
      <point x="186" y="722"/>
      <point x="73" y="722" type="curve"/>
      <point x="73" y="699"/>
      <point x="73" y="722"/>
    </contour>
    <contour>
      <point x="316" y="991" type="line"/>
      <point x="243" y="825" type="line"/>
      <point x="275" y="825" type="line"/>
      <point x="342" y="991" type="line"/>
    </contour>
    <contour>
      <point x="166" y="991" type="line"/>
      <point x="232" y="825" type="line"/>
      <point x="265" y="825" type="line"/>
      <point x="191" y="991" type="line"/>
    </contour>
  </outline>
</glyph>
<glyph name="florin" format="1">
  <advance width="311"/>
  <unicode hex="0192"/>
  <outline>
    <contour>
      <point x="278" y="546" type="curve"/>
      <point x="218" y="546"/>
      <point x="156" y="546"/>
      <point x="96" y="546" type="curve"/>
      <point x="96" y="524"/>
      <point x="96" y="546"/>
      <point x="96" y="524" type="curve"/>
      <point x="156" y="524"/>
      <point x="218" y="524"/>
      <point x="278" y="524" type="curve"/>
      <point x="278" y="546"/>
      <point x="278" y="524"/>
    </contour>
    <contour>
      <point x="306" y="828" type="curve"/>
      <point x="241" y="846"/>
      <point x="205" y="788"/>
      <point x="193" y="709" type="curve"/>
      <point x="164" y="493"/>
      <point x="135" y="277"/>
      <point x="106" y="61" type="curve"/>
      <point x="97" y="-5"/>
      <point x="75" y="-58"/>
      <point x="21" y="-43" type="curve"/>
      <point x="17" y="-66"/>
      <point x="21" y="-43"/>
      <point x="17" y="-66" type="curve"/>
      <point x="84" y="-83"/>
      <point x="120" y="-24"/>
      <point x="131" y="58" type="curve"/>
      <point x="161" y="274"/>
      <point x="190" y="491"/>
      <point x="220" y="708" type="curve"/>
      <point x="228" y="771"/>
      <point x="250" y="819"/>
      <point x="301" y="805" type="curve"/>
      <point x="306" y="828"/>
      <point x="301" y="805"/>
    </contour>
  </outline>
</glyph>
<glyph name="circumflex" format="1">
  <advance width="404"/>
  <unicode hex="02C6"/>
  <outline>
    <contour>
      <point x="93" y="590" type="move" name="_top"/>
    </contour>
    <contour>
      <point x="30" y="590" type="line"/>
      <point x="104" y="756" type="line"/>
      <point x="71" y="756" type="line"/>
      <point x="5" y="590" type="line"/>
    </contour>
    <contour>
      <point x="181" y="590" type="line"/>
      <point x="114" y="756" type="line"/>
      <point x="82" y="756" type="line"/>
      <point x="155" y="590" type="line"/>
    </contour>
  </outline>
</glyph>
<glyph name="caron" format="1">
  <advance width="286"/>
  <unicode hex="02C7"/>
  <outline>
    <contour>
      <point x="92" y="592" type="move" name="_top"/>
    </contour>
    <contour>
      <point x="155" y="758" type="line"/>
      <point x="81" y="592" type="line"/>
      <point x="113" y="592" type="line"/>
      <point x="180" y="758" type="line"/>
    </contour>
    <contour>
      <point x="4" y="758" type="line"/>
      <point x="71" y="592" type="line"/>
      <point x="103" y="592" type="line"/>
      <point x="30" y="758" type="line"/>
    </contour>
  </outline>
</glyph>
<glyph name="breve" format="1">
  <advance width="302"/>
  <unicode hex="02D8"/>
  <outline>
    <contour>
      <point x="103" y="618" type="move" name="_top"/>
    </contour>
    <contour>
      <point x="182" y="742" type="curve"/>
      <point x="182" y="684"/>
      <point x="159" y="640"/>
      <point x="105" y="640" type="curve"/>
      <point x="53" y="640"/>
      <point x="33" y="685"/>
      <point x="33" y="743" type="curve"/>
      <point x="8" y="743"/>
      <point x="33" y="743"/>
      <point x="8" y="743" type="curve"/>
      <point x="8" y="670"/>
      <point x="37" y="618"/>
      <point x="103" y="618" type="curve"/>
      <point x="172" y="618"/>
      <point x="206" y="668"/>
      <point x="206" y="742" type="curve"/>
      <point x="182" y="742"/>
      <point x="206" y="742"/>
    </contour>
  </outline>
</glyph>
<glyph name="hungarumlaut" format="1">
  <advance width="380"/>
  <unicode hex="02DD"/>
  <outline>
    <contour>
      <point x="165" y="704" type="move" name="_top"/>
    </contour>
    <contour>
      <point x="114" y="731" type="line"/>
      <point x="187" y="897" type="line"/>
      <point x="155" y="897" type="line"/>
      <point x="88" y="731" type="line"/>
    </contour>
    <contour>
      <point x="215" y="731" type="line"/>
      <point x="288" y="897" type="line"/>
      <point x="256" y="897" type="line"/>
      <point x="189" y="731" type="line"/>
    </contour>
  </outline>
</glyph>
<glyph name="dvAnusvara" format="1">
  <advance width="0"/>
  <unicode hex="0902"/>
  <outline>
    <contour>
      <point x="-75" y="740" type="move" name="_abvm.e"/>
    </contour>
    <contour>
      <point x="-78" y="891" type="curve"/>
      <point x="-78" y="901"/>
      <point x="-84" y="907"/>
      <point x="-93" y="907" type="curve"/>
      <point x="-104" y="907"/>
      <point x="-110" y="900"/>
      <point x="-110" y="891" type="curve"/>
      <point x="-79" y="891"/>
      <point x="-109" y="891"/>
      <point x="-78" y="891" type="curve"/>
      <point x="-78" y="881"/>
      <point x="-84" y="876"/>
      <point x="-93" y="876" type="curve"/>
      <point x="-104" y="876"/>
      <point x="-110" y="882"/>
      <point x="-110" y="891" type="curve"/>
      <point x="-79" y="891"/>
      <point x="-109" y="891"/>
    </contour>
  </outline>
</glyph>
<glyph name="dvAA" format="1">
  <advance width="793"/>
  <unicode hex="0906"/>
  <outline>
    <contour>
      <point x="473" y="439" type="line"/>
      <point x="444" y="404"/>
      <point x="414" y="386"/>
      <point x="369" y="386" type="curve" smooth="yes"/>
      <point x="304" y="386"/>
      <point x="261" y="405"/>
      <point x="197" y="418" type="curve"/>
      <point x="197" y="418"/>
      <point x="192" y="404"/>
      <point x="191" y="404" type="curve"/>
      <point x="257" y="388"/>
      <point x="300" y="365"/>
      <point x="368" y="365" type="curve" smooth="yes"/>
      <point x="423" y="365"/>
      <point x="459" y="386"/>
      <point x="490" y="430" type="curve"/>
    </contour>
    <contour>
      <point x="482" y="0" type="curve"/>
      <point x="509" y="0"/>
      <point x="522" y="0"/>
      <point x="550" y="0" type="curve"/>
      <point x="550" y="23"/>
      <point x="550" y="0"/>
      <point x="550" y="23" type="curve"/>
      <point x="468" y="23"/>
      <point x="564" y="23"/>
      <point x="482" y="23" type="curve"/>
      <point x="482" y="0"/>
      <point x="482" y="23"/>
    </contour>
    <contour>
      <point x="482" y="23" type="curve"/>
      <point x="357" y="23"/>
      <point x="501" y="23"/>
      <point x="377" y="23" type="curve"/>
      <point x="377" y="0"/>
      <point x="377" y="23"/>
      <point x="377" y="0" type="curve"/>
      <point x="417" y="0"/>
      <point x="440" y="0"/>
      <point x="482" y="0" type="curve"/>
      <point x="482" y="23"/>
      <point x="482" y="0"/>
    </contour>
    <contour>
      <point x="493" y="0" type="curve"/>
      <point x="493" y="241"/>
      <point x="493" y="481"/>
      <point x="493" y="722" type="curve"/>
      <point x="468" y="722"/>
      <point x="493" y="722"/>
      <point x="468" y="722" type="curve"/>
      <point x="468" y="481"/>
      <point x="468" y="241"/>
      <point x="468" y="0" type="curve"/>
      <point x="493" y="0"/>
      <point x="468" y="0"/>
    </contour>
    <contour>
      <point x="473" y="697" type="curve"/>
      <point x="552" y="697"/>
      <point x="614" y="697"/>
      <point x="693" y="697" type="curve"/>
      <point x="693" y="722"/>
      <point x="693" y="697"/>
      <point x="693" y="722" type="curve"/>
      <point x="614" y="722"/>
      <point x="552" y="722"/>
      <point x="473" y="722" type="curve"/>
      <point x="473" y="697"/>
      <point x="473" y="722"/>
    </contour>
    <contour>
      <point x="87" y="640" type="curve"/>
      <point x="118" y="677"/>
      <point x="147" y="704"/>
      <point x="196" y="704" type="curve"/>
      <point x="276" y="704"/>
      <point x="309" y="641"/>
      <point x="308" y="564" type="curve"/>
      <point x="308" y="476"/>
      <point x="252" y="421"/>
      <point x="163" y="421" type="curve"/>
      <point x="163" y="401"/>
      <point x="163" y="421"/>
      <point x="163" y="401" type="curve"/>
      <point x="267" y="401"/>
      <point x="334" y="465"/>
      <point x="334" y="567" type="curve"/>
      <point x="333" y="657"/>
      <point x="292" y="727"/>
      <point x="199" y="727" type="curve"/>
      <point x="144" y="727"/>
      <point x="108" y="701"/>
      <point x="73" y="659" type="curve"/>
      <point x="87" y="641"/>
      <point x="73" y="658"/>
    </contour>
    <contour>
      <point x="59" y="162" type="curve"/>
      <point x="89" y="111"/>
      <point x="137" y="72"/>
      <point x="195" y="72" type="curve"/>
      <point x="293" y="66"/>
      <point x="350" y="141"/>
      <point x="348" y="247" type="curve"/>
      <point x="347" y="354"/>
      <point x="270" y="416"/>
      <point x="163" y="416" type="curve"/>
      <point x="163" y="398"/>
      <point x="163" y="416"/>
      <point x="163" y="398" type="curve"/>
      <point x="258" y="398"/>
      <point x="322" y="341"/>
      <point x="323" y="245" type="curve"/>
      <point x="324" y="157"/>
      <point x="280" y="90"/>
      <point x="197" y="94" type="curve"/>
      <point x="144" y="94"/>
      <point x="105" y="131"/>
      <point x="77" y="176" type="curve"/>
      <point x="59" y="162"/>
      <point x="76" y="176"/>
    </contour>
    <contour>
      <point x="668" y="0" type="curve"/>
      <point x="707" y="0"/>
      <point x="726" y="0"/>
      <point x="766" y="0" type="curve"/>
      <point x="766" y="23"/>
      <point x="766" y="0"/>
      <point x="766" y="23" type="curve"/>
      <point x="648" y="23"/>
      <point x="786" y="23"/>
      <point x="668" y="23" type="curve"/>
      <point x="668" y="0"/>
      <point x="668" y="23"/>
    </contour>
    <contour>
      <point x="668" y="23" type="curve"/>
      <point x="579" y="23"/>
      <point x="682" y="23"/>
      <point x="593" y="23" type="curve"/>
      <point x="593" y="0"/>
      <point x="593" y="23"/>
      <point x="593" y="0" type="curve"/>
      <point x="622" y="0"/>
      <point x="638" y="0"/>
      <point x="668" y="0" type="curve"/>
      <point x="668" y="23"/>
      <point x="668" y="0"/>
    </contour>
    <contour>
      <point x="680" y="0" type="curve"/>
      <point x="680" y="241"/>
      <point x="680" y="481"/>
      <point x="680" y="722" type="curve"/>
      <point x="654" y="722"/>
      <point x="680" y="722"/>
      <point x="654" y="722" type="curve"/>
      <point x="654" y="481"/>
      <point x="654" y="241"/>
      <point x="654" y="0" type="curve"/>
      <point x="680" y="0"/>
      <point x="654" y="0"/>
    </contour>
    <contour>
      <point x="659" y="697" type="curve"/>
      <point x="714" y="697"/>
      <point x="758" y="697"/>
      <point x="813" y="697" type="curve"/>
      <point x="813" y="722"/>
      <point x="813" y="697"/>
      <point x="813" y="722" type="curve"/>
      <point x="758" y="722"/>
      <point x="714" y="722"/>
      <point x="659" y="722" type="curve"/>
      <point x="659" y="697"/>
      <point x="659" y="722"/>
    </contour>
  </outline>
</glyph>
